<svg xmlns="http://www.w3.org/2000/svg" width="18" height="14.143" viewBox="0 0 18 14.143"><defs><style>.a{fill:#fff;}</style></defs><g transform="translate(0 -59.013)"><g transform="translate(0 59.013)"><path class="a" d="M32.785,329.024a1.538,1.538,0,0,0,1.053-.4l-5.1-5.1-.353.254q-.572.422-.929.658a5.725,5.725,0,0,1-.949.482,2.893,2.893,0,0,1-1.105.246h-.02a2.893,2.893,0,0,1-1.105-.246,5.707,5.707,0,0,1-.949-.482q-.357-.236-.929-.658l-.352-.255-5.1,5.1a1.539,1.539,0,0,0,1.053.4Z" transform="translate(-16.392 -314.881)"/><path class="a" d="M1.015,199.429A5.325,5.325,0,0,1,0,198.555v7.759l4.495-4.495Q3.146,200.878,1.015,199.429Z" transform="translate(0 -193.995)"/><path class="a" d="M416.8,199.429q-2.052,1.389-3.489,2.392l4.493,4.493v-7.759A5.544,5.544,0,0,1,416.8,199.429Z" transform="translate(-399.802 -193.995)"/><path class="a" d="M16.4,59.013H1.613a1.434,1.434,0,0,0-1.19.522,2.027,2.027,0,0,0-.417,1.306,2.347,2.347,0,0,0,.552,1.371,4.983,4.983,0,0,0,1.175,1.16q.341.241,2.059,1.431c.618.428,1.156.8,1.618,1.124.394.274.733.512,1.014.709l.15.107.277.2q.326.236.542.382t.522.326a3.047,3.047,0,0,0,.578.271,1.6,1.6,0,0,0,.5.09h.02a1.6,1.6,0,0,0,.5-.09,3.04,3.04,0,0,0,.578-.271q.306-.181.522-.326t.542-.382l.277-.2.15-.107L12.6,65.93l3.684-2.558a4.778,4.778,0,0,0,1.225-1.235,2.657,2.657,0,0,0,.492-1.517A1.62,1.62,0,0,0,16.4,59.013Z" transform="translate(-0.006 -59.013)"/></g></g></svg>