<svg xmlns="http://www.w3.org/2000/svg" width="18.443" height="18.402" viewBox="0 0 18.443 18.402"><defs><style>.a{fill:#fff;}</style></defs><g transform="translate(0 -0.394)"><g transform="translate(0 0.394)"><path class="a" d="M18.03,14.949,15.182,12.1a1.485,1.485,0,0,0-2.094.039l-1.435,1.435-.283-.158a14.28,14.28,0,0,1-3.452-2.5,14.36,14.36,0,0,1-2.5-3.458c-.053-.1-.1-.189-.154-.277l.963-.962L6.7,5.75a1.484,1.484,0,0,0,.038-2.094L3.888.807A1.484,1.484,0,0,0,1.794.846l-.8.807.022.022A4.642,4.642,0,0,0,.352,2.842,4.838,4.838,0,0,0,.058,4.026C-.318,7.144,1.107,9.993,4.973,13.86c5.345,5.345,9.653,4.941,9.838,4.921a4.813,4.813,0,0,0,1.187-.3,4.626,4.626,0,0,0,1.163-.659l.018.016.813-.8A1.487,1.487,0,0,0,18.03,14.949Z" transform="translate(0 -0.394)"/></g></g></svg>