<svg xmlns="http://www.w3.org/2000/svg" width="20" height="20" viewBox="0 0 20 20"><defs><style>.a{fill:#003241;}</style></defs><g transform="translate(-2866.972 -4093.529)"><g transform="translate(2866.97 4093.529)"><path class="a" d="M2884.041,4096.458a10,10,0,1,0,2.929,7.071A9.934,9.934,0,0,0,2884.041,4096.458Zm-7.071,15.9a8.828,8.828,0,1,1,8.828-8.828A8.838,8.838,0,0,1,2876.97,4112.357Z" transform="translate(-2866.97 -4093.529)"/></g><g transform="translate(2873.874 4097.295)"><g transform="translate(0 0)"><path class="a" d="M2892.8,4111.233h-1.255a1.3,1.3,0,1,1,0-2.593h2.51a.586.586,0,0,0,0-1.172h-1.3v-1.3a.586.586,0,0,0-1.172,0v1.3h-.042a2.468,2.468,0,1,0,0,4.937h1.255a1.3,1.3,0,0,1,0,2.594h-2.51a.586.586,0,0,0,0,1.172h1.3v1.3a.586.586,0,0,0,1.172,0v-1.3h.042a2.469,2.469,0,0,0,0-4.938Z" transform="translate(-2889.072 -4105.585)"/></g></g></g></svg>