<svg xmlns="http://www.w3.org/2000/svg" width="20" height="20" viewBox="0 0 20 20"><defs><style>.a{fill:#003241;}.b{fill:none;stroke:#003241;stroke-linecap:round;stroke-miterlimit:10;}</style></defs><g transform="translate(-1041.463 -6006.891)"><g transform="translate(1041.463 6006.891)"><path class="a" d="M1059.8,6008.764h-2.71v-1.248a.626.626,0,0,0-1.251,0v1.248h-3.747v-1.248a.626.626,0,0,0-1.252,0v1.248h-3.75v-1.248a.624.624,0,1,0-1.248,0v1.248h-2.71a1.669,1.669,0,0,0-1.666,1.667v14.791a1.669,1.669,0,0,0,1.666,1.669H1059.8a1.669,1.669,0,0,0,1.666-1.669V6010.43a1.669,1.669,0,0,0-1.666-1.667Zm.415,16.458a.416.416,0,0,1-.415.417h-16.667a.415.415,0,0,1-.415-.417V6010.43a.415.415,0,0,1,.415-.415h2.71v1.251a.624.624,0,0,0,1.248,0v-1.251h3.75v1.251a.626.626,0,0,0,1.252,0v-1.251h3.747v1.251a.626.626,0,0,0,1.251,0v-1.251h2.71a.415.415,0,0,1,.415.415Zm0,0" transform="translate(-1041.463 -6006.891)"/></g><g transform="translate(1046.347 6013.625)"><path class="b" d="M1095.09,6034.9l1.968,1.969-1.927,1.926" transform="translate(-1087.082 -6034.903)"/><line class="b" x2="9.799" transform="translate(0 1.948)"/></g><g transform="translate(1046.347 6018.908)"><path class="b" d="M1063.747,6060.779l-1.968-1.969,1.927-1.926" transform="translate(-1061.778 -6056.884)"/><line class="b" x1="9.799" transform="translate(0.177 1.948)"/></g></g></svg>