<svg xmlns="http://www.w3.org/2000/svg" width="20" height="19.999" viewBox="0 0 20 19.999"><defs><style>.a{fill:#003241;}</style></defs><g transform="translate(-13658.867 -8565.698)"><path class="a" d="M13668.185,8582.245c-.376.01-.775.016-1.192.016a27.172,27.172,0,0,1-5.157-.394v-1.794a.313.313,0,0,0-.625,0v1.65c-1.007-.267-1.406-.576-1.406-.78,0-2.8,1.882-3.893,4.71-4.659l.051-.013a2.028,2.028,0,0,0,.979,1.245,3.022,3.022,0,0,0,2.895,0,2.022,2.022,0,0,0,.978-1.245l.051.013.261.071a6.024,6.024,0,0,1,.9-.705c-.309-.1-.62-.191-.932-.275l-.029-.007c-.514-.105-.659-.207-.739-.466a5.621,5.621,0,0,0,2.156-4.061c0-3.22-1.532-5.144-4.094-5.144s-4.1,1.924-4.1,5.144a5.624,5.624,0,0,0,2.156,4.061c-.08.259-.225.36-.739.466l-.029.007c-2.679.724-5.415,1.953-5.415,5.568,0,1.028,1.408,2.255,8.125,2.255.562,0,1.081-.01,1.57-.026A5.854,5.854,0,0,1,13668.185,8582.245Zm-4.353-11.4c0-1.265.31-4.206,3.16-4.206s3.156,2.941,3.156,4.206a4.791,4.791,0,0,1-2.022,3.5.468.468,0,0,0-.176.458,1.515,1.515,0,0,0,.87,1.278,1.414,1.414,0,0,1-.694.893,2.41,2.41,0,0,1-2.271,0,1.421,1.421,0,0,1-.7-.893,1.524,1.524,0,0,0,.872-1.278.473.473,0,0,0-.177-.458A4.8,4.8,0,0,1,13663.832,8570.842Z" transform="translate(-0.001)"/><g transform="translate(13668.554 8575.386)"><g transform="translate(0 0)"><path class="a" d="M13695.571,8607.559a5.156,5.156,0,1,1,5.156-5.155A5.162,5.162,0,0,1,13695.571,8607.559Zm0-9.374a4.219,4.219,0,1,0,4.219,4.219A4.223,4.223,0,0,0,13695.571,8598.185Z" transform="translate(-13690.415 -8597.247)"/></g><g transform="translate(4.687 2.344)"><path class="a" d="M13706.148,8610.5a.469.469,0,0,1-.469-.468v-4.688a.469.469,0,0,1,.938,0v4.688A.47.47,0,0,1,13706.148,8610.5Z" transform="translate(-13705.68 -8604.88)"/></g><g transform="translate(2.344 4.687)"><path class="a" d="M13703.2,8613.451h-4.688a.469.469,0,0,1,0-.937h4.688a.469.469,0,0,1,0,.938Z" transform="translate(-13698.048 -8612.514)"/></g></g></g></svg>