<svg xmlns="http://www.w3.org/2000/svg" width="78" height="78" viewBox="0 0 78 78"><defs><style>.a{fill:#fff;stroke:#e3e3e3;opacity:0.355;}.b{fill:#00baff;}.c{stroke:none;}.d{fill:none;}</style></defs><g transform="translate(-545 -2148)"><g class="a" transform="translate(545 2148)"><circle class="c" cx="39" cy="39" r="39"/><circle class="d" cx="39" cy="39" r="38.5"/></g><g transform="translate(574 2172.96)"><path class="b" d="M14081.527,9922.4a5.843,5.843,0,1,0-5.5-5.834A5.681,5.681,0,0,0,14081.527,9922.4Z" transform="translate(-14071.128 -9910.729)"/><path class="b" d="M14074.4,9961.24a10.04,10.04,0,0,0-6.021-1.993h-.625a10.085,10.085,0,0,0-10.087,10.087v1.2h20.8v-1.2c0-.213-.006-.426-.021-.635A10.075,10.075,0,0,0,14074.4,9961.24Z" transform="translate(-14057.668 -9946.303)"/></g></g></svg>