<svg xmlns="http://www.w3.org/2000/svg" width="24.418" height="22.736" viewBox="0 0 24.418 22.736"><defs><style>.a{fill:#00baff;}</style></defs><g transform="translate(0 -17.047)"><g transform="translate(0.001 17.047)"><g transform="translate(0 0)"><path class="a" d="M24.007,27.321l-3.7-3.7V19.346a1.4,1.4,0,0,0-2.8,0v1.476l-2.755-2.755a3.682,3.682,0,0,0-5.09,0L.41,27.321A1.4,1.4,0,0,0,2.39,29.3l9.252-9.253a.826.826,0,0,1,1.132,0L22.027,29.3a1.4,1.4,0,1,0,1.98-1.979Z" transform="translate(-0.001 -17.047)"/><path class="a" d="M77.939,127.949a.687.687,0,0,0-.972,0l-8.139,8.136a.689.689,0,0,0-.2.487v5.934a2.522,2.522,0,0,0,2.522,2.522h4.029v-6.24h4.549v6.24h4.029a2.522,2.522,0,0,0,2.521-2.521v-5.934a.686.686,0,0,0-.2-.487Z" transform="translate(-65.245 -122.292)"/></g></g></g></svg>