<svg xmlns="http://www.w3.org/2000/svg" width="20" height="16.205" viewBox="0 0 20 16.205"><defs><style>.a{fill:#003241;}</style></defs><path class="a" d="M1386.268,7755.658a6.136,6.136,0,0,1,.4-1,2.186,2.186,0,0,1,1.5-1.04c0-1.387,0-2.769,0-4.151a3.266,3.266,0,0,1,.057-.49,1.441,1.441,0,0,1,1.35-1.095q6.686.023,13.373,0a1.413,1.413,0,0,1,1.417,1.419c-.015,1.432,0,2.865,0,4.306a2.387,2.387,0,0,1,1.875,1.883,1.369,1.369,0,0,1,.023.322c0,2.521,0,5.041.008,7.561a.665.665,0,0,1-.362.71h-2.2a.748.748,0,0,1-.362-.736c.029-.379.007-.763.007-1.145h-14.183c0,.4-.02.789.007,1.17a.637.637,0,0,1-.361.71h-2.551Zm18.987,2.658c0-.791-.009-1.56,0-2.329a1.4,1.4,0,0,0-1.4-1.4q-7.592.012-15.184,0a1.355,1.355,0,0,0-1.323,1.078c-.057.878-.015,1.762-.015,2.657Zm-17.087,4.747c0-.447,0-.861,0-1.275,0-.468.142-.61.612-.61h15.033c.416,0,.55.137.55.565v1.317h.875v-3.708h-17.943v3.711Zm7.651-9.5h.893c0-.631,0-1.243,0-1.854a1.445,1.445,0,0,1,1.449-1.455c1,.031,2,0,2.994.008a1.364,1.364,0,0,1,1.308,1.309c0,.366,0,.731,0,1.1v.9h.893v-4.1c0-.441-.133-.576-.571-.576h-12.957c-.524,0-.654.13-.655.66q0,1.852,0,3.706v.31h.893c0-.634,0-1.255,0-1.875a1.439,1.439,0,0,1,1.432-1.439c.988.027,1.977.006,2.965.007a1.36,1.36,0,0,1,1.354,1.353C1395.82,7752.255,1395.819,7752.9,1395.819,7753.562Zm5.639.007c0-.661.018-1.3-.01-1.94-.009-.23-.19-.365-.448-.364-.919,0-1.837,0-2.756,0-.33,0-.509.137-.52.46-.02.609-.006,1.219-.006,1.842Zm-10.385,0h3.74c0-.619,0-1.22,0-1.82a.433.433,0,0,0-.489-.478h-2.7c-.377,0-.545.149-.551.522C1391.065,7752.371,1391.073,7752.953,1391.073,7753.564Z" transform="translate(-1386.268 -7747.878)"/></svg>