<svg xmlns="http://www.w3.org/2000/svg" width="16.1" height="11.746" viewBox="0 0 16.1 11.746">
  <g id="Group_8480" data-name="Group 8480" transform="translate(16985 682.948)">
    <path id="Path_205" data-name="Path 205" d="M15.939,41.9l-5.4-4.076a.4.4,0,0,0-.486,0l-.889.67-.889-.67a.4.4,0,0,0-.486,0l-.866.653-.866-.653a.4.4,0,0,0-.486,0L.161,41.9A.4.4,0,0,0,0,42.223v6.862a.4.4,0,0,0,.4.4H15.7a.4.4,0,0,0,.4-.4V42.223a.4.4,0,0,0-.161-.322Zm-.647,6.781H13.836V42.223a.4.4,0,0,0-.161-.322L9.83,39l.461-.348,5,3.771Zm-3.675,0V42.223a.4.4,0,0,0-.161-.322L7.589,38.984l.439-.331,5,3.771v6.257H11.617Zm-5.148,0H5.148V45.754H6.47Zm.807,0V45.35a.4.4,0,0,0-.4-.4H4.744a.4.4,0,0,0-.4.4v3.331H.808V42.424l5-3.771,5,3.771v6.257Z" transform="translate(-16985 -720.691)" fill="#697684"/>
  </g>
</svg>
