<svg xmlns="http://www.w3.org/2000/svg" width="17.279" height="14" viewBox="0 0 17.279 14">
  <path id="Path_1957" data-name="Path 1957" d="M1386.268,7754.6a5.3,5.3,0,0,1,.345-.867,1.889,1.889,0,0,1,1.3-.9c0-1.2,0-2.392,0-3.586a2.789,2.789,0,0,1,.049-.423,1.246,1.246,0,0,1,1.166-.946q5.776.02,11.553,0a1.221,1.221,0,0,1,1.224,1.226c-.013,1.238,0,2.476,0,3.72a2.064,2.064,0,0,1,1.62,1.627,1.185,1.185,0,0,1,.02.277c0,2.179,0,4.355.007,6.533a.573.573,0,0,1-.312.613h-1.9a.645.645,0,0,1-.312-.635c.025-.327.006-.659.006-.989h-12.253c0,.349-.018.682.006,1.012a.549.549,0,0,1-.312.613h-2.2Zm16.4,2.3c0-.684-.008-1.348,0-2.013a1.209,1.209,0,0,0-1.211-1.211q-6.559.01-13.118,0a1.171,1.171,0,0,0-1.143.932c-.049.758-.013,1.522-.013,2.3Zm-14.763,4.1c0-.386,0-.745,0-1.1,0-.405.123-.528.529-.528h12.988c.36,0,.475.119.475.489v1.138h.756v-3.2h-15.5V7761Zm6.61-8.208h.771c0-.545,0-1.073,0-1.6a1.25,1.25,0,0,1,1.252-1.257c.862.027,1.725,0,2.587.008a1.178,1.178,0,0,1,1.13,1.13c0,.316,0,.632,0,.948v.778h.771v-3.541c0-.381-.115-.5-.493-.5h-11.194c-.453,0-.565.112-.566.57q0,1.6,0,3.2v.268h.772c0-.548,0-1.084,0-1.619a1.244,1.244,0,0,1,1.238-1.244c.853.023,1.708.006,2.561.006a1.175,1.175,0,0,1,1.17,1.169C1394.52,7751.659,1394.52,7752.213,1394.52,7752.788Zm4.872.006c0-.571.015-1.125-.008-1.677-.008-.2-.165-.315-.387-.314-.794,0-1.588,0-2.381,0-.285,0-.44.118-.449.4-.017.526,0,1.054,0,1.592Zm-8.972,0h3.231c0-.536,0-1.055,0-1.573a.375.375,0,0,0-.423-.414h-2.33c-.326,0-.47.129-.476.452C1390.413,7751.759,1390.419,7752.262,1390.419,7752.791Z" transform="translate(-1386.268 -7747.877)" fill="#697684"/>
</svg>
