<svg xmlns="http://www.w3.org/2000/svg" xmlns:xlink="http://www.w3.org/1999/xlink" width="56" height="56" viewBox="0 0 56 56">
  <defs>
    <clipPath id="clip-car-park">
      <rect width="56" height="56"/>
    </clipPath>
  </defs>
  <g id="car-park" clip-path="url(#clip-car-park)">
    <rect width="56" height="56" fill="#fff"/>
    <g id="Group_1422" data-name="Group 1422" transform="translate(2 6)">
      <g id="Path_277" data-name="Path 277" transform="translate(-770.979 -8275.404)" fill="#003241" stroke-miterlimit="10">
        <path d="M 812.430908203125 8288.1630859375 C 812.2493286132812 8288.1630859375 812.1348266601562 8288.1181640625 812.093994140625 8288.099609375 L 812.0220336914062 8288.0654296875 L 812.0220336914062 8287.986328125 L 812.0220336914062 8279.7314453125 L 812.0220336914062 8279.626953125 L 812.1253051757812 8279.6083984375 L 812.202880859375 8279.5947265625 L 812.2136840820312 8279.5927734375 L 812.224609375 8279.5927734375 L 814.8172607421875 8279.5927734375 C 816.474853515625 8279.5927734375 817.3153686523438 8280.4248046875 817.3153686523438 8282.06640625 L 817.3153686523438 8282.14453125 C 817.3153686523438 8282.962890625 817.0931396484375 8283.591796875 816.6549072265625 8284.0107421875 C 816.2182006835938 8284.4296875 815.565185546875 8284.6416015625 814.7141723632812 8284.6416015625 L 813.2695922851562 8284.6416015625 L 812.8402099609375 8284.6416015625 L 812.8402099609375 8285.0712890625 L 812.8402099609375 8287.9833984375 L 812.8402099609375 8288.0634765625 L 812.7677001953125 8288.0966796875 C 812.7246704101562 8288.1171875 812.6056518554688 8288.1630859375 812.430908203125 8288.1630859375 Z M 812.8402099609375 8284.185546875 L 813.2695922851562 8284.185546875 L 814.7141723632812 8284.185546875 C 815.8473510742188 8284.185546875 816.4972534179688 8283.48828125 816.4972534179688 8282.2734375 L 816.4972534179688 8282.1181640625 C 816.4972534179688 8280.919921875 815.8306884765625 8280.205078125 814.7141723632812 8280.205078125 L 813.2695922851562 8280.205078125 L 812.8402099609375 8280.205078125 L 812.8402099609375 8280.634765625 L 812.8402099609375 8283.7548828125 L 812.8402099609375 8284.185546875 Z" stroke="none"/>
        <path d="M 812.224609375 8279.7177734375 L 812.1470336914062 8279.7314453125 L 812.1470336914062 8287.986328125 C 812.1991577148438 8288.0107421875 812.2977294921875 8288.0380859375 812.430908203125 8288.0380859375 C 812.558349609375 8288.0380859375 812.6603393554688 8288.0087890625 812.7152099609375 8287.9833984375 L 812.7152099609375 8285.0712890625 L 812.7152099609375 8284.5166015625 L 813.2695922851562 8284.5166015625 L 814.7141723632812 8284.5166015625 C 816.3572387695312 8284.5166015625 817.1903686523438 8283.71875 817.1903686523438 8282.14453125 L 817.1903686523438 8282.06640625 C 817.1903686523438 8280.4853515625 816.413818359375 8279.7177734375 814.8172607421875 8279.7177734375 L 812.224609375 8279.7177734375 M 814.7141723632812 8284.310546875 L 813.2695922851562 8284.310546875 L 812.7152099609375 8284.310546875 L 812.7152099609375 8283.7548828125 L 812.7152099609375 8280.634765625 L 812.7152099609375 8280.080078125 L 813.2695922851562 8280.080078125 L 814.7141723632812 8280.080078125 C 815.9087524414062 8280.080078125 816.6222534179688 8280.8427734375 816.6222534179688 8282.1181640625 L 816.6222534179688 8282.2734375 C 816.6222534179688 8283.548828125 815.9087524414062 8284.310546875 814.7141723632812 8284.310546875 M 812.2027587890625 8279.4677734375 L 812.224609375 8279.4677734375 L 814.8172607421875 8279.4677734375 C 816.557861328125 8279.4677734375 817.4403686523438 8280.341796875 817.4403686523438 8282.06640625 L 817.4403686523438 8282.14453125 C 817.4403686523438 8283.8603515625 816.4976806640625 8284.7666015625 814.7141723632812 8284.7666015625 L 813.2695922851562 8284.7666015625 L 812.9652099609375 8284.7666015625 L 812.9652099609375 8285.0712890625 L 812.9652099609375 8287.9833984375 L 812.9652099609375 8288.1435546875 L 812.8201904296875 8288.2099609375 C 812.7696533203125 8288.2333984375 812.6304931640625 8288.2880859375 812.430908203125 8288.2880859375 C 812.231689453125 8288.2880859375 812.1011352539062 8288.2412109375 812.041015625 8288.212890625 L 811.8970336914062 8288.1455078125 L 811.8970336914062 8287.986328125 L 811.8970336914062 8279.7314453125 L 811.8970336914062 8279.521484375 L 812.1036376953125 8279.4853515625 L 812.1812133789062 8279.4716796875 L 812.2027587890625 8279.4677734375 Z M 814.7141723632812 8284.060546875 C 815.7678833007812 8284.060546875 816.3722534179688 8283.4091796875 816.3722534179688 8282.2734375 L 816.3722534179688 8282.1181640625 C 816.3722534179688 8280.9814453125 815.7678833007812 8280.330078125 814.7141723632812 8280.330078125 L 813.2695922851562 8280.330078125 L 812.9652099609375 8280.330078125 L 812.9652099609375 8280.634765625 L 812.9652099609375 8283.7548828125 L 812.9652099609375 8284.060546875 L 813.2695922851562 8284.060546875 L 814.7141723632812 8284.060546875 Z" stroke="none" fill="#003241"/>
      </g>
      <g id="Path_278" data-name="Path 278" transform="translate(-747.405 -8274.987)" fill="#003241" stroke-miterlimit="10">
        <path d="M 776.7153930664062 8282.8857421875 C 776.625732421875 8282.8857421875 776.545654296875 8282.853515625 776.4837646484375 8282.7919921875 C 774.2406005859375 8280.5478515625 771.2575073242188 8279.3115234375 768.083740234375 8279.3115234375 C 764.9105224609375 8279.3115234375 761.927490234375 8280.5478515625 759.68408203125 8282.791015625 C 759.6235961914062 8282.8525390625 759.5433959960938 8282.8857421875 759.4526977539062 8282.8857421875 C 759.3624267578125 8282.8857421875 759.2823486328125 8282.8525390625 759.22119140625 8282.791015625 C 759.093994140625 8282.662109375 759.0941772460938 8282.455078125 759.2216796875 8282.328125 C 761.5888061523438 8279.9609375 764.7364501953125 8278.6572265625 768.0842895507812 8278.6572265625 C 771.431884765625 8278.6572265625 774.579345703125 8279.9609375 776.9468383789062 8282.328125 C 777.07373046875 8282.4541015625 777.07421875 8282.662109375 776.9475708007812 8282.791015625 C 776.885498046875 8282.853515625 776.8053588867188 8282.8857421875 776.7153930664062 8282.8857421875 Z" stroke="none"/>
        <path d="M 776.7153930664062 8282.7607421875 C 776.7465209960938 8282.7607421875 776.806884765625 8282.7548828125 776.8584594726562 8282.703125 C 776.9371948242188 8282.623046875 776.9371948242188 8282.4951171875 776.8584594726562 8282.4169921875 C 774.5147094726562 8280.0732421875 771.3987426757812 8278.7822265625 768.0842895507812 8278.7822265625 C 764.7698974609375 8278.7822265625 761.6534423828125 8280.0732421875 759.3096923828125 8282.4169921875 C 759.23095703125 8282.4951171875 759.23095703125 8282.623046875 759.3101806640625 8282.703125 C 759.3612060546875 8282.7548828125 759.4216918945312 8282.7607421875 759.4526977539062 8282.7607421875 C 759.4843139648438 8282.7607421875 759.5447387695312 8282.7548828125 759.595703125 8282.703125 C 761.863525390625 8280.4345703125 764.8779907226562 8279.1865234375 768.083740234375 8279.1865234375 C 771.2901000976562 8279.1865234375 774.3045654296875 8280.4345703125 776.5718383789062 8282.703125 C 776.6239624023438 8282.7548828125 776.683837890625 8282.7607421875 776.7153930664062 8282.7607421875 M 776.7153930664062 8283.0107421875 C 776.5938110351562 8283.0107421875 776.4802856445312 8282.96484375 776.3956909179688 8282.880859375 C 774.17578125 8280.6591796875 771.22412109375 8279.4365234375 768.083740234375 8279.4365234375 C 764.9439086914062 8279.4365234375 761.9922485351562 8280.6591796875 759.7725219726562 8282.8798828125 C 759.6898803710938 8282.9638671875 759.5758666992188 8283.0107421875 759.4526977539062 8283.0107421875 C 759.3299560546875 8283.0107421875 759.2161254882812 8282.9638671875 759.1321411132812 8282.87890625 C 758.9567260742188 8282.701171875 758.957275390625 8282.4140625 759.1336059570312 8282.2392578125 C 761.5240478515625 8279.8486328125 764.7030639648438 8278.5322265625 768.0842895507812 8278.5322265625 C 771.4652709960938 8278.5322265625 774.6441040039062 8279.8486328125 777.0352172851562 8282.240234375 C 777.2105102539062 8282.4140625 777.2114868164062 8282.701171875 777.0367431640625 8282.8779296875 C 776.9512939453125 8282.9638671875 776.8375854492188 8283.0107421875 776.7153930664062 8283.0107421875 Z" stroke="none" fill="#003241"/>
      </g>
      <g id="Path_279" data-name="Path 279" transform="translate(-749.914 -8278.538)" fill="#003241" stroke-miterlimit="10">
        <path d="M 776.103271484375 8289.55859375 C 776.01318359375 8289.55859375 775.93310546875 8289.5263671875 775.8716430664062 8289.4638671875 C 774.4642944335938 8288.056640625 772.5897827148438 8287.28125 770.5935668945312 8287.28125 C 768.5970458984375 8287.28125 766.722412109375 8288.056640625 765.3148803710938 8289.46484375 C 765.2535400390625 8289.5263671875 765.1734619140625 8289.55859375 765.08349609375 8289.55859375 C 764.9934692382812 8289.55859375 764.9133911132812 8289.5263671875 764.8518676757812 8289.4638671875 C 764.7684326171875 8289.37890625 764.756103515625 8289.2822265625 764.756103515625 8289.2314453125 C 764.756103515625 8289.1904296875 764.7655029296875 8289.0859375 764.8527221679688 8289 C 766.3836059570312 8287.4697265625 768.4226684570312 8286.6259765625 770.5935668945312 8286.6259765625 C 772.764404296875 8286.6259765625 774.8033447265625 8287.4697265625 776.3346557617188 8289.001953125 C 776.4210815429688 8289.0849609375 776.4305419921875 8289.1904296875 776.4305419921875 8289.2314453125 C 776.4305419921875 8289.2822265625 776.418212890625 8289.37890625 776.335693359375 8289.462890625 C 776.273193359375 8289.5263671875 776.1931762695312 8289.55859375 776.103271484375 8289.55859375 Z" stroke="none"/>
        <path d="M 776.103271484375 8289.43359375 C 776.13427734375 8289.43359375 776.1946411132812 8289.427734375 776.2462768554688 8289.3759765625 C 776.2977905273438 8289.3232421875 776.3055419921875 8289.2626953125 776.3055419921875 8289.2314453125 C 776.3055419921875 8289.201171875 776.2977905273438 8289.1396484375 776.2462768554688 8289.08984375 C 774.7389526367188 8287.58203125 772.731201171875 8286.7509765625 770.5935668945312 8286.7509765625 C 768.4555053710938 8286.7509765625 766.4476318359375 8287.58203125 764.9404907226562 8289.0888671875 C 764.8889770507812 8289.1396484375 764.881103515625 8289.201171875 764.881103515625 8289.2314453125 C 764.881103515625 8289.2626953125 764.8889770507812 8289.3232421875 764.9404907226562 8289.3759765625 C 764.9920043945312 8289.427734375 765.0524291992188 8289.43359375 765.08349609375 8289.43359375 C 765.114501953125 8289.43359375 765.1749267578125 8289.427734375 765.2265014648438 8289.3759765625 C 766.6578369140625 8287.9443359375 768.564208984375 8287.15625 770.5935668945312 8287.15625 C 772.623046875 8287.15625 774.5288696289062 8287.9443359375 775.960205078125 8289.3759765625 C 776.01171875 8289.427734375 776.0720825195312 8289.43359375 776.103271484375 8289.43359375 M 776.103271484375 8289.68359375 C 775.9810180664062 8289.68359375 775.8672485351562 8289.63671875 775.7830200195312 8289.552734375 C 774.3995361328125 8288.1689453125 772.556396484375 8287.40625 770.5935668945312 8287.40625 C 768.6304321289062 8287.40625 766.7871704101562 8288.1689453125 765.4033203125 8289.552734375 C 765.3192749023438 8289.63671875 765.2056274414062 8289.68359375 765.08349609375 8289.68359375 C 764.9612426757812 8289.68359375 764.8475341796875 8289.63671875 764.7633056640625 8289.552734375 C 764.6480712890625 8289.4345703125 764.631103515625 8289.30078125 764.631103515625 8289.2314453125 C 764.631103515625 8289.111328125 764.679931640625 8288.9951171875 764.7650146484375 8288.9111328125 C 766.31884765625 8287.357421875 768.3892822265625 8286.5009765625 770.5935668945312 8286.5009765625 C 772.7978515625 8286.5009765625 774.8681030273438 8287.357421875 776.423095703125 8288.9130859375 C 776.5061645507812 8288.9931640625 776.5555419921875 8289.1103515625 776.5555419921875 8289.2314453125 C 776.5555419921875 8289.3515625 776.5092163085938 8289.46484375 776.4251098632812 8289.55078125 C 776.3389892578125 8289.63671875 776.225341796875 8289.68359375 776.103271484375 8289.68359375 Z" stroke="none" fill="#003241"/>
      </g>
      <g id="Path_280" data-name="Path 280" transform="translate(-752.384 -8282.029)" fill="#003241" stroke-miterlimit="10">
        <path d="M 775.50146484375 8296.123046875 C 775.4503173828125 8296.123046875 775.3519897460938 8296.1103515625 775.2684936523438 8296.0244140625 C 774.6809692382812 8295.4384765625 773.8974609375 8295.1142578125 773.0634155273438 8295.1142578125 C 772.2290649414062 8295.1142578125 771.4453735351562 8295.4384765625 770.8568115234375 8296.0263671875 C 770.7733764648438 8296.1103515625 770.6756591796875 8296.123046875 770.6248779296875 8296.123046875 C 770.5740966796875 8296.123046875 770.4764404296875 8296.1103515625 770.3930053710938 8296.0244140625 C 770.3325805664062 8295.9658203125 770.298095703125 8295.8837890625 770.298095703125 8295.794921875 C 770.298095703125 8295.744140625 770.3106079101562 8295.646484375 770.394287109375 8295.5634765625 C 771.1060791015625 8294.8515625 772.0540771484375 8294.458984375 773.0634155273438 8294.458984375 C 774.0721435546875 8294.458984375 775.0202026367188 8294.8515625 775.7328491210938 8295.5634765625 C 775.8158569335938 8295.6474609375 775.8281860351562 8295.744140625 775.8281860351562 8295.794921875 C 775.8281860351562 8295.8828125 775.7941284179688 8295.9658203125 775.7322387695312 8296.0263671875 C 775.6503295898438 8296.1103515625 775.5524291992188 8296.123046875 775.50146484375 8296.123046875 Z" stroke="none"/>
        <path d="M 775.50146484375 8295.998046875 C 775.532470703125 8295.998046875 775.5928955078125 8295.990234375 775.6444702148438 8295.9375 C 775.6959838867188 8295.88671875 775.7031860351562 8295.8271484375 775.7031860351562 8295.794921875 C 775.7031860351562 8295.7646484375 775.6959838867188 8295.7041015625 775.6444702148438 8295.65234375 C 774.9558715820312 8294.9638671875 774.0396118164062 8294.583984375 773.0634155273438 8294.583984375 C 772.0872802734375 8294.583984375 771.17041015625 8294.9638671875 770.482421875 8295.65234375 C 770.4303588867188 8295.7041015625 770.423095703125 8295.7646484375 770.423095703125 8295.794921875 C 770.423095703125 8295.8271484375 770.4303588867188 8295.88671875 770.482421875 8295.9375 C 770.533935546875 8295.990234375 770.5938720703125 8295.998046875 770.6248779296875 8295.998046875 C 770.656494140625 8295.998046875 770.7163696289062 8295.990234375 770.7684936523438 8295.9375 C 771.3804931640625 8295.326171875 772.1953735351562 8294.9892578125 773.0634155273438 8294.9892578125 C 773.930908203125 8294.9892578125 774.745849609375 8295.326171875 775.3578491210938 8295.9375 C 775.409423828125 8295.990234375 775.4697875976562 8295.998046875 775.50146484375 8295.998046875 M 775.50146484375 8296.248046875 C 775.3792114257812 8296.248046875 775.2647094726562 8296.2001953125 775.1790771484375 8296.1123046875 C 774.6162109375 8295.5498046875 773.8641357421875 8295.2392578125 773.0634155273438 8295.2392578125 C 772.2623901367188 8295.2392578125 771.5101318359375 8295.5498046875 770.9451904296875 8296.1142578125 C 770.8604125976562 8296.2001953125 770.7462158203125 8296.248046875 770.6248779296875 8296.248046875 C 770.5040893554688 8296.248046875 770.3907470703125 8296.2001953125 770.3053588867188 8296.1142578125 C 770.2200317382812 8296.029296875 770.173095703125 8295.916015625 770.173095703125 8295.794921875 C 770.173095703125 8295.673828125 770.2203369140625 8295.560546875 770.30615234375 8295.474609375 C 771.041259765625 8294.7392578125 772.0206909179688 8294.333984375 773.0634155273438 8294.333984375 C 774.1055297851562 8294.333984375 775.0849609375 8294.7392578125 775.8212280273438 8295.4755859375 C 775.906494140625 8295.5615234375 775.9531860351562 8295.6748046875 775.9531860351562 8295.794921875 C 775.9531860351562 8295.9169921875 775.9058837890625 8296.03125 775.8200073242188 8296.115234375 C 775.7376098632812 8296.2001953125 775.6233520507812 8296.248046875 775.50146484375 8296.248046875 Z" stroke="none" fill="#003241"/>
      </g>
      <g id="Path_281" data-name="Path 281" transform="translate(-743.051 -8290.414)" fill="#003241" stroke-miterlimit="10">
        <path d="M 779.7424926757812 8320.9990234375 L 758.996826171875 8320.9990234375 C 758.8163452148438 8320.9990234375 758.6694946289062 8320.8515625 758.6694946289062 8320.6708984375 C 758.6694946289062 8320.4912109375 758.8163452148438 8320.3447265625 758.996826171875 8320.3447265625 L 761.5103149414062 8320.3447265625 L 761.9395751953125 8320.3447265625 L 761.9395751953125 8319.9150390625 L 761.9395751953125 8314.357421875 L 761.9395751953125 8313.927734375 L 761.5103149414062 8313.927734375 L 759.4541625976562 8313.927734375 C 757.3040161132812 8313.927734375 755.2815551757812 8314.763671875 753.7594604492188 8316.2822265625 C 752.792724609375 8317.244140625 751.6919555664062 8318.0498046875 750.4876708984375 8318.67578125 C 750.1929931640625 8318.8271484375 750.0101928710938 8319.126953125 750.0101928710938 8319.458984375 C 750.0101928710938 8319.947265625 750.4071655273438 8320.3447265625 750.8950805664062 8320.3447265625 L 754.026611328125 8320.3447265625 C 754.2070922851562 8320.3447265625 754.3539428710938 8320.4912109375 754.3539428710938 8320.6708984375 C 754.3539428710938 8320.8515625 754.2070922851562 8320.9990234375 754.026611328125 8320.9990234375 L 750.8950805664062 8320.9990234375 C 750.0464477539062 8320.9990234375 749.3560180664062 8320.30859375 749.3560180664062 8319.458984375 C 749.3560180664062 8318.8828125 749.674072265625 8318.3603515625 750.18603515625 8318.0927734375 C 751.3316650390625 8317.498046875 752.3784790039062 8316.732421875 753.2975463867188 8315.81640625 C 754.945068359375 8314.1767578125 757.1315307617188 8313.2734375 759.4541625976562 8313.2734375 L 768.6395874023438 8313.2734375 C 770.3836059570312 8313.2734375 772.072021484375 8313.7900390625 773.5222778320312 8314.7685546875 L 778.5270385742188 8318.150390625 C 778.8408203125 8318.3623046875 779.1749877929688 8318.5654296875 779.5201416015625 8318.755859375 C 780.0883178710938 8319.068359375 780.4412841796875 8319.66015625 780.4412841796875 8320.298828125 C 780.4412841796875 8320.314453125 780.4407958984375 8320.3291015625 780.4398193359375 8320.3447265625 L 780.460693359375 8320.3447265625 L 780.4114990234375 8320.5029296875 L 780.346923828125 8320.7392578125 L 780.3173217773438 8320.6982421875 C 780.189453125 8320.8837890625 779.9774169921875 8320.9990234375 779.7424926757812 8320.9990234375 Z M 762.5947875976562 8320.3447265625 L 763.0241088867188 8320.3447265625 L 779.2330322265625 8320.3447265625 L 780.0658569335938 8320.3447265625 L 779.5829467773438 8319.666015625 C 779.48583984375 8319.529296875 779.3552856445312 8319.4130859375 779.2052612304688 8319.3310546875 C 778.8468017578125 8319.1337890625 778.49560546875 8318.9189453125 778.1608276367188 8318.6923828125 L 773.1561889648438 8315.3115234375 C 771.8167114257812 8314.4072265625 770.2548828125 8313.9287109375 768.6395874023438 8313.9287109375 L 763.0241088867188 8313.9287109375 L 762.5947875976562 8313.9287109375 L 762.5947875976562 8314.357421875 L 762.5947875976562 8319.9150390625 L 762.5947875976562 8320.3447265625 Z" stroke="none"/>
        <path d="M 779.7424926757812 8320.8740234375 C 779.999755859375 8320.8740234375 780.2181396484375 8320.703125 780.2908325195312 8320.4697265625 L 779.2330322265625 8320.4697265625 L 763.0241088867188 8320.4697265625 L 762.4697875976562 8320.4697265625 L 762.4697875976562 8319.9150390625 L 762.4697875976562 8314.357421875 L 762.4697875976562 8313.8037109375 L 763.0241088867188 8313.8037109375 L 768.6395874023438 8313.8037109375 C 770.2804565429688 8313.8037109375 771.8670043945312 8314.2900390625 773.2261352539062 8315.2080078125 L 778.2307739257812 8318.5888671875 C 778.5634155273438 8318.8134765625 778.91162109375 8319.0263671875 779.2651977539062 8319.2216796875 C 779.4315185546875 8319.3125 779.5762939453125 8319.4404296875 779.684814453125 8319.59375 L 780.2957153320312 8320.4521484375 C 780.3090209960938 8320.4033203125 780.3162841796875 8320.353515625 780.3162841796875 8320.298828125 C 780.3162841796875 8319.7060546875 779.9880981445312 8319.15625 779.4597778320312 8318.865234375 C 779.1177978515625 8318.6767578125 778.7801513671875 8318.4716796875 778.45703125 8318.25390625 L 773.452392578125 8314.8720703125 C 772.0260620117188 8313.91015625 770.3613891601562 8313.3984375 768.6395874023438 8313.3984375 L 759.4541625976562 8313.3984375 C 757.1636352539062 8313.3984375 755.0083618164062 8314.2900390625 753.3858032226562 8315.9052734375 C 752.457763671875 8316.830078125 751.4006958007812 8317.603515625 750.2437744140625 8318.2041015625 C 749.7731323242188 8318.44921875 749.4810180664062 8318.9296875 749.4810180664062 8319.458984375 C 749.4810180664062 8320.2392578125 750.1151733398438 8320.8740234375 750.8950805664062 8320.8740234375 L 754.026611328125 8320.8740234375 C 754.1385498046875 8320.8740234375 754.2289428710938 8320.783203125 754.2289428710938 8320.6708984375 C 754.2289428710938 8320.5615234375 754.1385498046875 8320.4697265625 754.026611328125 8320.4697265625 L 750.8950805664062 8320.4697265625 C 750.338623046875 8320.4697265625 749.8851928710938 8320.0146484375 749.8851928710938 8319.458984375 C 749.8851928710938 8319.0810546875 750.093994140625 8318.7373046875 750.4300537109375 8318.564453125 C 751.62353515625 8317.9443359375 752.7138671875 8317.146484375 753.6712036132812 8316.193359375 C 755.21728515625 8314.6513671875 757.2711791992188 8313.802734375 759.4541625976562 8313.802734375 L 761.5103149414062 8313.802734375 L 762.0645751953125 8313.802734375 L 762.0645751953125 8314.357421875 L 762.0645751953125 8319.9150390625 L 762.0645751953125 8320.4697265625 L 761.5103149414062 8320.4697265625 L 758.996826171875 8320.4697265625 C 758.8853759765625 8320.4697265625 758.7944946289062 8320.5615234375 758.7944946289062 8320.6708984375 C 758.7944946289062 8320.783203125 758.8853759765625 8320.8740234375 758.996826171875 8320.8740234375 L 779.7424926757812 8320.8740234375 M 779.7424926757812 8321.1240234375 L 758.996826171875 8321.1240234375 C 758.7473754882812 8321.1240234375 758.5444946289062 8320.9208984375 758.5444946289062 8320.6708984375 C 758.5444946289062 8320.421875 758.7473754882812 8320.2197265625 758.996826171875 8320.2197265625 L 761.5103149414062 8320.2197265625 L 761.8145751953125 8320.2197265625 L 761.8145751953125 8319.9150390625 L 761.8145751953125 8314.357421875 L 761.8145751953125 8314.052734375 L 761.5103149414062 8314.052734375 L 759.4541625976562 8314.052734375 C 757.3373413085938 8314.052734375 755.3462524414062 8314.8759765625 753.8477172851562 8316.3701171875 C 752.8718872070312 8317.341796875 751.7608642578125 8318.154296875 750.5453491210938 8318.7861328125 C 750.2919921875 8318.9169921875 750.1351928710938 8319.173828125 750.1351928710938 8319.458984375 C 750.1351928710938 8319.87890625 750.47607421875 8320.2197265625 750.8950805664062 8320.2197265625 L 754.026611328125 8320.2197265625 C 754.2760620117188 8320.2197265625 754.4789428710938 8320.421875 754.4789428710938 8320.6708984375 C 754.4789428710938 8320.9208984375 754.2760620117188 8321.1240234375 754.026611328125 8321.1240234375 L 750.8950805664062 8321.1240234375 C 749.9775390625 8321.1240234375 749.2310180664062 8320.376953125 749.2310180664062 8319.458984375 C 749.2310180664062 8318.8369140625 749.5748291015625 8318.2705078125 750.1282958984375 8317.982421875 C 751.2627563476562 8317.3935546875 752.2992553710938 8316.634765625 753.2093505859375 8315.728515625 C 754.8804931640625 8314.064453125 757.0982666015625 8313.1484375 759.4541625976562 8313.1484375 L 768.6395874023438 8313.1484375 C 770.4086303710938 8313.1484375 772.1212158203125 8313.6728515625 773.5921630859375 8314.6650390625 L 778.5969848632812 8318.046875 C 778.9075927734375 8318.255859375 779.238525390625 8318.4580078125 779.5804443359375 8318.646484375 C 780.1650390625 8318.96875 780.5367431640625 8319.56640625 780.5645751953125 8320.2197265625 L 780.6305541992188 8320.2197265625 L 780.5315551757812 8320.537109375 L 780.3980712890625 8321.02734375 L 780.307861328125 8320.900390625 C 780.1588745117188 8321.041015625 779.9589233398438 8321.1240234375 779.7424926757812 8321.1240234375 Z M 762.7197875976562 8320.2197265625 L 763.0241088867188 8320.2197265625 L 779.2330322265625 8320.2197265625 L 779.823486328125 8320.2197265625 L 779.4811401367188 8319.73828125 C 779.3947143554688 8319.6162109375 779.27880859375 8319.513671875 779.1453857421875 8319.44140625 C 778.7831420898438 8319.2412109375 778.4287109375 8319.0244140625 778.0908813476562 8318.7958984375 L 773.086181640625 8315.4150390625 C 771.7674560546875 8314.5244140625 770.2298583984375 8314.0537109375 768.6395874023438 8314.0537109375 L 763.0241088867188 8314.0537109375 L 762.7197875976562 8314.0537109375 L 762.7197875976562 8314.357421875 L 762.7197875976562 8319.9150390625 L 762.7197875976562 8320.2197265625 Z" stroke="none" fill="#003241"/>
      </g>
      <g id="Path_282" data-name="Path 282" transform="translate(-753.405 -8298.24)" fill="#003241" stroke-miterlimit="10">
        <path d="M 775.2520141601562 8331.4873046875 L 772.9149780273438 8331.4873046875 C 772.7348022460938 8331.4873046875 772.5882568359375 8331.3408203125 772.5882568359375 8331.1611328125 C 772.5882568359375 8330.98046875 772.7348022460938 8330.8330078125 772.9149780273438 8330.8330078125 L 775.2520141601562 8330.8330078125 C 775.4324951171875 8330.8330078125 775.579345703125 8330.98046875 775.579345703125 8331.1611328125 C 775.579345703125 8331.3408203125 775.4324951171875 8331.4873046875 775.2520141601562 8331.4873046875 Z" stroke="none"/>
        <path d="M 775.2520141601562 8331.3623046875 C 775.363525390625 8331.3623046875 775.454345703125 8331.2724609375 775.454345703125 8331.1611328125 C 775.454345703125 8331.048828125 775.363525390625 8330.9580078125 775.2520141601562 8330.9580078125 L 772.9149780273438 8330.9580078125 C 772.8035888671875 8330.9580078125 772.7132568359375 8331.048828125 772.7132568359375 8331.1611328125 C 772.7132568359375 8331.2724609375 772.8035888671875 8331.3623046875 772.9149780273438 8331.3623046875 L 775.2520141601562 8331.3623046875 M 775.2520141601562 8331.6123046875 L 772.9149780273438 8331.6123046875 C 772.6658935546875 8331.6123046875 772.4632568359375 8331.41015625 772.4632568359375 8331.1611328125 C 772.4632568359375 8330.9111328125 772.6658935546875 8330.7080078125 772.9149780273438 8330.7080078125 L 775.2520141601562 8330.7080078125 C 775.5014038085938 8330.7080078125 775.704345703125 8330.9111328125 775.704345703125 8331.1611328125 C 775.704345703125 8331.41015625 775.5014038085938 8331.6123046875 775.2520141601562 8331.6123046875 Z" stroke="none" fill="#003241"/>
      </g>
      <g id="Path_283" data-name="Path 283" transform="translate(-737.882 -8271.936)" fill="#003241" stroke-miterlimit="10">
        <path d="M 781.3668212890625 8315.76953125 C 780.1405029296875 8315.76953125 778.9879760742188 8315.2919921875 778.1214599609375 8314.423828125 C 777.56787109375 8313.87109375 777.1632080078125 8313.1806640625 776.951416015625 8312.4267578125 L 776.86376953125 8312.1123046875 L 776.5380249023438 8312.1123046875 L 751.4114379882812 8312.1123046875 L 751.0859985351562 8312.1123046875 L 750.9979248046875 8312.4267578125 C 750.7859497070312 8313.1806640625 750.3815307617188 8313.8720703125 749.8283081054688 8314.4248046875 C 748.9632568359375 8315.291015625 747.810546875 8315.7685546875 746.5825805664062 8315.7685546875 C 745.3549194335938 8315.7685546875 744.2022705078125 8315.291015625 743.3370361328125 8314.423828125 C 742.6859130859375 8313.775390625 742.2505493164062 8312.9541015625 742.0781860351562 8312.048828125 L 742.0357055664062 8311.828125 L 741.83056640625 8311.7373046875 L 738.8169555664062 8310.3984375 C 738.1731567382812 8310.11328125 737.7571411132812 8309.47265625 737.7571411132812 8308.767578125 L 737.7571411132812 8301.44140625 C 737.7571411132812 8299.9931640625 738.7855224609375 8298.7265625 740.2024536132812 8298.4296875 L 741.2889404296875 8298.2021484375 C 743.2642822265625 8297.7880859375 745.0631103515625 8296.81640625 746.4908447265625 8295.392578125 C 748.5746459960938 8293.3173828125 751.3426513671875 8292.173828125 754.2850341796875 8292.173828125 L 763.4705200195312 8292.173828125 C 765.6822509765625 8292.173828125 767.8200073242188 8292.828125 769.6526489257812 8294.0654296875 L 774.6561279296875 8297.4462890625 C 775.5808715820312 8298.0712890625 776.979736328125 8298.9365234375 778.4454956054688 8299.228515625 L 779.4493408203125 8299.427734375 L 779.9630126953125 8299.5302734375 L 779.9630126953125 8299.0068359375 L 779.9630126953125 8289.892578125 L 779.9630126953125 8289.462890625 L 779.5336303710938 8289.462890625 L 773.8011474609375 8289.462890625 C 772.9974365234375 8289.462890625 772.3435668945312 8288.80859375 772.3435668945312 8288.00390625 L 772.3435668945312 8283.77734375 C 772.3435668945312 8283.5966796875 772.4901733398438 8283.4501953125 772.6703491210938 8283.4501953125 C 772.850830078125 8283.4501953125 772.9976196289062 8283.5966796875 772.9976196289062 8283.77734375 L 772.9976196289062 8288.00390625 C 772.9976196289062 8288.4482421875 773.3580932617188 8288.8095703125 773.8011474609375 8288.8095703125 L 788.5366821289062 8288.8095703125 C 788.9797973632812 8288.8095703125 789.3402709960938 8288.4482421875 789.3402709960938 8288.00390625 L 789.3402709960938 8273.26953125 C 789.3402709960938 8272.826171875 788.9797973632812 8272.46484375 788.5366821289062 8272.46484375 L 773.8017578125 8272.46484375 C 773.3587036132812 8272.46484375 772.998291015625 8272.826171875 772.998291015625 8273.26953125 L 772.998291015625 8278.859375 C 772.998291015625 8279.0400390625 772.8514404296875 8279.1865234375 772.6708984375 8279.1865234375 C 772.4904174804688 8279.1865234375 772.3435668945312 8279.0400390625 772.3435668945312 8278.859375 L 772.3435668945312 8273.26953125 C 772.3435668945312 8272.46484375 772.9974365234375 8271.810546875 773.8011474609375 8271.810546875 L 788.5361328125 8271.810546875 C 789.3402099609375 8271.810546875 789.9943237304688 8272.46484375 789.9943237304688 8273.26953125 L 789.9943237304688 8288.00390625 C 789.9943237304688 8288.80859375 789.3402099609375 8289.462890625 788.5361328125 8289.462890625 L 783.4810791015625 8289.462890625 L 783.0517578125 8289.462890625 L 783.0517578125 8289.892578125 L 783.0517578125 8299.79296875 L 783.0517578125 8300.1455078125 L 783.3980102539062 8300.2138671875 L 785.3508911132812 8300.6015625 C 786.9429321289062 8300.9189453125 788.3374633789062 8301.8984375 789.1769409179688 8303.2900390625 L 789.4165649414062 8303.6884765625 C 789.8029174804688 8304.3291015625 790.0071411132812 8305.0634765625 790.0071411132812 8305.8125 L 790.0071411132812 8309.736328125 C 790.0071411132812 8311.046875 788.94140625 8312.1123046875 787.6314697265625 8312.1123046875 L 786.19580078125 8312.1123046875 L 785.8703002929688 8312.1123046875 L 785.7822265625 8312.4267578125 C 785.5703735351562 8313.1806640625 785.1659545898438 8313.8720703125 784.6126708984375 8314.4248046875 C 783.7470092773438 8315.2919921875 782.59423828125 8315.76953125 781.3668212890625 8315.76953125 Z M 778.0839233398438 8309.0087890625 L 778.0822143554688 8309.013671875 L 778.0738525390625 8309.0263671875 C 777.0587158203125 8310.5751953125 777.2734375 8312.6513671875 778.5844116210938 8313.9638671875 C 779.3277587890625 8314.7060546875 780.31591796875 8315.115234375 781.3668212890625 8315.115234375 C 782.4181518554688 8315.115234375 783.4065551757812 8314.7060546875 784.1499633789062 8313.962890625 C 785.4600830078125 8312.6513671875 785.6748046875 8310.5751953125 784.660400390625 8309.0263671875 L 784.6453247070312 8309.0029296875 L 784.6435546875 8309 L 784.5531005859375 8308.8701171875 L 784.5126342773438 8308.8154296875 L 784.4327392578125 8308.7138671875 L 784.34228515625 8308.60546875 L 784.2965087890625 8308.552734375 L 784.2762451171875 8308.5302734375 C 784.2349853515625 8308.4853515625 784.1923828125 8308.439453125 784.1502075195312 8308.3974609375 C 783.4059448242188 8307.6533203125 782.4175415039062 8307.244140625 781.3668212890625 8307.244140625 C 780.316650390625 8307.244140625 779.3286743164062 8307.6533203125 778.5848388671875 8308.396484375 C 778.5479736328125 8308.4326171875 778.5117797851562 8308.4716796875 778.476806640625 8308.509765625 L 778.4373168945312 8308.552734375 L 778.3709716796875 8308.630859375 L 778.2981567382812 8308.7177734375 L 778.2214965820312 8308.814453125 L 778.1795043945312 8308.8720703125 L 778.088134765625 8309.0029296875 L 778.0839233398438 8309.0087890625 Z M 742.9559936523438 8309.654296875 C 742.3412475585938 8311.1181640625 742.6734619140625 8312.8359375 743.800048828125 8313.9638671875 C 744.5427856445312 8314.7060546875 745.531005859375 8315.115234375 746.5825805664062 8315.115234375 C 747.6337890625 8315.115234375 748.6221313476562 8314.7060546875 749.3656005859375 8313.962890625 C 750.6758422851562 8312.6513671875 750.8905639648438 8310.5751953125 749.8760375976562 8309.0263671875 L 749.8609619140625 8309.0029296875 L 749.8538208007812 8308.9921875 L 749.8536987304688 8308.9912109375 L 749.7686767578125 8308.87109375 L 749.7235107421875 8308.8095703125 L 749.6474609375 8308.712890625 L 749.5611572265625 8308.609375 L 749.5121459960938 8308.552734375 L 749.489501953125 8308.5283203125 C 749.448974609375 8308.484375 749.4071655273438 8308.4384765625 749.365966796875 8308.396484375 C 749.3154907226562 8308.34765625 749.2672729492188 8308.3017578125 749.2196044921875 8308.2587890625 L 749.2001342773438 8308.2421875 L 749.1807861328125 8308.2255859375 L 749.1802978515625 8308.224609375 L 749.0703125 8308.1298828125 L 749.0682983398438 8308.1298828125 L 749.0528564453125 8308.1181640625 C 748.3572998046875 8307.556640625 747.4800415039062 8307.2470703125 746.5825805664062 8307.2470703125 C 745.6841430664062 8307.2470703125 744.8013305664062 8307.560546875 744.0966186523438 8308.12890625 L 743.97314453125 8308.236328125 L 743.947021484375 8308.2578125 L 743.9447631835938 8308.259765625 L 743.9424438476562 8308.26171875 L 743.9406127929688 8308.2626953125 L 743.8265991210938 8308.373046875 L 743.7874145507812 8308.4111328125 C 743.7496948242188 8308.4501953125 743.7117919921875 8308.4892578125 743.6732788085938 8308.5302734375 L 743.6541137695312 8308.5498046875 L 743.6063842773438 8308.607421875 L 743.5194702148438 8308.708984375 L 743.4611206054688 8308.7861328125 L 743.390869140625 8308.8779296875 L 743.3359985351562 8308.95703125 L 743.27734375 8309.044921875 L 743.216552734375 8309.1416015625 L 743.1740112304688 8309.2138671875 L 743.1122436523438 8309.32421875 L 743.0823364257812 8309.3818359375 L 743.073486328125 8309.400390625 L 743.2097778320312 8309.4638671875 L 743.3305053710938 8309.5205078125 L 743.2694091796875 8309.6318359375 C 743.2672729492188 8309.6376953125 743.265380859375 8309.6416015625 743.2633666992188 8309.646484375 L 743.2146606445312 8309.7509765625 L 743.1061401367188 8309.7109375 L 742.9559936523438 8309.654296875 Z M 785.9676513671875 8311.458984375 L 786.3853149414062 8311.458984375 L 787.630859375 8311.458984375 C 788.5798950195312 8311.458984375 789.3524780273438 8310.6865234375 789.35302734375 8309.736328125 L 789.35302734375 8305.8125 C 789.35302734375 8305.181640625 789.18115234375 8304.5634765625 788.85595703125 8304.025390625 L 788.616943359375 8303.6279296875 C 787.872802734375 8302.39453125 786.6359252929688 8301.5244140625 785.2234497070312 8301.2431640625 L 778.3185424804688 8299.8720703125 C 776.7420043945312 8299.5576171875 775.2646484375 8298.6474609375 774.2905883789062 8297.9892578125 L 769.2860107421875 8294.6083984375 C 767.5616455078125 8293.443359375 765.5507202148438 8292.828125 763.4705200195312 8292.828125 L 754.2855834960938 8292.828125 C 751.5182495117188 8292.828125 748.914306640625 8293.9033203125 746.953369140625 8295.8564453125 C 745.4340209960938 8297.3701171875 743.5217895507812 8298.40234375 741.4234008789062 8298.8427734375 L 740.3368530273438 8299.0703125 C 739.2213134765625 8299.3037109375 738.4117431640625 8300.30078125 738.4117431640625 8301.44140625 L 738.4117431640625 8308.767578125 C 738.4117431640625 8309.212890625 738.6751098632812 8309.619140625 739.082763671875 8309.80078125 L 741.4407348632812 8310.8486328125 L 741.9594116210938 8311.0791015625 L 742.0401000976562 8310.517578125 C 742.114501953125 8310.0029296875 742.276123046875 8309.5068359375 742.5204467773438 8309.0419921875 C 742.5543212890625 8308.9794921875 742.5886840820312 8308.91796875 742.630859375 8308.8447265625 C 742.710205078125 8308.7119140625 742.7914428710938 8308.5888671875 742.873291015625 8308.478515625 L 742.8975219726562 8308.443359375 L 742.9052734375 8308.4326171875 L 742.90966796875 8308.4287109375 L 743.0037231445312 8308.3076171875 L 743.0436401367188 8308.2578125 L 743.0455322265625 8308.2548828125 L 743.0474853515625 8308.2529296875 L 743.14111328125 8308.1455078125 L 743.18603515625 8308.0927734375 C 743.2386474609375 8308.03515625 743.2891845703125 8307.982421875 743.3380126953125 8307.9345703125 C 744.2036743164062 8307.068359375 745.3562622070312 8306.591796875 746.5825805664062 8306.591796875 C 747.4854736328125 8306.591796875 748.3590087890625 8306.8525390625 749.1087036132812 8307.3466796875 C 749.3685302734375 8307.5185546875 749.6105346679688 8307.716796875 749.8284301757812 8307.935546875 C 749.869873046875 8307.974609375 749.911376953125 8308.01953125 749.9514770507812 8308.0625 L 749.9896850585938 8308.103515625 L 749.9921875 8308.1064453125 L 749.9945068359375 8308.109375 L 750.010009765625 8308.1279296875 L 750.0112915039062 8308.12890625 C 750.0643920898438 8308.189453125 750.1058959960938 8308.23828125 750.1508178710938 8308.29296875 C 750.7915649414062 8309.08203125 751.144775390625 8310.03125 751.172119140625 8311.041015625 L 751.1832275390625 8311.458984375 L 751.6014404296875 8311.458984375 L 776.348388671875 8311.458984375 L 776.7661743164062 8311.458984375 L 776.77783203125 8311.0400390625 C 776.8051147460938 8310.0322265625 777.1611328125 8309.078125 777.807373046875 8308.28125 L 777.9281616210938 8308.140625 L 777.9629516601562 8308.1025390625 L 778.0990600585938 8307.9580078125 L 778.1203002929688 8307.9365234375 C 778.768798828125 8307.2880859375 779.57861328125 8306.853515625 780.4635009765625 8306.6787109375 C 780.75732421875 8306.619140625 781.0614624023438 8306.5888671875 781.3668212890625 8306.5888671875 C 781.74609375 8306.5888671875 782.1239013671875 8306.6357421875 782.4896240234375 8306.728515625 C 783.287353515625 8306.9267578125 784.0211181640625 8307.34375 784.611083984375 8307.9326171875 L 784.6135864257812 8307.935546875 L 784.6159057617188 8307.9384765625 L 784.6275024414062 8307.951171875 L 784.6318359375 8307.955078125 L 784.6373291015625 8307.9599609375 L 784.6593627929688 8307.9833984375 C 784.6973266601562 8308.0234375 784.735595703125 8308.0625 784.77783203125 8308.1083984375 L 784.7796630859375 8308.1103515625 L 784.7814331054688 8308.1123046875 L 784.7965087890625 8308.1298828125 L 784.802978515625 8308.13671875 L 784.8268432617188 8308.1640625 C 784.8607788085938 8308.203125 784.8958740234375 8308.244140625 784.9383544921875 8308.296875 C 785.5768432617188 8309.08203125 785.9290161132812 8310.03125 785.9564208984375 8311.041015625 L 785.9676513671875 8311.458984375 Z M 780.61767578125 8299.66015625 L 780.9627685546875 8299.728515625 L 781.8846435546875 8299.912109375 L 782.3976440429688 8300.015625 L 782.3976440429688 8299.4921875 L 782.3976440429688 8289.892578125 L 782.3976440429688 8289.462890625 L 781.9683227539062 8289.462890625 L 781.0469970703125 8289.462890625 L 780.61767578125 8289.462890625 L 780.61767578125 8289.892578125 L 780.61767578125 8299.3076171875 L 780.61767578125 8299.66015625 Z" stroke="none"/>
        <path d="M 781.3668212890625 8315.64453125 C 782.5598754882812 8315.64453125 783.6812744140625 8315.1806640625 784.5243530273438 8314.3359375 C 785.0631713867188 8313.7978515625 785.4562377929688 8313.125 785.661865234375 8312.392578125 L 785.7755737304688 8311.9873046875 L 786.19580078125 8311.9873046875 L 787.6314697265625 8311.9873046875 C 788.8721313476562 8311.9873046875 789.8821411132812 8310.978515625 789.8821411132812 8309.736328125 L 789.8821411132812 8305.8125 C 789.8821411132812 8305.0869140625 789.6842651367188 8304.3740234375 789.3094482421875 8303.7529296875 L 789.0699462890625 8303.3544921875 C 788.2495727539062 8301.9951171875 786.8853759765625 8301.03515625 785.3265380859375 8300.724609375 L 783.3735961914062 8300.3369140625 L 782.9267578125 8300.248046875 L 782.9267578125 8299.79296875 L 782.9267578125 8289.892578125 L 782.9267578125 8289.337890625 L 783.4810791015625 8289.337890625 L 788.5361328125 8289.337890625 C 789.2711791992188 8289.337890625 789.8693237304688 8288.740234375 789.8693237304688 8288.00390625 L 789.8693237304688 8273.26953125 C 789.8693237304688 8272.5341796875 789.2711791992188 8271.935546875 788.5361328125 8271.935546875 L 773.8011474609375 8271.935546875 C 773.0661010742188 8271.935546875 772.4685668945312 8272.5341796875 772.4685668945312 8273.26953125 L 772.4685668945312 8278.859375 C 772.4685668945312 8278.970703125 772.5594482421875 8279.0615234375 772.6708984375 8279.0615234375 C 772.7823486328125 8279.0615234375 772.873291015625 8278.970703125 772.873291015625 8278.859375 L 772.873291015625 8273.26953125 C 772.873291015625 8272.7578125 773.28955078125 8272.33984375 773.8017578125 8272.33984375 L 788.5366821289062 8272.33984375 C 789.04833984375 8272.33984375 789.4652709960938 8272.7578125 789.4652709960938 8273.26953125 L 789.4652709960938 8288.00390625 C 789.4652709960938 8288.5166015625 789.04833984375 8288.9345703125 788.5366821289062 8288.9345703125 L 773.8011474609375 8288.9345703125 C 773.28955078125 8288.9345703125 772.8726196289062 8288.5166015625 772.8726196289062 8288.00390625 L 772.8726196289062 8283.77734375 C 772.8726196289062 8283.6650390625 772.7823486328125 8283.5751953125 772.6703491210938 8283.5751953125 C 772.5589599609375 8283.5751953125 772.4685668945312 8283.6650390625 772.4685668945312 8283.77734375 L 772.4685668945312 8288.00390625 C 772.4685668945312 8288.740234375 773.0661010742188 8289.337890625 773.8011474609375 8289.337890625 L 779.5336303710938 8289.337890625 L 780.0880126953125 8289.337890625 L 780.0880126953125 8289.892578125 L 780.0880126953125 8299.0068359375 L 780.0880126953125 8299.6826171875 L 779.4249877929688 8299.55078125 L 778.4210815429688 8299.3515625 C 776.9371337890625 8299.0556640625 775.5219116210938 8298.1826171875 774.5861206054688 8297.5498046875 L 769.5827026367188 8294.1689453125 C 767.7705078125 8292.9453125 765.6567993164062 8292.298828125 763.4705200195312 8292.298828125 L 754.2850341796875 8292.298828125 C 751.3764038085938 8292.298828125 748.6396484375 8293.4287109375 746.5791015625 8295.4814453125 C 745.1334228515625 8296.9228515625 743.3130493164062 8297.9052734375 741.3145751953125 8298.32421875 L 740.2280883789062 8298.5517578125 C 738.8682861328125 8298.8369140625 737.8821411132812 8300.0517578125 737.8821411132812 8301.44140625 L 737.8821411132812 8308.767578125 C 737.8821411132812 8309.4228515625 738.2684936523438 8310.0185546875 738.86767578125 8310.2841796875 L 741.881103515625 8311.623046875 L 742.1461181640625 8311.740234375 L 742.2009887695312 8312.025390625 C 742.3683471679688 8312.904296875 742.7924194335938 8313.705078125 743.4254760742188 8314.3359375 C 744.2676391601562 8315.1796875 745.3889770507812 8315.6435546875 746.5825805664062 8315.6435546875 C 747.7764892578125 8315.6435546875 748.8978881835938 8315.1796875 749.739990234375 8314.3359375 C 750.27880859375 8313.7978515625 750.671875 8313.125 750.8775634765625 8312.392578125 L 750.9912109375 8311.9873046875 L 751.4114379882812 8311.9873046875 L 776.5380249023438 8311.9873046875 L 776.9586791992188 8311.9873046875 L 777.07177734375 8312.392578125 C 777.2774658203125 8313.125 777.6710815429688 8313.7978515625 778.2098999023438 8314.3359375 C 779.0536499023438 8315.1806640625 780.1744384765625 8315.64453125 781.3668212890625 8315.64453125 M 781.3668212890625 8307.119140625 C 782.4511108398438 8307.119140625 783.4711303710938 8307.5419921875 784.2383422851562 8308.30859375 C 784.2904052734375 8308.3603515625 784.3414306640625 8308.4169921875 784.3907470703125 8308.470703125 L 784.4384155273438 8308.525390625 L 784.531005859375 8308.63671875 L 784.6130981445312 8308.7412109375 L 784.65576171875 8308.798828125 L 784.7494506835938 8308.93359375 L 784.7505493164062 8308.935546875 L 784.7649536132812 8308.9580078125 C 785.8121337890625 8310.556640625 785.5909423828125 8312.697265625 784.2383422851562 8314.0517578125 C 783.4711303710938 8314.818359375 782.4511108398438 8315.240234375 781.3668212890625 8315.240234375 C 780.2826538085938 8315.240234375 779.26318359375 8314.818359375 778.4959716796875 8314.0517578125 C 777.143310546875 8312.6982421875 776.9215698242188 8310.556640625 777.9692993164062 8308.9580078125 L 777.9710083007812 8308.953125 L 777.98583984375 8308.9306640625 L 778.0784912109375 8308.798828125 L 778.1233520507812 8308.7373046875 L 778.2026977539062 8308.63671875 L 778.2753295898438 8308.55078125 L 778.343505859375 8308.4697265625 C 778.392822265625 8308.4169921875 778.4432373046875 8308.3603515625 778.4965209960938 8308.3076171875 C 779.26318359375 8307.5419921875 780.2826538085938 8307.119140625 781.3668212890625 8307.119140625 M 742.888916015625 8309.49609375 L 743.1499633789062 8309.59375 C 743.1522216796875 8309.5888671875 743.1539306640625 8309.58203125 743.1566162109375 8309.5771484375 L 742.9049682617188 8309.458984375 L 742.9714965820312 8309.32421875 L 743.0031127929688 8309.263671875 L 743.0663452148438 8309.150390625 L 743.1107177734375 8309.0751953125 L 743.1732788085938 8308.9755859375 L 743.2337036132812 8308.884765625 L 743.2913208007812 8308.802734375 L 743.3617553710938 8308.7099609375 L 743.422119140625 8308.630859375 L 743.5103149414062 8308.52734375 L 743.5607299804688 8308.466796875 C 743.6073608398438 8308.41796875 743.6527099609375 8308.3701171875 743.6998901367188 8308.322265625 L 743.73974609375 8308.283203125 L 743.8590087890625 8308.16796875 L 743.86669921875 8308.162109375 L 743.8911743164062 8308.1416015625 L 744.0181274414062 8308.03125 C 744.7481689453125 8307.4423828125 745.6544799804688 8307.1220703125 746.5825805664062 8307.1220703125 C 747.5093994140625 8307.1220703125 748.4140014648438 8307.44140625 749.13134765625 8308.0205078125 L 749.1336059570312 8308.021484375 L 749.1468505859375 8308.03125 L 749.2810668945312 8308.146484375 L 749.2815551757812 8308.1474609375 L 749.3031616210938 8308.166015625 C 749.3552856445312 8308.212890625 749.40576171875 8308.2607421875 749.4544677734375 8308.30859375 C 749.506103515625 8308.3603515625 749.5570678710938 8308.4169921875 749.6063842773438 8308.470703125 L 749.657470703125 8308.529296875 L 749.7455444335938 8308.6357421875 L 749.8242797851562 8308.7353515625 L 749.870849609375 8308.798828125 L 749.965087890625 8308.9326171875 L 749.9661865234375 8308.935546875 L 749.9805908203125 8308.9580078125 C 751.0277099609375 8310.556640625 750.8059692382812 8312.6982421875 749.4539184570312 8314.0517578125 C 748.6867065429688 8314.818359375 747.6672973632812 8315.240234375 746.5825805664062 8315.240234375 C 745.4982299804688 8315.240234375 744.4782104492188 8314.818359375 743.7116088867188 8314.0517578125 C 742.5208740234375 8312.8603515625 742.1904296875 8311.029296875 742.888916015625 8309.49609375 M 781.3668212890625 8306.7138671875 C 781.0708618164062 8306.7138671875 780.775390625 8306.7431640625 780.4876708984375 8306.8017578125 C 779.6262817382812 8306.9716796875 778.8380126953125 8307.3955078125 778.2098999023438 8308.0234375 L 778.18994140625 8308.0439453125 L 778.0552368164062 8308.1865234375 L 778.0231323242188 8308.2216796875 L 777.9044189453125 8308.3603515625 C 777.2719116210938 8309.1396484375 776.9293212890625 8310.0634765625 776.9027709960938 8311.0439453125 L 776.8877563476562 8311.583984375 L 776.348388671875 8311.583984375 L 751.6014404296875 8311.583984375 L 751.0615234375 8311.583984375 L 751.0471801757812 8311.0439453125 C 751.0205688476562 8310.0625 750.6768798828125 8309.138671875 750.0537109375 8308.3720703125 C 750.0038452148438 8308.310546875 749.9617309570312 8308.26171875 749.91845703125 8308.212890625 L 749.9140625 8308.2080078125 L 749.8985595703125 8308.189453125 C 749.8453979492188 8308.1328125 749.7938232421875 8308.0751953125 749.739990234375 8308.0234375 C 749.5255126953125 8307.80859375 749.2904052734375 8307.6171875 749.0399169921875 8307.451171875 C 748.3121337890625 8306.9716796875 747.4622192382812 8306.716796875 746.5825805664062 8306.716796875 C 745.388427734375 8306.716796875 744.2676391601562 8307.181640625 743.4254760742188 8308.0234375 C 743.3756103515625 8308.072265625 743.327392578125 8308.123046875 743.28076171875 8308.1748046875 L 743.2353515625 8308.2275390625 L 743.1417236328125 8308.3349609375 L 743.1023559570312 8308.384765625 L 743.001953125 8308.513671875 L 742.9998168945312 8308.515625 L 742.9737548828125 8308.552734375 C 742.8905639648438 8308.6650390625 742.8118896484375 8308.78515625 742.7391967773438 8308.9072265625 C 742.6976318359375 8308.9794921875 742.663818359375 8309.0400390625 742.631103515625 8309.1005859375 C 742.3922729492188 8309.5546875 742.2359008789062 8310.037109375 742.163818359375 8310.53515625 L 742.0596313476562 8311.2607421875 L 741.3899536132812 8310.962890625 L 739.0317993164062 8309.9150390625 C 738.578857421875 8309.712890625 738.2867431640625 8309.2626953125 738.2867431640625 8308.767578125 L 738.2867431640625 8301.44140625 C 738.2867431640625 8300.2421875 739.1382446289062 8299.193359375 740.3112182617188 8298.9482421875 L 741.397705078125 8298.720703125 C 743.47314453125 8298.28515625 745.3634643554688 8297.263671875 746.8651733398438 8295.767578125 C 748.84912109375 8293.7919921875 751.4845581054688 8292.703125 754.2855834960938 8292.703125 L 763.4705200195312 8292.703125 C 765.5758666992188 8292.703125 767.6109008789062 8293.326171875 769.35595703125 8294.5048828125 L 774.3605346679688 8297.8857421875 C 775.3250732421875 8298.537109375 776.7869262695312 8299.439453125 778.3428955078125 8299.7490234375 L 785.2479248046875 8301.1201171875 C 786.6951293945312 8301.4091796875 787.9618530273438 8302.2998046875 788.7240600585938 8303.5634765625 L 788.9629516601562 8303.9609375 C 789.2994995117188 8304.517578125 789.47802734375 8305.1591796875 789.47802734375 8305.8125 L 789.47802734375 8309.736328125 C 789.4774169921875 8310.7548828125 788.6492919921875 8311.583984375 787.630859375 8311.583984375 L 786.3853149414062 8311.583984375 L 785.845947265625 8311.583984375 L 785.8314819335938 8311.0439453125 C 785.8048706054688 8310.064453125 785.4622802734375 8309.1396484375 784.8409423828125 8308.375 C 784.7899169921875 8308.3115234375 784.7489624023438 8308.265625 784.7084350585938 8308.21875 L 784.7062377929688 8308.216796875 L 784.686279296875 8308.193359375 C 784.6363525390625 8308.1396484375 784.5919799804688 8308.09375 784.5470581054688 8308.046875 L 784.541015625 8308.0419921875 L 784.522705078125 8308.021484375 C 783.9500732421875 8307.44921875 783.2361450195312 8307.04296875 782.4589233398438 8306.849609375 C 782.1041259765625 8306.759765625 781.7371215820312 8306.7138671875 781.3668212890625 8306.7138671875 M 780.49267578125 8289.337890625 L 781.0469970703125 8289.337890625 L 781.9683227539062 8289.337890625 L 782.5226440429688 8289.337890625 L 782.5226440429688 8289.892578125 L 782.5226440429688 8299.4921875 L 782.5226440429688 8300.16796875 L 781.8602294921875 8300.03515625 L 780.9382934570312 8299.8515625 L 780.49267578125 8299.7626953125 L 780.49267578125 8299.3076171875 L 780.49267578125 8289.892578125 L 780.49267578125 8289.337890625 M 781.3668212890625 8315.89453125 C 780.1071166992188 8315.89453125 778.9231567382812 8315.4033203125 778.0330200195312 8314.5126953125 C 777.46435546875 8313.9443359375 777.0486450195312 8313.2353515625 776.8311157226562 8312.4599609375 L 776.7689208984375 8312.2373046875 L 776.5380249023438 8312.2373046875 L 751.4114379882812 8312.2373046875 L 751.1807250976562 8312.2373046875 L 751.1182861328125 8312.4599609375 C 750.9005126953125 8313.2353515625 750.4850463867188 8313.9453125 749.9166259765625 8314.5126953125 C 749.0281372070312 8315.4033203125 747.8439331054688 8315.8935546875 746.5825805664062 8315.8935546875 C 745.3214721679688 8315.8935546875 744.137451171875 8315.4033203125 743.24853515625 8314.5126953125 C 742.5797729492188 8313.845703125 742.1325073242188 8313.001953125 741.9553833007812 8312.072265625 L 741.9253540039062 8311.916015625 L 741.780029296875 8311.8515625 L 738.7661743164062 8310.5126953125 C 738.0773315429688 8310.20703125 737.6321411132812 8309.5224609375 737.6321411132812 8308.767578125 L 737.6321411132812 8301.44140625 C 737.6321411132812 8299.9345703125 738.7023315429688 8298.6162109375 740.1767578125 8298.306640625 L 741.2633666992188 8298.0791015625 C 743.2149047851562 8297.669921875 744.9920043945312 8296.7109375 746.402587890625 8295.3046875 C 748.510009765625 8293.205078125 751.309326171875 8292.048828125 754.2850341796875 8292.048828125 L 763.4705200195312 8292.048828125 C 765.707275390625 8292.048828125 767.8692016601562 8292.7099609375 769.7225952148438 8293.9619140625 L 774.72607421875 8297.3427734375 C 775.6419067382812 8297.9619140625 777.0263061523438 8298.818359375 778.469970703125 8299.1064453125 L 779.4736328125 8299.3056640625 L 779.8380126953125 8299.3779296875 L 779.8380126953125 8299.0068359375 L 779.8380126953125 8289.892578125 L 779.8380126953125 8289.587890625 L 779.5336303710938 8289.587890625 L 773.8011474609375 8289.587890625 C 772.9285278320312 8289.587890625 772.2185668945312 8288.876953125 772.2185668945312 8288.00390625 L 772.2185668945312 8283.77734375 C 772.2185668945312 8283.5283203125 772.4212646484375 8283.3251953125 772.6703491210938 8283.3251953125 C 772.9197387695312 8283.3251953125 773.1226196289062 8283.5283203125 773.1226196289062 8283.77734375 L 773.1226196289062 8288.00390625 C 773.1226196289062 8288.37890625 773.427001953125 8288.6845703125 773.8011474609375 8288.6845703125 L 788.5366821289062 8288.6845703125 C 788.910888671875 8288.6845703125 789.2152709960938 8288.37890625 789.2152709960938 8288.00390625 L 789.2152709960938 8273.26953125 C 789.2152709960938 8272.89453125 788.910888671875 8272.58984375 788.5366821289062 8272.58984375 L 773.8017578125 8272.58984375 C 773.4276733398438 8272.58984375 773.123291015625 8272.89453125 773.123291015625 8273.26953125 L 773.123291015625 8278.859375 C 773.123291015625 8279.1083984375 772.9203491210938 8279.3115234375 772.6708984375 8279.3115234375 C 772.4215087890625 8279.3115234375 772.2185668945312 8279.1083984375 772.2185668945312 8278.859375 L 772.2185668945312 8273.26953125 C 772.2185668945312 8272.396484375 772.9285278320312 8271.685546875 773.8011474609375 8271.685546875 L 788.5361328125 8271.685546875 C 789.4091186523438 8271.685546875 790.1193237304688 8272.396484375 790.1193237304688 8273.26953125 L 790.1193237304688 8288.00390625 C 790.1193237304688 8288.876953125 789.4091186523438 8289.587890625 788.5361328125 8289.587890625 L 783.4810791015625 8289.587890625 L 783.1767578125 8289.587890625 L 783.1767578125 8289.892578125 L 783.1767578125 8299.79296875 L 783.1767578125 8300.04296875 L 783.42236328125 8300.091796875 L 785.375244140625 8300.4794921875 C 787.0017700195312 8300.8037109375 788.4263916015625 8301.8046875 789.2839965820312 8303.2255859375 L 789.5237426757812 8303.6240234375 C 789.9216918945312 8304.283203125 790.1321411132812 8305.0400390625 790.1321411132812 8305.8125 L 790.1321411132812 8309.736328125 C 790.1321411132812 8311.115234375 789.0103149414062 8312.2373046875 787.6314697265625 8312.2373046875 L 786.19580078125 8312.2373046875 L 785.965087890625 8312.2373046875 L 785.902587890625 8312.4599609375 C 785.6849365234375 8313.2353515625 785.2694091796875 8313.9453125 784.7009887695312 8314.5126953125 C 783.8118286132812 8315.4033203125 782.6276245117188 8315.89453125 781.3668212890625 8315.89453125 Z M 778.1964111328125 8309.0654296875 L 778.1951293945312 8309.0693359375 L 778.1784057617188 8309.0947265625 C 777.195556640625 8310.5947265625 777.4035034179688 8312.6044921875 778.6727905273438 8313.875 C 779.3924560546875 8314.59375 780.3493041992188 8314.990234375 781.3668212890625 8314.990234375 C 782.3848266601562 8314.990234375 783.3418579101562 8314.59375 784.0616455078125 8313.875 C 785.330078125 8312.6044921875 785.5379638671875 8310.5947265625 784.5558471679688 8309.0947265625 L 784.5401000976562 8309.0703125 L 784.53955078125 8309.0693359375 L 784.4527587890625 8308.9443359375 L 784.4141845703125 8308.892578125 L 784.3366088867188 8308.7939453125 L 784.2481689453125 8308.6875 L 784.2041625976562 8308.63671875 L 784.1840209960938 8308.615234375 C 784.143798828125 8308.5712890625 784.1021728515625 8308.525390625 784.0620727539062 8308.486328125 C 783.3411865234375 8307.765625 782.3841552734375 8307.369140625 781.3668212890625 8307.369140625 C 780.3500366210938 8307.369140625 779.3934326171875 8307.765625 778.6731567382812 8308.484375 C 778.637939453125 8308.51953125 778.6027221679688 8308.5576171875 778.5686645507812 8308.5947265625 L 778.5308837890625 8308.6357421875 L 778.4666137695312 8308.7119140625 L 778.396484375 8308.794921875 L 778.3225708007812 8308.888671875 L 778.280517578125 8308.9462890625 L 778.1964111328125 8309.0654296875 Z M 743.0264892578125 8309.814453125 C 742.493408203125 8311.20703125 742.8261108398438 8312.8125 743.888427734375 8313.875 C 744.6075439453125 8314.59375 745.5643920898438 8314.990234375 746.5825805664062 8314.990234375 C 747.6004638671875 8314.990234375 748.5574340820312 8314.59375 749.2772216796875 8313.875 C 750.5457763671875 8312.6044921875 750.7537231445312 8310.5947265625 749.771484375 8309.0947265625 L 749.7557373046875 8309.0703125 L 749.7489624023438 8309.0595703125 L 749.6664428710938 8308.9423828125 L 749.6253662109375 8308.88671875 L 749.5511474609375 8308.79296875 L 749.4671020507812 8308.69140625 L 749.4198608398438 8308.6376953125 L 749.3972778320312 8308.6123046875 C 749.357666015625 8308.5693359375 749.3167114257812 8308.5244140625 749.2774658203125 8308.4853515625 C 749.2299194335938 8308.4384765625 749.1836547851562 8308.39453125 749.1380004882812 8308.353515625 L 749.11865234375 8308.3369140625 L 749.080078125 8308.3037109375 L 749.07958984375 8308.302734375 L 749.0032348632812 8308.2373046875 L 749.0029907226562 8308.2373046875 L 748.9743041992188 8308.21484375 C 748.3009643554688 8307.671875 747.4515380859375 8307.3720703125 746.5825805664062 8307.3720703125 C 745.714111328125 8307.3720703125 744.8604736328125 8307.673828125 744.1785278320312 8308.22265625 L 744.05517578125 8308.330078125 L 744.0272827148438 8308.353515625 L 744.0228271484375 8308.357421875 L 744.0221557617188 8308.3583984375 L 743.9134521484375 8308.462890625 L 743.8748779296875 8308.5009765625 C 743.8391723632812 8308.537109375 743.8017578125 8308.576171875 743.7637329101562 8308.6162109375 L 743.7474365234375 8308.6328125 L 743.7024536132812 8308.6875 L 743.6167602539062 8308.7880859375 L 743.5604858398438 8308.861328125 L 743.4931030273438 8308.9501953125 L 743.440185546875 8309.025390625 L 743.3831787109375 8309.111328125 L 743.32421875 8309.205078125 L 743.2833251953125 8309.2744140625 L 743.245361328125 8309.3427734375 L 743.2628784179688 8309.3505859375 L 743.5043334960938 8309.4638671875 L 743.383056640625 8309.6845703125 C 743.3809814453125 8309.689453125 743.37890625 8309.6943359375 743.3768310546875 8309.69921875 L 743.2794189453125 8309.9091796875 L 743.0623779296875 8309.828125 L 743.0264892578125 8309.814453125 Z M 786.08935546875 8311.333984375 L 786.3853149414062 8311.333984375 L 787.630859375 8311.333984375 C 788.510986328125 8311.333984375 789.2274780273438 8310.6171875 789.22802734375 8309.736328125 L 789.22802734375 8305.8125 C 789.22802734375 8305.2041015625 789.0623779296875 8304.6083984375 788.7490234375 8304.08984375 L 788.509765625 8303.6923828125 C 787.7838745117188 8302.4892578125 786.5770874023438 8301.640625 785.198974609375 8301.365234375 L 778.294189453125 8299.994140625 C 776.6954345703125 8299.67578125 775.2036743164062 8298.7568359375 774.2206420898438 8298.0927734375 L 769.2160034179688 8294.7119140625 C 767.512451171875 8293.5615234375 765.5256958007812 8292.953125 763.4705200195312 8292.953125 L 754.2855834960938 8292.953125 C 751.551513671875 8292.953125 748.9788818359375 8294.015625 747.0415649414062 8295.9443359375 C 745.5050659179688 8297.4755859375 743.5711669921875 8298.5205078125 741.4490356445312 8298.9658203125 L 740.3624877929688 8299.193359375 C 739.3045043945312 8299.4140625 738.5367431640625 8300.359375 738.5367431640625 8301.44140625 L 738.5367431640625 8308.767578125 C 738.5367431640625 8309.1640625 738.7710571289062 8309.5244140625 739.1336669921875 8309.6865234375 L 741.491455078125 8310.734375 L 741.8591918945312 8310.8984375 L 741.9163818359375 8310.5 C 741.9928588867188 8309.970703125 742.1588745117188 8309.4619140625 742.4098510742188 8308.984375 C 742.4448852539062 8308.9189453125 742.4796752929688 8308.857421875 742.5225219726562 8308.7822265625 C 742.6043090820312 8308.6455078125 742.687255859375 8308.51953125 742.7709350585938 8308.40625 L 742.7952270507812 8308.3720703125 L 742.8107299804688 8308.349609375 L 742.8174438476562 8308.34375 L 742.9051513671875 8308.2314453125 L 742.945556640625 8308.1796875 L 742.9492797851562 8308.1748046875 L 742.9532470703125 8308.1708984375 L 743.046875 8308.0634765625 L 743.09130859375 8308.01171875 L 743.0931396484375 8308.009765625 L 743.0950317382812 8308.0078125 C 743.1475219726562 8307.94921875 743.1998291015625 8307.89453125 743.2506103515625 8307.8447265625 C 744.138916015625 8306.95703125 745.3228759765625 8306.466796875 746.5825805664062 8306.466796875 C 747.510009765625 8306.466796875 748.4072875976562 8306.7353515625 749.177490234375 8307.2421875 C 749.4437255859375 8307.4189453125 749.691650390625 8307.62109375 749.9149169921875 8307.8447265625 C 749.9601440429688 8307.888671875 750.0023193359375 8307.93359375 750.0430908203125 8307.9775390625 L 750.0808715820312 8308.0185546875 L 750.0858154296875 8308.0234375 L 750.0904541015625 8308.029296875 L 750.1029663085938 8308.0439453125 L 750.1041259765625 8308.0458984375 C 750.1592407226562 8308.107421875 750.2017822265625 8308.158203125 750.2479248046875 8308.21484375 C 750.9061279296875 8309.0244140625 751.2689819335938 8310 751.297119140625 8311.037109375 L 751.3049926757812 8311.333984375 L 751.6014404296875 8311.333984375 L 776.348388671875 8311.333984375 L 776.6445922851562 8311.333984375 L 776.6528930664062 8311.037109375 C 776.680908203125 8310.0009765625 777.0465698242188 8309.0205078125 777.7103271484375 8308.203125 L 777.7123413085938 8308.2001953125 L 777.7144775390625 8308.1982421875 L 777.8331909179688 8308.0595703125 L 777.8358154296875 8308.0556640625 L 777.8385620117188 8308.052734375 L 777.8706665039062 8308.017578125 L 778.0082397460938 8307.8720703125 L 778.03076171875 8307.8486328125 C 778.697998046875 8307.181640625 779.530029296875 8306.736328125 780.4392700195312 8306.556640625 C 780.7405395507812 8306.4951171875 781.0531616210938 8306.4638671875 781.3668212890625 8306.4638671875 C 781.7564697265625 8306.4638671875 782.14453125 8306.51171875 782.520263671875 8306.607421875 C 783.3395385742188 8306.8115234375 784.0934448242188 8307.2392578125 784.6994018554688 8307.8447265625 L 784.7044067382812 8307.849609375 L 784.7091064453125 8307.8544921875 L 784.7140502929688 8307.8603515625 L 784.7166137695312 8307.8623046875 L 784.7275390625 8307.8740234375 L 784.7495727539062 8307.896484375 C 784.7879638671875 8307.9365234375 784.8267211914062 8307.9775390625 784.869384765625 8308.0234375 L 784.8731079101562 8308.02734375 L 784.8766479492188 8308.03125 L 784.887939453125 8308.044921875 L 784.8975219726562 8308.0556640625 L 784.921142578125 8308.08203125 C 784.9542236328125 8308.1201171875 784.9917602539062 8308.1640625 785.0357666015625 8308.21875 C 785.6913452148438 8309.025390625 786.05322265625 8310 786.0814208984375 8311.037109375 L 786.08935546875 8311.333984375 Z M 780.74267578125 8299.5576171875 L 780.9871826171875 8299.6064453125 L 781.9090576171875 8299.7900390625 L 782.2726440429688 8299.86328125 L 782.2726440429688 8299.4921875 L 782.2726440429688 8289.892578125 L 782.2726440429688 8289.587890625 L 781.9683227539062 8289.587890625 L 781.0469970703125 8289.587890625 L 780.74267578125 8289.587890625 L 780.74267578125 8289.892578125 L 780.74267578125 8299.3076171875 L 780.74267578125 8299.5576171875 Z" stroke="none" fill="#003241"/>
      </g>
      <g id="Path_284" data-name="Path 284" transform="translate(-743.476 -8302.085)" fill="#003241" stroke-miterlimit="10">
        <path d="M 752.1763305664062 8343.197265625 C 751.6774291992188 8343.197265625 751.2083740234375 8343.0029296875 750.8555297851562 8342.6484375 C 750.5032348632812 8342.296875 750.30908203125 8341.8291015625 750.30908203125 8341.330078125 C 750.30908203125 8340.8310546875 750.503173828125 8340.361328125 750.8555908203125 8340.0087890625 C 751.2098999023438 8339.6552734375 751.6788940429688 8339.4609375 752.1763305664062 8339.4609375 C 752.6736450195312 8339.4609375 753.1427612304688 8339.6552734375 753.497314453125 8340.0078125 C 753.8493041992188 8340.3603515625 754.0430908203125 8340.8291015625 754.0430908203125 8341.330078125 C 754.0430908203125 8341.8291015625 753.8493041992188 8342.296875 753.4974975585938 8342.6494140625 C 753.1448364257812 8343.0029296875 752.6755981445312 8343.197265625 752.1763305664062 8343.197265625 Z M 752.1763305664062 8340.1171875 C 751.8521728515625 8340.1171875 751.5474243164062 8340.2431640625 751.318359375 8340.4716796875 C 751.0892333984375 8340.69921875 750.963134765625 8341.00390625 750.963134765625 8341.330078125 C 750.963134765625 8341.65234375 751.0894165039062 8341.95703125 751.3187255859375 8342.1875 C 751.548095703125 8342.416015625 751.852783203125 8342.5419921875 752.1763305664062 8342.5419921875 C 752.5001831054688 8342.5419921875 752.80517578125 8342.416015625 753.0349731445312 8342.1865234375 C 753.5070190429688 8341.7138671875 753.5068359375 8340.943359375 753.0343017578125 8340.4716796875 C 752.8056640625 8340.2431640625 752.5009765625 8340.1171875 752.1763305664062 8340.1171875 Z" stroke="none"/>
        <path d="M 752.1763305664062 8339.5859375 C 751.7112426757812 8339.5859375 751.2733154296875 8339.7685546875 750.9440307617188 8340.0966796875 C 750.6153564453125 8340.42578125 750.43408203125 8340.86328125 750.43408203125 8341.330078125 C 750.43408203125 8341.7939453125 750.6153564453125 8342.232421875 750.9440307617188 8342.560546875 C 751.2733154296875 8342.890625 751.7112426757812 8343.072265625 752.1763305664062 8343.072265625 C 752.6419677734375 8343.072265625 753.0798950195312 8342.890625 753.4091186523438 8342.560546875 C 753.7374267578125 8342.232421875 753.9180908203125 8341.7939453125 753.9180908203125 8341.330078125 C 753.9180908203125 8340.86328125 753.7374267578125 8340.4248046875 753.4091186523438 8340.0966796875 C 753.0794067382812 8339.7685546875 752.6419677734375 8339.5859375 752.1763305664062 8339.5859375 M 752.1763305664062 8342.6669921875 C 751.81884765625 8342.6669921875 751.4828491210938 8342.52734375 751.2301025390625 8342.275390625 C 750.9774169921875 8342.021484375 750.838134765625 8341.6865234375 750.838134765625 8341.330078125 C 750.838134765625 8340.970703125 750.9774169921875 8340.6337890625 751.2301025390625 8340.3828125 C 751.4828491210938 8340.130859375 751.8193359375 8339.9921875 752.1763305664062 8339.9921875 C 752.533935546875 8339.9921875 752.870361328125 8340.130859375 753.1226806640625 8340.3828125 C 753.6442260742188 8340.904296875 753.6442260742188 8341.7529296875 753.1232299804688 8342.275390625 C 752.870361328125 8342.52734375 752.533935546875 8342.6669921875 752.1763305664062 8342.6669921875 M 752.1763305664062 8339.3359375 C 752.7069091796875 8339.3359375 753.2073364257812 8339.54296875 753.58544921875 8339.919921875 C 753.9613037109375 8340.294921875 754.1680908203125 8340.7958984375 754.1680908203125 8341.330078125 C 754.1680908203125 8341.8623046875 753.9613037109375 8342.3623046875 753.5858764648438 8342.7373046875 C 753.209716796875 8343.1142578125 752.7090454101562 8343.322265625 752.1763305664062 8343.322265625 C 751.6439819335938 8343.322265625 751.1434936523438 8343.1142578125 750.7670288085938 8342.7373046875 C 750.3912353515625 8342.3623046875 750.18408203125 8341.8623046875 750.18408203125 8341.330078125 C 750.18408203125 8340.796875 750.3911743164062 8340.296875 750.7671508789062 8339.919921875 C 751.145263671875 8339.54296875 751.6455688476562 8339.3359375 752.1763305664062 8339.3359375 Z M 752.1763305664062 8342.4169921875 C 752.4668579101562 8342.4169921875 752.740478515625 8342.3037109375 752.94677734375 8342.0986328125 C 753.3699340820312 8341.673828125 753.3698120117188 8340.9833984375 752.9459228515625 8340.5595703125 C 752.740966796875 8340.3544921875 752.4675903320312 8340.2421875 752.1763305664062 8340.2421875 C 751.8854370117188 8340.2421875 751.6121215820312 8340.35546875 751.4066162109375 8340.5595703125 C 751.2011108398438 8340.763671875 751.088134765625 8341.037109375 751.088134765625 8341.330078125 C 751.088134765625 8341.619140625 751.2014770507812 8341.892578125 751.4072875976562 8342.0986328125 C 751.6127319335938 8342.3037109375 751.8861083984375 8342.4169921875 752.1763305664062 8342.4169921875 Z" stroke="none" fill="#003241"/>
      </g>
      <g id="Path_285" data-name="Path 285" transform="translate(-771.441 -8302.085)" fill="#003241" stroke-miterlimit="10">
        <path d="M 814.9259033203125 8343.197265625 C 814.427001953125 8343.197265625 813.9579467773438 8343.0029296875 813.6051025390625 8342.6484375 C 812.8773803710938 8341.9228515625 812.8772583007812 8340.73828125 813.6051025390625 8340.0087890625 C 813.95947265625 8339.6552734375 814.428466796875 8339.4609375 814.9259033203125 8339.4609375 C 815.42333984375 8339.4609375 815.892333984375 8339.6552734375 816.2463989257812 8340.0078125 C 816.5989990234375 8340.3603515625 816.7931518554688 8340.830078125 816.7931518554688 8341.330078125 C 816.7931518554688 8341.8291015625 816.5989990234375 8342.2978515625 816.2463989257812 8342.6494140625 C 815.8938598632812 8343.0029296875 815.4248046875 8343.197265625 814.9259033203125 8343.197265625 Z M 814.9259033203125 8340.1171875 C 814.6016845703125 8340.1171875 814.2969970703125 8340.2431640625 814.0679321289062 8340.4716796875 C 813.5953369140625 8340.943359375 813.5953979492188 8341.7138671875 814.068115234375 8342.1875 C 814.297607421875 8342.416015625 814.602294921875 8342.5419921875 814.9259033203125 8342.5419921875 C 815.24951171875 8342.5419921875 815.55419921875 8342.416015625 815.783935546875 8342.1865234375 C 816.012939453125 8341.958984375 816.1390991210938 8341.654296875 816.1390991210938 8341.330078125 C 816.1390991210938 8341.00390625 816.0130004882812 8340.69921875 815.7841186523438 8340.4716796875 C 815.5548706054688 8340.2431640625 815.2501220703125 8340.1171875 814.9259033203125 8340.1171875 Z" stroke="none"/>
        <path d="M 814.9259033203125 8339.5859375 C 814.4608154296875 8339.5859375 814.0228881835938 8339.7685546875 813.693603515625 8340.0966796875 C 813.0145263671875 8340.77734375 813.0145263671875 8341.8828125 813.693603515625 8342.560546875 C 814.0228881835938 8342.890625 814.4602661132812 8343.072265625 814.9259033203125 8343.072265625 C 815.3915405273438 8343.072265625 815.8289184570312 8342.890625 816.158203125 8342.560546875 C 816.4874877929688 8342.232421875 816.6681518554688 8341.7939453125 816.6681518554688 8341.330078125 C 816.6681518554688 8340.86328125 816.4874877929688 8340.42578125 816.158203125 8340.0966796875 C 815.8289184570312 8339.7685546875 815.3915405273438 8339.5859375 814.9259033203125 8339.5859375 M 814.9259033203125 8342.6669921875 C 814.5684204101562 8342.6669921875 814.2323608398438 8342.52734375 813.9796752929688 8342.275390625 C 813.4580688476562 8341.7529296875 813.4580688476562 8340.904296875 813.9796752929688 8340.3828125 C 814.2323608398438 8340.130859375 814.5689697265625 8339.9921875 814.9259033203125 8339.9921875 C 815.283447265625 8339.9921875 815.6194458007812 8340.130859375 815.8721923828125 8340.3828125 C 816.1249389648438 8340.6337890625 816.2640991210938 8340.970703125 816.2640991210938 8341.330078125 C 816.2640991210938 8341.6865234375 816.1249389648438 8342.0234375 815.8721923828125 8342.275390625 C 815.6194458007812 8342.52734375 815.2828369140625 8342.6669921875 814.9259033203125 8342.6669921875 M 814.9259033203125 8339.3359375 C 815.4566650390625 8339.3359375 815.9569702148438 8339.54296875 816.3346557617188 8339.919921875 C 816.7109985351562 8340.2958984375 816.9181518554688 8340.796875 816.9181518554688 8341.330078125 C 816.9181518554688 8341.86328125 816.7109375 8342.3623046875 816.3346557617188 8342.7373046875 C 815.958740234375 8343.1142578125 815.458251953125 8343.322265625 814.9259033203125 8343.322265625 C 814.3935546875 8343.322265625 813.89306640625 8343.1142578125 813.5166015625 8342.7373046875 C 812.7402954101562 8341.9619140625 812.7401123046875 8340.6982421875 813.5166015625 8339.919921875 C 813.8948364257812 8339.54296875 814.3951416015625 8339.3359375 814.9259033203125 8339.3359375 Z M 814.9259033203125 8342.4169921875 C 815.2161865234375 8342.4169921875 815.4895629882812 8342.3037109375 815.6956787109375 8342.0986328125 C 815.9010009765625 8341.8935546875 816.0140991210938 8341.62109375 816.0140991210938 8341.330078125 C 816.0140991210938 8341.037109375 815.901123046875 8340.763671875 815.696044921875 8340.560546875 C 815.4901733398438 8340.35546875 815.216796875 8340.2421875 814.9259033203125 8340.2421875 C 814.635009765625 8340.2421875 814.3616333007812 8340.35546875 814.1561889648438 8340.5595703125 C 813.732421875 8340.9833984375 813.7324829101562 8341.673828125 814.1566162109375 8342.0986328125 C 814.3622436523438 8342.3037109375 814.6356201171875 8342.4169921875 814.9259033203125 8342.4169921875 Z" stroke="none" fill="#003241"/>
      </g>
    </g>
  </g>
</svg>
