<svg xmlns="http://www.w3.org/2000/svg" width="20.399" height="15.332" viewBox="0 0 20.399 15.332"><defs><style>.a{fill:#697684;stroke:#697684;stroke-width:0.5px;}</style></defs><g transform="translate(-1273.417 -4497.905)"><path class="a" d="M1293.566,4498.4a.241.241,0,0,0-.24-.24h-19.419a.241.241,0,0,0-.24.24v12.413a2.181,2.181,0,0,0,2.179,2.179h15.542a2.181,2.181,0,0,0,2.179-2.179Zm-.48.471v11.941a1.7,1.7,0,0,1-1.7,1.7h-15.542a1.7,1.7,0,0,1-1.7-1.7v-11.872l9.576,8.973a.243.243,0,0,0,.152.054.24.24,0,0,0,.152-.054l9.4-9.286a.24.24,0,1,0-.3-.372l-9.248,9.162-9.336-8.777h18.547Z"/></g></svg>