<?xml version="1.0" encoding="utf-8"?>
<!-- Generator: Adobe Illustrator 23.1.0, SVG Export Plug-In . SVG Version: 6.00 Build 0)  -->
<svg version="1.1" id="Layer_1" xmlns="http://www.w3.org/2000/svg" xmlns:xlink="http://www.w3.org/1999/xlink" x="0px" y="0px"
	 viewBox="0 0 56 56" style="enable-background:new 0 0 56 56;" xml:space="preserve">
<style type="text/css">
	.st0{fill:#003241;}
</style>
<g>
	<g>
		<path class="st0" d="M22.4,8.1H9c-0.2,0-0.4,0.2-0.4,0.4v9c0,0.2-0.1,0.3-0.2,0.4l-4.2,2.9C4.1,20.9,4,21,4,21.1v30.8
			c0,0.2,0.2,0.4,0.4,0.4h47.2c0.2,0,0.4-0.2,0.4-0.4V21.1c0-0.1-0.1-0.2-0.2-0.3l-4.2-2.9c-0.1-0.1-0.2-0.2-0.2-0.4v-9
			c0-0.2-0.2-0.4-0.4-0.4H33.6c-0.1,0-0.2,0-0.3-0.1l-5.1-3.5c-0.1-0.1-0.3-0.1-0.4,0L22.7,8C22.6,8.1,22.5,8.1,22.4,8.1z M8.6,18.8
			v5.5l-0.1-0.1l-3.7-2.8L8.6,18.8z M4.9,22.6L4.9,22.6l16,12.3l0,0l-16,16C4.9,50.9,4.9,22.6,4.9,22.6z M5.5,51.4L5.5,51.4
			l16.1-16.1l0,0l6.1,4.7c0.1,0.1,0.3,0.1,0.5,0l6.2-4.8l0,0l16.1,16.1L5.5,51.4L5.5,51.4z M47.4,18.8L47.4,18.8l3.8,2.6h-0.1
			l-3.7,2.9V18.8z M51.1,22.6v28.3L51,50.8L35.1,34.9L51.1,22.6z M46.6,8.9v16L46.5,25L28,39.2l0,0L9.4,25V8.9H46.6z M24.2,8L28,5.4
			l3.9,2.7h-7.8L24.2,8z"/>
		<path class="st0" d="M27.2,14.9H16.6c-0.2,0-0.4,0.2-0.4,0.4s0.2,0.4,0.4,0.4h10.6c0.2,0,0.4-0.2,0.4-0.4
			C27.7,15.1,27.5,14.9,27.2,14.9z"/>
		<path class="st0" d="M39.4,19.5H16.6c-0.2,0-0.4,0.2-0.4,0.4c0,0.2,0.2,0.4,0.4,0.4h22.8c0.2,0,0.4-0.2,0.4-0.4
			C39.8,19.7,39.6,19.5,39.4,19.5z"/>
		<path class="st0" d="M39.4,24.1H16.6c-0.2,0-0.4,0.2-0.4,0.4c0,0.2,0.2,0.4,0.4,0.4h22.8c0.2,0,0.4-0.2,0.4-0.4
			C39.8,24.3,39.6,24.1,39.4,24.1z"/>
	</g>
</g>
</svg>
