<svg id="Group_8483" data-name="Group 8483" xmlns="http://www.w3.org/2000/svg" width="18" height="18" viewBox="0 0 18 18">
  <path id="Path_179" data-name="Path 179" d="M13667.253,8580.592c-.338.008-.7.014-1.073.014a24.447,24.447,0,0,1-4.642-.354v-1.614a.281.281,0,0,0-.562,0v1.485c-.906-.24-1.266-.519-1.266-.7,0-2.524,1.693-3.5,4.239-4.193l.046-.012a1.823,1.823,0,0,0,.882,1.121,2.72,2.72,0,0,0,2.6,0,1.82,1.82,0,0,0,.88-1.121l.046.012c.079.021.157.043.234.064a5.392,5.392,0,0,1,.813-.635c-.277-.09-.559-.173-.839-.248l-.026-.006c-.462-.1-.593-.187-.665-.42a5.06,5.06,0,0,0,1.94-3.654c0-2.9-1.379-4.63-3.685-4.63s-3.687,1.731-3.687,4.63a5.063,5.063,0,0,0,1.94,3.654c-.072.232-.2.324-.665.42l-.026.006c-2.411.65-4.874,1.758-4.874,5.012,0,.926,1.268,2.029,7.313,2.029.506,0,.974-.009,1.414-.023A5.3,5.3,0,0,1,13667.253,8580.592Zm-3.917-10.264c0-1.139.278-3.786,2.844-3.786s2.841,2.647,2.841,3.786a4.313,4.313,0,0,1-1.82,3.154.424.424,0,0,0-.158.412,1.364,1.364,0,0,0,.783,1.15,1.269,1.269,0,0,1-.625.8,2.169,2.169,0,0,1-2.043,0,1.277,1.277,0,0,1-.626-.8,1.373,1.373,0,0,0,.785-1.15.428.428,0,0,0-.159-.412A4.317,4.317,0,0,1,13663.336,8570.328Z" transform="translate(-13658.867 -8565.698)" fill="#697684"/>
  <g id="Group_1130" data-name="Group 1130" transform="translate(8.719 8.719)">
    <g id="Group_1127" data-name="Group 1127" transform="translate(0 0)">
      <path id="Path_180" data-name="Path 180" d="M13695.056,8606.528a4.641,4.641,0,1,1,4.641-4.641A4.647,4.647,0,0,1,13695.056,8606.528Zm0-8.437a3.8,3.8,0,1,0,3.8,3.8A3.8,3.8,0,0,0,13695.056,8598.091Z" transform="translate(-13690.415 -8597.247)" fill="#697684"/>
    </g>
    <g id="Group_1128" data-name="Group 1128" transform="translate(4.219 2.109)">
      <path id="Path_181" data-name="Path 181" d="M13706.1,8609.941a.422.422,0,0,1-.422-.421v-4.22a.422.422,0,0,1,.845,0v4.22A.422.422,0,0,1,13706.1,8609.941Z" transform="translate(-13705.68 -8604.88)" fill="#697684"/>
    </g>
    <g id="Group_1129" data-name="Group 1129" transform="translate(2.109 4.219)">
      <path id="Path_182" data-name="Path 182" d="M13702.689,8613.357h-4.22a.422.422,0,0,1,0-.844h4.22a.422.422,0,0,1,0,.844Z" transform="translate(-13698.049 -8612.514)" fill="#697684"/>
    </g>
  </g>
</svg>
