<svg xmlns="http://www.w3.org/2000/svg" width="12.504" height="17.824" viewBox="0 0 12.504 17.824">
  <g id="Group_8481" data-name="Group 8481" transform="translate(0.203 0.2)">
    <g id="Group_847" data-name="Group 847">
      <path id="Path_43" data-name="Path 43" d="M1178.028,3761.119a2.067,2.067,0,1,0,2.066,2.066,2.069,2.069,0,0,0-2.066-2.066Zm0,3.543a1.477,1.477,0,1,1,1.477-1.477,1.478,1.478,0,0,1-1.477,1.477Zm0,0" transform="translate(-1171.921 -3757.25)" fill="#697684" stroke="#697684" stroke-width="0.4"/>
      <path id="Path_44" data-name="Path 44" d="M1169.4,3746.48a6.051,6.051,0,0,0-8.556,0,6.893,6.893,0,0,0-.568,8.5l4.847,7,4.838-6.99a6.893,6.893,0,0,0-.561-8.512Zm.049,8.144-4.326,6.25-4.336-6.26a6.227,6.227,0,0,1,.5-7.687,5.421,5.421,0,0,1,7.663,0,6.227,6.227,0,0,1,.5,7.7Zm0,0" transform="translate(-1159.07 -3744.708)" fill="#697684" stroke="#697684" stroke-width="0.4"/>
    </g>
  </g>
</svg>
