<svg id="Group_8478" data-name="Group 8478" xmlns="http://www.w3.org/2000/svg" width="18" height="18" viewBox="0 0 18 18">
  <g id="Group_1133" data-name="Group 1133">
    <g id="Group_1132" data-name="Group 1132">
      <path id="Path_184" data-name="Path 184" d="M2882.334,4096.165a9,9,0,1,0,2.636,6.364A8.94,8.94,0,0,0,2882.334,4096.165Zm-6.364,14.31a7.946,7.946,0,1,1,7.945-7.945A7.954,7.954,0,0,1,2875.97,4110.475Z" transform="translate(-2866.97 -4093.529)" fill="#00baff"/>
    </g>
  </g>
  <g id="Group_1135" data-name="Group 1135" transform="translate(6.213 3.389)">
    <g id="Group_1134" data-name="Group 1134" transform="translate(0 0)">
      <path id="Path_185" data-name="Path 185" d="M2892.424,4110.668h-1.129a1.167,1.167,0,1,1,0-2.333h2.259a.527.527,0,0,0,0-1.055h-1.167v-1.167a.527.527,0,0,0-1.055,0v1.167h-.037a2.221,2.221,0,1,0,0,4.443h1.129a1.167,1.167,0,0,1,0,2.335h-2.259a.527.527,0,0,0,0,1.055h1.167v1.167a.527.527,0,0,0,1.055,0v-1.167h.037a2.222,2.222,0,0,0,0-4.444Z" transform="translate(-2889.072 -4105.585)" fill="#00baff"/>
    </g>
  </g>
</svg>
