<svg xmlns="http://www.w3.org/2000/svg" width="63.78" height="46.88" viewBox="0 0 63.78 46.88">
  <g id="Group_1426" data-name="Group 1426" transform="translate(0.1 0.099)">
    <path id="Path_289" data-name="Path 289" d="M1360.016,8694.748a5.074,5.074,0,0,0-5.068-5.068H1301.5a5.074,5.074,0,0,0-5.069,5.068v13.123a5.074,5.074,0,0,0,5.069,5.067h53.443a5.074,5.074,0,0,0,5.068-5.067Zm-.594,12.872a5.518,5.518,0,0,1-.036.81l-.072.576H1321a.3.3,0,1,0,0,.593h38.29l-.859,1.069a4.454,4.454,0,0,1-3.489,1.677H1301.5a4.452,4.452,0,0,1-3.489-1.677l-.859-1.069h20.03a.3.3,0,1,0,0-.593h-20.048l-.072-.576a5.55,5.55,0,0,1-.035-.8c0-.126,0-.273,0-.464l-.007-.664h38.237a.3.3,0,0,0,0-.6h-38.23v-11.154a4.479,4.479,0,0,1,4.474-4.475h53.443a4.479,4.479,0,0,1,4.474,4.475V8705.9h-20.343a.3.3,0,0,0,0,.6h20.35l-.007.664C1359.42,8707.349,1359.421,8707.5,1359.422,8707.62Z" transform="translate(-1296.436 -8689.68)" fill="#003241" stroke="#003241" stroke-miterlimit="10" stroke-width="0.2"/>
    <circle id="Ellipse_28" data-name="Ellipse 28" cx="0.655" cy="0.655" r="0.655" transform="translate(53.814 11.691)" fill="#003241" stroke="#003241" stroke-miterlimit="10" stroke-width="0.2"/>
    <circle id="Ellipse_29" data-name="Ellipse 29" cx="0.655" cy="0.655" r="0.655" transform="translate(58.871 11.691)" fill="#003241" stroke="#003241" stroke-miterlimit="10" stroke-width="0.2"/>
    <path id="Path_290" data-name="Path 290" d="M1380.834,8749.249v-4.923l1,.6c1.24.749,2,1.234,2.5,1.555.747.477.763.477.851.477a.3.3,0,0,0,.158-.549l-3.345-2.078-.9-.559.9-.558,3.344-2.078a.3.3,0,0,0,.133-.186.3.3,0,0,0-.291-.364.284.284,0,0,0-.155.044l-3.191,1.983-1,.624V8738.3a.3.3,0,1,0-.594,0v4.939l-1.005-.624-3.191-1.983a.287.287,0,0,0-.156-.044.3.3,0,0,0-.29.364.3.3,0,0,0,.132.186l3.345,2.078.9.558-.9.559-3.345,2.078a.3.3,0,0,0,.158.549c.089,0,.1,0,.855-.479.5-.321,1.262-.8,2.5-1.553l1-.6v4.923a.3.3,0,0,0,.594,0Z" transform="translate(-1326.03 -8707.746)" fill="#003241" stroke="#003241" stroke-miterlimit="10" stroke-width="0.2"/>
    <path id="Path_291" data-name="Path 291" d="M1327.224,8741.928c.746.477.762.477.851.477a.3.3,0,0,0,.158-.55l-3.344-2.077-.9-.559.9-.559,3.344-2.078a.3.3,0,0,0-.158-.549.277.277,0,0,0-.155.045l-3.191,1.982-1,.623v-4.938a.3.3,0,1,0-.594,0v4.938l-1-.623-3.191-1.982a.28.28,0,0,0-.156-.045.3.3,0,0,0-.253.139.3.3,0,0,0,.1.41l3.345,2.078.9.559-.9.559-3.345,2.077a.3.3,0,0,0,.158.55.292.292,0,0,0,.155-.045l3.191-1.982,1-.625v4.94a.3.3,0,0,0,.594,0v-4.922l1,.6C1325.961,8741.121,1326.721,8741.606,1327.224,8741.928Z" transform="translate(-1304.678 -8706.043)" fill="#003241" stroke="#003241" stroke-miterlimit="10" stroke-width="0.2"/>
    <path id="Path_292" data-name="Path 292" d="M1348.75,8758.306a.286.286,0,0,0,.156.044.3.3,0,0,0,.253-.14.3.3,0,0,0-.1-.41l-1.513-.94-.9-.558.9-.558,1.513-.941a.3.3,0,0,0-.158-.549.281.281,0,0,0-.157.045l-1.359.844-1,.625v-2.783a.3.3,0,1,0-.594,0v2.783l-1.005-.625-1.359-.844a.28.28,0,0,0-.156-.045.3.3,0,0,0-.158.549l1.513.941.9.558-.9.558-1.513.94a.3.3,0,0,0,.158.55.286.286,0,0,0,.156-.044l1.359-.845,1.005-.624v2.782a.3.3,0,0,0,.594,0v-2.783l1,.625Z" transform="translate(-1313.835 -8713.235)" fill="#003241" stroke="#003241" stroke-miterlimit="10" stroke-width="0.2"/>
    <path id="Path_293" data-name="Path 293" d="M1304.173,8740.807a2.282,2.282,0,1,0,2.281,2.281A2.284,2.284,0,0,0,1304.173,8740.807Zm0,3.969a1.687,1.687,0,1,1,1.687-1.687A1.69,1.69,0,0,1,1304.173,8744.775Z" transform="translate(-1298.476 -8708.795)" fill="#003241" stroke="#003241" stroke-miterlimit="10" stroke-width="0.2"/>
    <path id="Path_294" data-name="Path 294" d="M1359.012,8733.843a2.281,2.281,0,1,0,2.281,2.281A2.283,2.283,0,0,0,1359.012,8733.843Zm0,3.968a1.687,1.687,0,1,1,1.687-1.687A1.689,1.689,0,0,1,1359.012,8737.811Z" transform="translate(-1318.978 -8706.191)" fill="#003241" stroke="#003241" stroke-miterlimit="10" stroke-width="0.2"/>
    <path id="Path_295" data-name="Path 295" d="M1342.607,8698.833h5.706a.3.3,0,0,0,0-.6h-5.706a.3.3,0,0,0,0,.6Z" transform="translate(-1313.587 -8692.879)" fill="#003241" stroke="#003241" stroke-miterlimit="10" stroke-width="0.2"/>
  </g>
</svg>
