<svg xmlns="http://www.w3.org/2000/svg" width="55.406" height="45.143" viewBox="0 0 55.406 45.143">
  <path id="Path_311" data-name="Path 311" d="M1377.382,7895.528h54.676a.365.365,0,0,0,.365-.365v-3.114a.364.364,0,0,0-.365-.365h-1.228v-20.771h1.228a.365.365,0,1,0,0-.729H1416.99V7850.75a.365.365,0,0,0-.365-.364h-24a.365.365,0,0,0-.365.364v19.434h-14.878a.365.365,0,1,0,0,.729h1.253v20.771h-1.253a.365.365,0,0,0-.365.365v3.114A.365.365,0,0,0,1377.382,7895.528Zm49.507-24.615h3.211v20.771h-3.211Zm-4.842,0h4.113v20.771h-4.113Zm-5.046,0h4.316v20.771H1417Zm-24.011-19.8h23.271v19.068h-2.417v-16.271a.364.364,0,0,0-.365-.364h-7.492a.366.366,0,0,0-.365.364v16.271h-1.994v-16.271a.364.364,0,0,0-.365-.364h-7.492a.368.368,0,0,0-.365.364v16.271h-2.417Zm13.727,19.06h-.365v-15.9h6.762v15.9Zm4.915.737v20.771h-4.114v-20.771Zm-15.13-.737h-.365v-15.9h6.762v15.9Zm5.444.737v20.771h-4.113v-20.771Zm.73,0h4.113v20.771h-4.113Zm9.686,0h3.9v20.771h-3.9Zm-19.372,0h4.113v20.771h-4.113Zm-4.842,0h4.113v20.771h-4.113Zm-4.843,0h4.113v20.771H1383.3Zm-3.94,0h3.211v20.771h-3.211Zm-1.618,21.5h53.947v2.384h-53.947Z" transform="translate(-1377.018 -7850.385)" fill="#003241"/>
</svg>
