<svg xmlns="http://www.w3.org/2000/svg" width="55.407" height="51.669" viewBox="0 0 55.407 51.669">
  <g id="Group_1431" data-name="Group 1431" transform="translate(0.15 0.15)">
    <g id="Path_301" data-name="Path 301" transform="translate(-1757.314 -8275.057)" fill="#003241" stroke-miterlimit="10">
      <path d="M 1800.777099609375 8326.4912109375 L 1800.721923828125 8326.482421875 C 1800.593017578125 8326.4599609375 1800.497436523438 8326.373046875 1800.411865234375 8326.201171875 L 1798.817626953125 8323.013671875 L 1798.679443359375 8322.7373046875 L 1798.369384765625 8322.7373046875 L 1772.349731445312 8322.7373046875 L 1772.040283203125 8322.7373046875 L 1771.901245117188 8323.013671875 L 1770.278930664062 8326.2578125 L 1770.276000976562 8326.263671875 L 1770.272338867188 8326.2685546875 C 1770.163940429688 8326.4169921875 1770.03076171875 8326.4892578125 1769.865234375 8326.4892578125 L 1769.863525390625 8326.4892578125 L 1769.86181640625 8326.4892578125 L 1769.818725585938 8326.4873046875 L 1769.791625976562 8326.4853515625 L 1769.772827148438 8326.46875 L 1769.675415039062 8326.4287109375 C 1769.592041015625 8326.3955078125 1769.52978515625 8326.3310546875 1769.500732421875 8326.24609375 C 1769.468017578125 8326.146484375 1769.48388671875 8326.0361328125 1769.545043945312 8325.93359375 L 1769.554077148438 8325.9169921875 L 1769.563598632812 8325.8994140625 L 1770.7822265625 8323.462890625 L 1771.144409179688 8322.7373046875 L 1770.333740234375 8322.7373046875 L 1769.584106445312 8322.7373046875 C 1766.813232421875 8322.7373046875 1764.391235351562 8320.849609375 1763.694091796875 8318.146484375 L 1761.163330078125 8308.11328125 L 1761.068359375 8307.7353515625 L 1760.677612304688 8307.7353515625 L 1759.55126953125 8307.7353515625 C 1758.233154296875 8307.7353515625 1757.239135742188 8306.7412109375 1757.239135742188 8305.4228515625 C 1757.239135742188 8304.10546875 1758.233154296875 8303.111328125 1759.55126953125 8303.111328125 L 1759.641845703125 8303.111328125 L 1760.05419921875 8303.111328125 L 1760.132934570312 8302.7060546875 C 1760.518920898438 8300.7373046875 1762.20751953125 8299.3623046875 1764.239135742188 8299.3623046875 C 1764.908203125 8299.3623046875 1765.652954101562 8299.564453125 1766.452880859375 8299.9638671875 L 1766.901489257812 8300.1884765625 L 1767.125244140625 8299.7412109375 C 1767.810180664062 8298.37109375 1769.253540039062 8297.4853515625 1770.802490234375 8297.4853515625 C 1772.06298828125 8297.4853515625 1773.25830078125 8298.087890625 1774.168212890625 8299.1806640625 L 1774.318725585938 8299.3623046875 L 1774.553100585938 8299.3623046875 C 1776.584838867188 8299.3623046875 1778.2734375 8300.7373046875 1778.659301757812 8302.7060546875 L 1778.738159179688 8303.111328125 L 1779.151123046875 8303.111328125 L 1807.37109375 8303.111328125 L 1807.872314453125 8303.111328125 L 1807.872314453125 8302.6103515625 L 1807.872314453125 8282.919921875 C 1807.872314453125 8278.9580078125 1804.769165039062 8275.8544921875 1800.807739257812 8275.8544921875 C 1796.7451171875 8275.8544921875 1794.990600585938 8279.18359375 1794.72265625 8282.0341796875 L 1794.680419921875 8282.4814453125 L 1795.120727539062 8282.572265625 C 1797.06982421875 8282.97265625 1798.43115234375 8284.658203125 1798.43115234375 8286.669921875 C 1798.43115234375 8286.955078125 1798.280151367188 8287.1064453125 1797.994384765625 8287.1064453125 L 1790.493041992188 8287.1064453125 C 1790.207763671875 8287.1064453125 1790.057006835938 8286.955078125 1790.057006835938 8286.669921875 C 1790.057006835938 8284.625 1791.444580078125 8282.9345703125 1793.431518554688 8282.5595703125 L 1793.809814453125 8282.4873046875 L 1793.838500976562 8282.103515625 C 1794.153686523438 8277.84375 1796.954467773438 8274.9814453125 1800.807739257812 8274.9814453125 C 1805.184448242188 8274.9814453125 1808.7451171875 8278.54296875 1808.7451171875 8282.919921875 L 1808.7451171875 8302.6103515625 L 1808.7451171875 8303.111328125 L 1809.246337890625 8303.111328125 L 1810.18359375 8303.111328125 C 1811.501831054688 8303.111328125 1812.495849609375 8304.10546875 1812.495849609375 8305.4228515625 C 1812.495849609375 8306.7412109375 1811.501831054688 8307.7353515625 1810.18359375 8307.7353515625 L 1809.081298828125 8307.7353515625 L 1808.690063476562 8307.7353515625 L 1808.595458984375 8308.11328125 L 1806.043212890625 8318.2333984375 C 1805.361206054688 8320.7890625 1803.026245117188 8322.638671875 1800.364868164062 8322.732421875 L 1799.58642578125 8322.759765625 L 1799.9345703125 8323.45703125 L 1801.096801757812 8325.78125 L 1801.098999023438 8325.78515625 L 1801.1005859375 8325.7900390625 C 1801.1845703125 8326.029296875 1801.07470703125 8326.29296875 1800.95947265625 8326.353515625 L 1800.806518554688 8326.4326171875 L 1800.801879882812 8326.44140625 L 1800.777099609375 8326.4912109375 Z M 1762.000244140625 8307.7353515625 L 1762.159912109375 8308.359375 L 1764.599975585938 8317.9326171875 C 1765.230590820312 8320.2470703125 1767.31884765625 8321.8642578125 1769.677734375 8321.8642578125 L 1800.24462890625 8321.8642578125 C 1802.603515625 8321.8642578125 1804.69384765625 8320.2392578125 1805.328002929688 8317.9130859375 L 1807.57763671875 8308.3505859375 L 1807.72265625 8307.7353515625 L 1807.08984375 8307.7353515625 L 1762.645141601562 8307.7353515625 L 1762.000244140625 8307.7353515625 Z M 1759.55126953125 8303.9853515625 C 1758.717407226562 8303.9853515625 1758.112060546875 8304.58984375 1758.112060546875 8305.4228515625 C 1758.112060546875 8306.2568359375 1758.717407226562 8306.8623046875 1759.55126953125 8306.8623046875 L 1761.426635742188 8306.8623046875 L 1808.308227539062 8306.8623046875 L 1810.18359375 8306.8623046875 C 1811.017578125 8306.8623046875 1811.622924804688 8306.2568359375 1811.622924804688 8305.4228515625 C 1811.622924804688 8304.58984375 1811.017578125 8303.9853515625 1810.18359375 8303.9853515625 L 1778.303833007812 8303.9853515625 L 1760.488647460938 8303.9853515625 L 1759.55126953125 8303.9853515625 Z M 1760.918212890625 8303.111328125 L 1761.614135742188 8303.111328125 L 1777.272705078125 8303.111328125 L 1777.9677734375 8303.111328125 L 1777.747924804688 8302.451171875 C 1777.299438476562 8301.1044921875 1776.082153320312 8300.234375 1774.646728515625 8300.234375 L 1774.36572265625 8300.234375 L 1774.303833007812 8300.234375 L 1774.243408203125 8300.2490234375 L 1774.23828125 8300.25 L 1774.233154296875 8300.25 L 1774.173217773438 8300.255859375 L 1774.169555664062 8300.2568359375 L 1774.165893554688 8300.2568359375 C 1774.007690429688 8300.2568359375 1773.843017578125 8300.1640625 1773.782958984375 8300.0419921875 C 1773.2568359375 8298.9892578125 1772.177612304688 8298.3603515625 1770.896362304688 8298.3603515625 C 1769.284790039062 8298.3603515625 1767.928466796875 8299.5166015625 1767.597900390625 8301.1728515625 C 1767.519775390625 8301.4853515625 1767.40576171875 8301.537109375 1767.305053710938 8301.5615234375 L 1767.30126953125 8301.5625 L 1767.297485351562 8301.5625 L 1767.158447265625 8301.5810546875 L 1767.153564453125 8301.58203125 L 1767.148559570312 8301.58203125 C 1767.036499023438 8301.58203125 1766.946166992188 8301.546875 1766.906860351562 8301.4892578125 L 1766.879028320312 8301.4462890625 L 1766.844604492188 8301.4130859375 C 1766.064575195312 8300.630859375 1765.188354492188 8300.234375 1764.239135742188 8300.234375 C 1762.803833007812 8300.234375 1761.586669921875 8301.1044921875 1761.13818359375 8302.451171875 L 1760.918212890625 8303.111328125 Z M 1790.923583984375 8286.2333984375 L 1791.618530273438 8286.2333984375 L 1796.96337890625 8286.2333984375 L 1797.658325195312 8286.2333984375 L 1797.4384765625 8285.5732421875 C 1796.989013671875 8284.2255859375 1795.771728515625 8283.3544921875 1794.337524414062 8283.3544921875 C 1792.891967773438 8283.3544921875 1791.578491210938 8284.2666015625 1791.143432617188 8285.5732421875 L 1790.923583984375 8286.2333984375 Z" stroke="none"/>
      <path d="M 1769.865234375 8326.4140625 C 1769.96435546875 8326.4140625 1770.091796875 8326.388671875 1770.211791992188 8326.224609375 L 1771.834228515625 8322.98046875 L 1771.994018554688 8322.662109375 L 1772.349731445312 8322.662109375 L 1798.369384765625 8322.662109375 L 1798.725830078125 8322.662109375 L 1798.884765625 8322.98046875 L 1800.47900390625 8326.16796875 C 1800.566528320312 8326.34375 1800.650268554688 8326.3935546875 1800.734741210938 8326.408203125 L 1800.750244140625 8326.376953125 L 1800.924560546875 8326.287109375 C 1801.006103515625 8326.244140625 1801.10205078125 8326.0205078125 1801.02978515625 8325.814453125 L 1799.867431640625 8323.490234375 L 1799.467163085938 8322.6884765625 L 1800.362182617188 8322.6572265625 C 1802.991088867188 8322.564453125 1805.297485351562 8320.736328125 1805.970458984375 8318.21484375 L 1808.522705078125 8308.0947265625 L 1808.631591796875 8307.66015625 L 1809.081298828125 8307.66015625 L 1810.18359375 8307.66015625 C 1811.458984375 8307.66015625 1812.4208984375 8306.6982421875 1812.4208984375 8305.4228515625 C 1812.4208984375 8304.1474609375 1811.458984375 8303.1865234375 1810.18359375 8303.1865234375 L 1809.246337890625 8303.1865234375 L 1808.670166015625 8303.1865234375 L 1808.670166015625 8302.6103515625 L 1808.670166015625 8282.919921875 C 1808.670166015625 8278.583984375 1805.14306640625 8275.056640625 1800.807739257812 8275.056640625 C 1796.996459960938 8275.056640625 1794.225341796875 8277.892578125 1793.913330078125 8282.109375 L 1793.88037109375 8282.5498046875 L 1793.445434570312 8282.6328125 C 1791.494018554688 8283.001953125 1790.131958007812 8284.662109375 1790.131958007812 8286.669921875 C 1790.131958007812 8286.9140625 1790.250366210938 8287.03125 1790.493041992188 8287.03125 L 1797.994384765625 8287.03125 C 1798.238037109375 8287.03125 1798.356201171875 8286.9140625 1798.356201171875 8286.669921875 C 1798.356201171875 8284.6923828125 1797.019409179688 8283.0390625 1795.105590820312 8282.6455078125 L 1794.599487304688 8282.541015625 L 1794.64794921875 8282.02734375 C 1794.9189453125 8279.14453125 1796.694458007812 8275.779296875 1800.807739257812 8275.779296875 C 1804.811157226562 8275.779296875 1807.947265625 8278.916015625 1807.947265625 8282.919921875 L 1807.947265625 8302.6103515625 L 1807.947265625 8303.1865234375 L 1807.37109375 8303.1865234375 L 1779.151123046875 8303.1865234375 L 1778.676391601562 8303.1865234375 L 1778.585693359375 8302.720703125 C 1778.206298828125 8300.78515625 1776.54833984375 8299.4375 1774.553100585938 8299.4375 L 1774.283447265625 8299.4375 L 1774.110595703125 8299.228515625 C 1773.214721679688 8298.15234375 1772.039306640625 8297.560546875 1770.802490234375 8297.560546875 C 1769.281982421875 8297.560546875 1767.864624023438 8298.4296875 1767.1923828125 8299.7744140625 L 1766.93505859375 8300.2890625 L 1766.41943359375 8300.03125 C 1765.62890625 8299.63671875 1764.895263671875 8299.4375 1764.239135742188 8299.4375 C 1762.244873046875 8299.4375 1760.586059570312 8300.78515625 1760.20654296875 8302.720703125 L 1760.115966796875 8303.1865234375 L 1759.641845703125 8303.1865234375 L 1759.55126953125 8303.1865234375 C 1758.27587890625 8303.1865234375 1757.314086914062 8304.1474609375 1757.314086914062 8305.4228515625 C 1757.314086914062 8306.6982421875 1758.27587890625 8307.66015625 1759.55126953125 8307.66015625 L 1760.677612304688 8307.66015625 L 1761.126831054688 8307.66015625 L 1761.236083984375 8308.0947265625 L 1763.766723632812 8318.1279296875 C 1764.455078125 8320.796875 1766.847412109375 8322.662109375 1769.584106445312 8322.662109375 L 1770.333740234375 8322.662109375 L 1771.265625 8322.662109375 L 1770.849365234375 8323.49609375 L 1769.630126953125 8325.93359375 L 1769.619995117188 8325.953125 L 1769.609375 8325.97265625 C 1769.559448242188 8326.0556640625 1769.54638671875 8326.14453125 1769.571655273438 8326.2216796875 C 1769.587036132812 8326.2666015625 1769.622436523438 8326.3271484375 1769.703857421875 8326.359375 L 1769.813598632812 8326.404296875 L 1769.822143554688 8326.412109375 L 1769.865234375 8326.4140625 M 1761.903686523438 8307.66015625 L 1762.645141601562 8307.66015625 L 1807.08984375 8307.66015625 L 1807.8173828125 8307.66015625 L 1807.650634765625 8308.3681640625 L 1805.400390625 8317.9326171875 C 1804.755126953125 8320.2998046875 1802.637084960938 8321.939453125 1800.24462890625 8321.939453125 L 1769.677734375 8321.939453125 C 1767.285400390625 8321.939453125 1765.167236328125 8320.2998046875 1764.52734375 8317.951171875 L 1762.087280273438 8308.3779296875 L 1761.903686523438 8307.66015625 M 1759.55126953125 8303.91015625 L 1760.488647460938 8303.91015625 L 1778.303833007812 8303.91015625 L 1810.18359375 8303.91015625 C 1811.06103515625 8303.91015625 1811.697875976562 8304.546875 1811.697875976562 8305.4228515625 C 1811.697875976562 8306.298828125 1811.06103515625 8306.9375 1810.18359375 8306.9375 L 1808.308227539062 8306.9375 L 1761.426635742188 8306.9375 L 1759.55126953125 8306.9375 C 1758.673950195312 8306.9375 1758.037109375 8306.298828125 1758.037109375 8305.4228515625 C 1758.037109375 8304.546875 1758.673950195312 8303.91015625 1759.55126953125 8303.91015625 M 1778.07177734375 8303.1865234375 L 1777.272705078125 8303.1865234375 L 1761.614135742188 8303.1865234375 L 1760.814208984375 8303.1865234375 L 1761.067016601562 8302.427734375 C 1761.526489257812 8301.0478515625 1762.771850585938 8300.1591796875 1764.239135742188 8300.1591796875 C 1765.20654296875 8300.1591796875 1766.100708007812 8300.560546875 1766.896606445312 8301.359375 L 1766.937255859375 8301.3984375 L 1766.968872070312 8301.447265625 C 1766.993408203125 8301.4833984375 1767.064208984375 8301.5068359375 1767.148559570312 8301.5068359375 L 1767.28759765625 8301.48828125 C 1767.352905273438 8301.47265625 1767.452026367188 8301.447265625 1767.524291992188 8301.158203125 C 1767.859985351562 8299.4765625 1769.2490234375 8298.28515625 1770.896362304688 8298.28515625 C 1772.206176757812 8298.28515625 1773.31005859375 8298.927734375 1773.850219726562 8300.0087890625 C 1773.898681640625 8300.107421875 1774.037719726562 8300.181640625 1774.165893554688 8300.181640625 L 1774.225830078125 8300.17578125 L 1774.294921875 8300.1591796875 L 1774.36572265625 8300.1591796875 L 1774.646728515625 8300.1591796875 C 1776.1142578125 8300.1591796875 1777.359619140625 8301.0478515625 1777.819091796875 8302.427734375 L 1778.07177734375 8303.1865234375 M 1797.762329101562 8286.30859375 L 1796.96337890625 8286.30859375 L 1791.618530273438 8286.30859375 L 1790.819580078125 8286.30859375 L 1791.072265625 8285.5498046875 C 1791.51708984375 8284.2138671875 1792.860229492188 8283.279296875 1794.337524414062 8283.279296875 C 1795.804809570312 8283.279296875 1797.050170898438 8284.171875 1797.509643554688 8285.5498046875 L 1797.762329101562 8286.30859375 M 1800.8193359375 8326.5751953125 L 1800.709106445312 8326.5556640625 C 1800.556396484375 8326.529296875 1800.440673828125 8326.427734375 1800.3447265625 8326.234375 L 1798.750610351562 8323.0478515625 L 1798.633056640625 8322.8125 L 1798.369384765625 8322.8125 L 1772.349731445312 8322.8125 L 1772.086547851562 8322.8125 L 1771.96826171875 8323.0478515625 L 1770.345947265625 8326.2919921875 L 1770.34033203125 8326.302734375 L 1770.332885742188 8326.3134765625 C 1770.209350585938 8326.482421875 1770.056396484375 8326.564453125 1769.865234375 8326.564453125 L 1769.86181640625 8326.564453125 L 1769.8583984375 8326.5634765625 L 1769.815307617188 8326.5615234375 L 1769.760986328125 8326.5595703125 L 1769.732055664062 8326.533203125 L 1769.64697265625 8326.498046875 C 1769.543823242188 8326.45703125 1769.466064453125 8326.3759765625 1769.429809570312 8326.2705078125 C 1769.39013671875 8326.1494140625 1769.407958984375 8326.0185546875 1769.47900390625 8325.8984375 L 1769.488159179688 8325.8818359375 L 1769.496948242188 8325.8642578125 L 1770.715209960938 8323.4287109375 L 1771.023071289062 8322.8125 L 1770.333740234375 8322.8125 L 1769.584106445312 8322.8125 C 1766.779052734375 8322.8125 1764.3271484375 8320.9013671875 1763.621459960938 8318.1650390625 L 1761.090698242188 8308.1318359375 L 1761.009887695312 8307.810546875 L 1760.677612304688 8307.810546875 L 1759.55126953125 8307.810546875 C 1758.190307617188 8307.810546875 1757.1640625 8306.7841796875 1757.1640625 8305.4228515625 C 1757.1640625 8304.0625 1758.190307617188 8303.0361328125 1759.55126953125 8303.0361328125 L 1759.641845703125 8303.0361328125 L 1759.992309570312 8303.0361328125 L 1760.059326171875 8302.6923828125 C 1760.452392578125 8300.6875 1762.171142578125 8299.287109375 1764.239135742188 8299.287109375 C 1764.919921875 8299.287109375 1765.676025390625 8299.4921875 1766.486450195312 8299.8974609375 L 1766.867919921875 8300.087890625 L 1767.058227539062 8299.70703125 C 1767.755737304688 8298.3125 1769.225463867188 8297.41015625 1770.802490234375 8297.41015625 C 1772.085693359375 8297.41015625 1773.301513671875 8298.0224609375 1774.225830078125 8299.1328125 L 1774.35400390625 8299.287109375 L 1774.553100585938 8299.287109375 C 1776.621215820312 8299.287109375 1778.339965820312 8300.6875 1778.73291015625 8302.69140625 L 1778.800048828125 8303.0361328125 L 1779.151123046875 8303.0361328125 L 1807.37109375 8303.0361328125 L 1807.797241210938 8303.0361328125 L 1807.797241210938 8302.6103515625 L 1807.797241210938 8282.919921875 C 1807.797241210938 8279 1804.72705078125 8275.9296875 1800.807739257812 8275.9296875 C 1796.795532226562 8275.9296875 1795.062377929688 8279.2216796875 1794.797241210938 8282.041015625 L 1794.761474609375 8282.4208984375 L 1795.135864257812 8282.4990234375 C 1797.120239257812 8282.90625 1798.506225585938 8284.6220703125 1798.506225585938 8286.669921875 C 1798.506225585938 8286.9951171875 1798.319702148438 8287.181640625 1797.994384765625 8287.181640625 L 1790.493041992188 8287.181640625 C 1790.168212890625 8287.181640625 1789.98193359375 8286.9951171875 1789.98193359375 8286.669921875 C 1789.98193359375 8284.5888671875 1791.394775390625 8282.8681640625 1793.417602539062 8282.4853515625 L 1793.739379882812 8282.423828125 L 1793.763793945312 8282.0986328125 C 1794.08203125 8277.796875 1796.912841796875 8274.90625 1800.807739257812 8274.90625 C 1805.225830078125 8274.90625 1808.820190429688 8278.5009765625 1808.820190429688 8282.919921875 L 1808.820190429688 8302.6103515625 L 1808.820190429688 8303.0361328125 L 1809.246337890625 8303.0361328125 L 1810.18359375 8303.0361328125 C 1811.544555664062 8303.0361328125 1812.570922851562 8304.0625 1812.570922851562 8305.4228515625 C 1812.570922851562 8306.7841796875 1811.544555664062 8307.810546875 1810.18359375 8307.810546875 L 1809.081298828125 8307.810546875 L 1808.748657226562 8307.810546875 L 1808.668212890625 8308.130859375 L 1806.115966796875 8318.251953125 C 1805.425170898438 8320.83984375 1803.0615234375 8322.7119140625 1800.367431640625 8322.8076171875 L 1799.70556640625 8322.830078125 L 1800.001586914062 8323.4228515625 L 1801.163940429688 8325.7470703125 L 1801.168212890625 8325.755859375 L 1801.17138671875 8325.7646484375 C 1801.265014648438 8326.0322265625 1801.153198242188 8326.3359375 1800.994506835938 8326.419921875 L 1800.86279296875 8326.4873046875 L 1800.8193359375 8326.5751953125 Z M 1762.096923828125 8307.810546875 L 1762.232543945312 8308.3408203125 L 1764.672729492188 8317.9140625 C 1765.294067382812 8320.1953125 1767.3525390625 8321.7890625 1769.677734375 8321.7890625 L 1800.24462890625 8321.7890625 C 1802.56884765625 8321.7890625 1804.62890625 8320.1884765625 1805.255004882812 8317.8955078125 L 1807.504638671875 8308.333984375 L 1807.6279296875 8307.810546875 L 1807.08984375 8307.810546875 L 1762.645141601562 8307.810546875 L 1762.096923828125 8307.810546875 Z M 1759.55126953125 8304.060546875 C 1758.760864257812 8304.060546875 1758.187133789062 8304.6328125 1758.187133789062 8305.4228515625 C 1758.187133789062 8306.2138671875 1758.760864257812 8306.787109375 1759.55126953125 8306.787109375 L 1761.426635742188 8306.787109375 L 1808.308227539062 8306.787109375 L 1810.18359375 8306.787109375 C 1810.97412109375 8306.787109375 1811.5478515625 8306.2138671875 1811.5478515625 8305.4228515625 C 1811.5478515625 8304.6328125 1810.97412109375 8304.060546875 1810.18359375 8304.060546875 L 1778.303833007812 8304.060546875 L 1760.488647460938 8304.060546875 L 1759.55126953125 8304.060546875 Z M 1761.022338867188 8303.0361328125 L 1761.614135742188 8303.0361328125 L 1777.272705078125 8303.0361328125 L 1777.86376953125 8303.0361328125 L 1777.6767578125 8302.4755859375 C 1777.238647460938 8301.1591796875 1776.04931640625 8300.3095703125 1774.646728515625 8300.3095703125 L 1774.36572265625 8300.3095703125 L 1774.312744140625 8300.3095703125 L 1774.260864257812 8300.3212890625 L 1774.250732421875 8300.32421875 L 1774.240478515625 8300.3251953125 L 1774.180541992188 8300.3310546875 L 1774.173217773438 8300.33203125 L 1774.165893554688 8300.33203125 C 1773.97802734375 8300.33203125 1773.788696289062 8300.2236328125 1773.715576171875 8300.0751953125 C 1773.202758789062 8299.048828125 1772.148681640625 8298.435546875 1770.896362304688 8298.435546875 C 1769.321044921875 8298.435546875 1767.994873046875 8299.5673828125 1767.67138671875 8301.1875 L 1767.670654296875 8301.19140625 L 1767.669799804688 8301.1943359375 C 1767.586547851562 8301.52734375 1767.45361328125 8301.6025390625 1767.322509765625 8301.6337890625 L 1767.315063476562 8301.6357421875 L 1767.307495117188 8301.63671875 L 1767.16845703125 8301.6552734375 L 1767.158569335938 8301.6572265625 L 1767.148559570312 8301.6572265625 C 1767.009521484375 8301.6572265625 1766.898803710938 8301.611328125 1766.8447265625 8301.53125 L 1766.82080078125 8301.494140625 L 1766.792602539062 8301.4677734375 C 1766.026000976562 8300.6982421875 1765.167724609375 8300.3095703125 1764.239135742188 8300.3095703125 C 1762.836669921875 8300.3095703125 1761.6474609375 8301.1591796875 1761.209350585938 8302.4755859375 L 1761.022338867188 8303.0361328125 Z M 1791.027587890625 8286.158203125 L 1791.618530273438 8286.158203125 L 1796.96337890625 8286.158203125 L 1797.554321289062 8286.158203125 L 1797.367309570312 8285.59765625 C 1796.92822265625 8284.2802734375 1795.738891601562 8283.4296875 1794.337524414062 8283.4296875 C 1792.923828125 8283.4296875 1791.6396484375 8284.3203125 1791.214599609375 8285.59765625 L 1791.027587890625 8286.158203125 Z" stroke="none" fill="#003241"/>
    </g>
    <g id="Path_302" data-name="Path 302" transform="translate(-1767.213 -8279.582)" fill="#003241" stroke-miterlimit="10">
      <path d="M 1800.39208984375 8295.8515625 C 1800.106811523438 8295.8515625 1799.9560546875 8295.7001953125 1799.9560546875 8295.4150390625 L 1799.9560546875 8294.9462890625 C 1799.9560546875 8294.66015625 1800.106811523438 8294.5087890625 1800.39208984375 8294.5087890625 C 1800.677978515625 8294.5087890625 1800.8291015625 8294.66015625 1800.8291015625 8294.9462890625 L 1800.8291015625 8295.4150390625 C 1800.8291015625 8295.7001953125 1800.677978515625 8295.8515625 1800.39208984375 8295.8515625 Z" stroke="none"/>
      <path d="M 1800.39208984375 8295.7763671875 C 1800.6357421875 8295.7763671875 1800.754150390625 8295.6591796875 1800.754150390625 8295.4150390625 L 1800.754150390625 8294.9462890625 C 1800.754150390625 8294.703125 1800.6357421875 8294.583984375 1800.39208984375 8294.583984375 C 1800.1494140625 8294.583984375 1800.031005859375 8294.703125 1800.031005859375 8294.9462890625 L 1800.031005859375 8295.4150390625 C 1800.031005859375 8295.6591796875 1800.1494140625 8295.7763671875 1800.39208984375 8295.7763671875 M 1800.39208984375 8295.9267578125 C 1800.067260742188 8295.9267578125 1799.880981445312 8295.740234375 1799.880981445312 8295.4150390625 L 1799.880981445312 8294.9462890625 C 1799.880981445312 8294.62109375 1800.067260742188 8294.43359375 1800.39208984375 8294.43359375 C 1800.717529296875 8294.43359375 1800.904174804688 8294.62109375 1800.904174804688 8294.9462890625 L 1800.904174804688 8295.4150390625 C 1800.904174804688 8295.740234375 1800.717529296875 8295.9267578125 1800.39208984375 8295.9267578125 Z" stroke="none" fill="#003241"/>
    </g>
    <g id="Path_303" data-name="Path 303" transform="translate(-1767.213 -8280.714)" fill="#003241" stroke-miterlimit="10">
      <path d="M 1800.39208984375 8301.2939453125 C 1800.106811523438 8301.2939453125 1799.9560546875 8301.1435546875 1799.9560546875 8300.859375 L 1799.9560546875 8299.828125 C 1799.9560546875 8299.5419921875 1800.106811523438 8299.390625 1800.39208984375 8299.390625 C 1800.677978515625 8299.390625 1800.8291015625 8299.5419921875 1800.8291015625 8299.828125 L 1800.8291015625 8300.859375 C 1800.8291015625 8301.0341796875 1800.690185546875 8301.2939453125 1800.39208984375 8301.2939453125 Z" stroke="none"/>
      <path d="M 1800.39208984375 8301.21875 C 1800.6396484375 8301.21875 1800.754150390625 8301.0048828125 1800.754150390625 8300.859375 L 1800.754150390625 8299.828125 C 1800.754150390625 8299.5849609375 1800.6357421875 8299.4658203125 1800.39208984375 8299.4658203125 C 1800.1494140625 8299.4658203125 1800.031005859375 8299.5849609375 1800.031005859375 8299.828125 L 1800.031005859375 8300.859375 C 1800.031005859375 8301.103515625 1800.1494140625 8301.21875 1800.39208984375 8301.21875 M 1800.39208984375 8301.369140625 C 1800.067260742188 8301.369140625 1799.880981445312 8301.1826171875 1799.880981445312 8300.859375 L 1799.880981445312 8299.828125 C 1799.880981445312 8299.5029296875 1800.067260742188 8299.3154296875 1800.39208984375 8299.3154296875 C 1800.717529296875 8299.3154296875 1800.904174804688 8299.5029296875 1800.904174804688 8299.828125 L 1800.904174804688 8300.859375 C 1800.904174804688 8301.1044921875 1800.708374023438 8301.369140625 1800.39208984375 8301.369140625 Z" stroke="none" fill="#003241"/>
    </g>
    <g id="Path_304" data-name="Path 304" transform="translate(-1767.213 -8281.985)" fill="#003241" stroke-miterlimit="10">
      <path d="M 1800.39208984375 8306.224609375 C 1800.106811523438 8306.224609375 1799.9560546875 8306.07421875 1799.9560546875 8305.7890625 L 1799.9560546875 8305.3203125 C 1799.9560546875 8305.0341796875 1800.106811523438 8304.8828125 1800.39208984375 8304.8828125 C 1800.677978515625 8304.8828125 1800.8291015625 8305.0341796875 1800.8291015625 8305.3203125 L 1800.8291015625 8305.7890625 C 1800.8291015625 8306.07421875 1800.677978515625 8306.224609375 1800.39208984375 8306.224609375 Z" stroke="none"/>
      <path d="M 1800.39208984375 8306.1494140625 C 1800.6357421875 8306.1494140625 1800.754150390625 8306.0322265625 1800.754150390625 8305.7890625 L 1800.754150390625 8305.3203125 C 1800.754150390625 8305.0771484375 1800.6357421875 8304.9580078125 1800.39208984375 8304.9580078125 C 1800.1494140625 8304.9580078125 1800.031005859375 8305.0771484375 1800.031005859375 8305.3203125 L 1800.031005859375 8305.7890625 C 1800.031005859375 8306.0322265625 1800.1494140625 8306.1494140625 1800.39208984375 8306.1494140625 M 1800.39208984375 8306.2998046875 C 1800.067260742188 8306.2998046875 1799.880981445312 8306.11328125 1799.880981445312 8305.7890625 L 1799.880981445312 8305.3203125 C 1799.880981445312 8304.9951171875 1800.067260742188 8304.8076171875 1800.39208984375 8304.8076171875 C 1800.717529296875 8304.8076171875 1800.904174804688 8304.9951171875 1800.904174804688 8305.3203125 L 1800.904174804688 8305.7890625 C 1800.904174804688 8306.11328125 1800.717529296875 8306.2998046875 1800.39208984375 8306.2998046875 Z" stroke="none" fill="#003241"/>
    </g>
    <g id="Path_305" data-name="Path 305" transform="translate(-1768.344 -8279.582)" fill="#003241" stroke-miterlimit="10">
      <path d="M 1805.274169921875 8295.8515625 C 1804.988891601562 8295.8515625 1804.838134765625 8295.7001953125 1804.838134765625 8295.4150390625 L 1804.838134765625 8294.9462890625 C 1804.838134765625 8294.66015625 1804.988891601562 8294.5087890625 1805.274169921875 8294.5087890625 C 1805.56005859375 8294.5087890625 1805.711059570312 8294.66015625 1805.711059570312 8294.9462890625 L 1805.711059570312 8295.4150390625 C 1805.711059570312 8295.7001953125 1805.56005859375 8295.8515625 1805.274169921875 8295.8515625 Z" stroke="none"/>
      <path d="M 1805.274169921875 8295.7763671875 C 1805.517700195312 8295.7763671875 1805.636108398438 8295.6591796875 1805.636108398438 8295.4150390625 L 1805.636108398438 8294.9462890625 C 1805.636108398438 8294.703125 1805.517700195312 8294.583984375 1805.274169921875 8294.583984375 C 1805.031372070312 8294.583984375 1804.9130859375 8294.703125 1804.9130859375 8294.9462890625 L 1804.9130859375 8295.4150390625 C 1804.9130859375 8295.6591796875 1805.031372070312 8295.7763671875 1805.274169921875 8295.7763671875 M 1805.274169921875 8295.9267578125 C 1804.949340820312 8295.9267578125 1804.763061523438 8295.740234375 1804.763061523438 8295.4150390625 L 1804.763061523438 8294.9462890625 C 1804.763061523438 8294.62109375 1804.949340820312 8294.43359375 1805.274169921875 8294.43359375 C 1805.599487304688 8294.43359375 1805.7861328125 8294.62109375 1805.7861328125 8294.9462890625 L 1805.7861328125 8295.4150390625 C 1805.7861328125 8295.740234375 1805.599487304688 8295.9267578125 1805.274169921875 8295.9267578125 Z" stroke="none" fill="#003241"/>
    </g>
    <g id="Path_306" data-name="Path 306" transform="translate(-1768.344 -8280.714)" fill="#003241" stroke-miterlimit="10">
      <path d="M 1805.274169921875 8301.2939453125 C 1804.988891601562 8301.2939453125 1804.838134765625 8301.1435546875 1804.838134765625 8300.859375 L 1804.838134765625 8299.828125 C 1804.838134765625 8299.5419921875 1804.988891601562 8299.390625 1805.274169921875 8299.390625 C 1805.56005859375 8299.390625 1805.711059570312 8299.5419921875 1805.711059570312 8299.828125 L 1805.711059570312 8300.859375 C 1805.711059570312 8301.0341796875 1805.572265625 8301.2939453125 1805.274169921875 8301.2939453125 Z" stroke="none"/>
      <path d="M 1805.274169921875 8301.21875 C 1805.520751953125 8301.21875 1805.636108398438 8301.0048828125 1805.636108398438 8300.859375 L 1805.636108398438 8299.828125 C 1805.636108398438 8299.5849609375 1805.517700195312 8299.4658203125 1805.274169921875 8299.4658203125 C 1805.031372070312 8299.4658203125 1804.9130859375 8299.5849609375 1804.9130859375 8299.828125 L 1804.9130859375 8300.859375 C 1804.9130859375 8301.103515625 1805.031372070312 8301.21875 1805.274169921875 8301.21875 M 1805.274169921875 8301.369140625 C 1804.949340820312 8301.369140625 1804.763061523438 8301.1826171875 1804.763061523438 8300.859375 L 1804.763061523438 8299.828125 C 1804.763061523438 8299.5029296875 1804.949340820312 8299.3154296875 1805.274169921875 8299.3154296875 C 1805.599487304688 8299.3154296875 1805.7861328125 8299.5029296875 1805.7861328125 8299.828125 L 1805.7861328125 8300.859375 C 1805.7861328125 8301.1044921875 1805.59033203125 8301.369140625 1805.274169921875 8301.369140625 Z" stroke="none" fill="#003241"/>
    </g>
    <g id="Path_307" data-name="Path 307" transform="translate(-1768.344 -8281.985)" fill="#003241" stroke-miterlimit="10">
      <path d="M 1805.274169921875 8306.224609375 C 1804.988891601562 8306.224609375 1804.838134765625 8306.07421875 1804.838134765625 8305.7890625 L 1804.838134765625 8305.3203125 C 1804.838134765625 8305.0341796875 1804.988891601562 8304.8828125 1805.274169921875 8304.8828125 C 1805.56005859375 8304.8828125 1805.711059570312 8305.0341796875 1805.711059570312 8305.3203125 L 1805.711059570312 8305.7890625 C 1805.711059570312 8306.07421875 1805.56005859375 8306.224609375 1805.274169921875 8306.224609375 Z" stroke="none"/>
      <path d="M 1805.274169921875 8306.1494140625 C 1805.517700195312 8306.1494140625 1805.636108398438 8306.0322265625 1805.636108398438 8305.7890625 L 1805.636108398438 8305.3203125 C 1805.636108398438 8305.0771484375 1805.517700195312 8304.9580078125 1805.274169921875 8304.9580078125 C 1805.031372070312 8304.9580078125 1804.9130859375 8305.0771484375 1804.9130859375 8305.3203125 L 1804.9130859375 8305.7890625 C 1804.9130859375 8306.0322265625 1805.031372070312 8306.1494140625 1805.274169921875 8306.1494140625 M 1805.274169921875 8306.2998046875 C 1804.949340820312 8306.2998046875 1804.763061523438 8306.11328125 1804.763061523438 8305.7890625 L 1804.763061523438 8305.3203125 C 1804.763061523438 8304.9951171875 1804.949340820312 8304.8076171875 1805.274169921875 8304.8076171875 C 1805.599487304688 8304.8076171875 1805.7861328125 8304.9951171875 1805.7861328125 8305.3203125 L 1805.7861328125 8305.7890625 C 1805.7861328125 8306.11328125 1805.599487304688 8306.2998046875 1805.274169921875 8306.2998046875 Z" stroke="none" fill="#003241"/>
    </g>
    <g id="Path_308" data-name="Path 308" transform="translate(-1769.476 -8279.582)" fill="#003241" stroke-miterlimit="10">
      <path d="M 1810.15625 8295.8515625 C 1809.870971679688 8295.8515625 1809.72021484375 8295.7001953125 1809.72021484375 8295.4150390625 L 1809.72021484375 8294.9462890625 C 1809.72021484375 8294.66015625 1809.870971679688 8294.5087890625 1810.15625 8294.5087890625 C 1810.44189453125 8294.5087890625 1810.5927734375 8294.66015625 1810.5927734375 8294.9462890625 L 1810.5927734375 8295.4150390625 C 1810.5927734375 8295.7001953125 1810.44189453125 8295.8515625 1810.15625 8295.8515625 Z" stroke="none"/>
      <path d="M 1810.15625 8295.7763671875 C 1810.399658203125 8295.7763671875 1810.517822265625 8295.6591796875 1810.517822265625 8295.4150390625 L 1810.517822265625 8294.9462890625 C 1810.517822265625 8294.703125 1810.399658203125 8294.583984375 1810.15625 8294.583984375 C 1809.912475585938 8294.583984375 1809.795166015625 8294.703125 1809.795166015625 8294.9462890625 L 1809.795166015625 8295.4150390625 C 1809.795166015625 8295.6591796875 1809.912475585938 8295.7763671875 1810.15625 8295.7763671875 M 1810.15625 8295.9267578125 C 1809.831420898438 8295.9267578125 1809.645141601562 8295.740234375 1809.645141601562 8295.4150390625 L 1809.645141601562 8294.9462890625 C 1809.645141601562 8294.62109375 1809.831420898438 8294.43359375 1810.15625 8294.43359375 C 1810.481323242188 8294.43359375 1810.667846679688 8294.62109375 1810.667846679688 8294.9462890625 L 1810.667846679688 8295.4150390625 C 1810.667846679688 8295.740234375 1810.481323242188 8295.9267578125 1810.15625 8295.9267578125 Z" stroke="none" fill="#003241"/>
    </g>
    <g id="Path_309" data-name="Path 309" transform="translate(-1769.476 -8280.714)" fill="#003241" stroke-miterlimit="10">
      <path d="M 1810.15625 8301.2939453125 C 1809.870971679688 8301.2939453125 1809.72021484375 8301.1435546875 1809.72021484375 8300.859375 L 1809.72021484375 8299.828125 C 1809.72021484375 8299.5419921875 1809.870971679688 8299.390625 1810.15625 8299.390625 C 1810.44189453125 8299.390625 1810.5927734375 8299.5419921875 1810.5927734375 8299.828125 L 1810.5927734375 8300.859375 C 1810.5927734375 8301.0341796875 1810.4541015625 8301.2939453125 1810.15625 8301.2939453125 Z" stroke="none"/>
      <path d="M 1810.15625 8301.21875 C 1810.40283203125 8301.21875 1810.517822265625 8301.0048828125 1810.517822265625 8300.859375 L 1810.517822265625 8299.828125 C 1810.517822265625 8299.5849609375 1810.399658203125 8299.4658203125 1810.15625 8299.4658203125 C 1809.912475585938 8299.4658203125 1809.795166015625 8299.5849609375 1809.795166015625 8299.828125 L 1809.795166015625 8300.859375 C 1809.795166015625 8301.103515625 1809.912475585938 8301.21875 1810.15625 8301.21875 M 1810.15625 8301.369140625 C 1809.82666015625 8301.369140625 1809.645141601562 8301.1875 1809.645141601562 8300.859375 L 1809.645141601562 8299.828125 C 1809.645141601562 8299.5029296875 1809.831420898438 8299.3154296875 1810.15625 8299.3154296875 C 1810.481323242188 8299.3154296875 1810.667846679688 8299.5029296875 1810.667846679688 8299.828125 L 1810.667846679688 8300.859375 C 1810.667846679688 8301.1044921875 1810.472290039062 8301.369140625 1810.15625 8301.369140625 Z" stroke="none" fill="#003241"/>
    </g>
    <g id="Path_310" data-name="Path 310" transform="translate(-1769.476 -8281.985)" fill="#003241" stroke-miterlimit="10">
      <path d="M 1810.15625 8306.224609375 C 1809.870971679688 8306.224609375 1809.72021484375 8306.07421875 1809.72021484375 8305.7890625 L 1809.72021484375 8305.3203125 C 1809.72021484375 8305.0341796875 1809.870971679688 8304.8828125 1810.15625 8304.8828125 C 1810.44189453125 8304.8828125 1810.5927734375 8305.0341796875 1810.5927734375 8305.3203125 L 1810.5927734375 8305.7890625 C 1810.5927734375 8306.07421875 1810.44189453125 8306.224609375 1810.15625 8306.224609375 Z" stroke="none"/>
      <path d="M 1810.15625 8306.1494140625 C 1810.399658203125 8306.1494140625 1810.517822265625 8306.0322265625 1810.517822265625 8305.7890625 L 1810.517822265625 8305.3203125 C 1810.517822265625 8305.0771484375 1810.399658203125 8304.9580078125 1810.15625 8304.9580078125 C 1809.912475585938 8304.9580078125 1809.795166015625 8305.0771484375 1809.795166015625 8305.3203125 L 1809.795166015625 8305.7890625 C 1809.795166015625 8306.0322265625 1809.912475585938 8306.1494140625 1810.15625 8306.1494140625 M 1810.15625 8306.2998046875 C 1809.831420898438 8306.2998046875 1809.645141601562 8306.11328125 1809.645141601562 8305.7890625 L 1809.645141601562 8305.3203125 C 1809.645141601562 8304.9951171875 1809.831420898438 8304.8076171875 1810.15625 8304.8076171875 C 1810.481323242188 8304.8076171875 1810.667846679688 8304.9951171875 1810.667846679688 8305.3203125 L 1810.667846679688 8305.7890625 C 1810.667846679688 8306.11328125 1810.481323242188 8306.2998046875 1810.15625 8306.2998046875 Z" stroke="none" fill="#003241"/>
    </g>
  </g>
</svg>
