<svg xmlns="http://www.w3.org/2000/svg" width="53.846" height="53.85" viewBox="0 0 53.846 53.85">
  <g id="Group_1428" data-name="Group 1428" transform="translate(0 0)">
    <path id="Path_287" data-name="Path 287" d="M1331.655,8177.957a8.655,8.655,0,1,0,2.536,6.121A8.63,8.63,0,0,0,1331.655,8177.957Zm-6.12-1.662a7.784,7.784,0,1,1-7.784,7.782,7.782,7.782,0,0,1,7.784-7.782" transform="translate(-1285.823 -8149.843)" fill="#003241"/>
    <rect id="Rectangle_229" data-name="Rectangle 229" width="9.485" height="0.872" transform="translate(34.969 52.978)" fill="#003241"/>
    <rect id="Rectangle_230" data-name="Rectangle 230" width="17.313" height="0.872" transform="translate(31.055 49.324)" fill="#003241"/>
    <g id="Group_1423" data-name="Group 1423">
      <path id="Path_288" data-name="Path 288" d="M1276.678,8176.735l-1.163-.86h39.249V8175h-40.642l-.113-.069c-.881-.531-1.791-1.014-2.724-1.465l-.462-.223.255-.444a68.7,68.7,0,0,0,8.727-26.848l.107-.987,9.2,9.144a.434.434,0,0,0,.3.126h.006l.065-.006a.437.437,0,0,0,.318-.235,8.439,8.439,0,0,0-1.584-9.753l-1.56-1.562h7.575a.437.437,0,0,0,.437-.436.459.459,0,0,0-.023-.142,8.441,8.441,0,0,0-8-5.775H1284.3l5.371-5.4a.436.436,0,0,0,0-.616l-.112-.082h0a8.441,8.441,0,0,0-9.76,1.583l-.871.872a8.367,8.367,0,0,0-.749.864l-.383.508-.38-.51a8.334,8.334,0,0,0-.742-.863h0l-.872-.872a8.436,8.436,0,0,0-9.754-1.583.438.438,0,0,0-.242.392.431.431,0,0,0,.046.194l.082.113,5.377,5.4h-2.367a8.438,8.438,0,0,0-8,5.777h0a.441.441,0,0,0-.023.138.436.436,0,0,0,.3.413h0a.429.429,0,0,0,.136.022h7.569l-1.561,1.562a8.437,8.437,0,0,0-1.584,9.754.438.438,0,0,0,.318.236l.064.005h.01a.441.441,0,0,0,.305-.126l8.871-8.819-.15,1.347a49.977,49.977,0,0,1-9.641,24.37l-.193.258-.311-.082a33.471,33.471,0,0,0-3.67-.749l-.081-.008-.087.868.068.006.01,0c.932.134,1.852.321,2.763.531l.738.171-.472.591c-.085.107-.175.217-.262.326l.67.56a50.944,50.944,0,0,0,11.539-28.94l.012-.179,1.515-1.506,1.281,1.274-.018.221a67.249,67.249,0,0,1-11.4,32.261l.716.5q.92-1.342,1.784-2.752l.225-.367.388.186a32.845,32.845,0,0,1,10.9,8.426l.673-.551A33.61,33.61,0,0,0,1276.678,8176.735Zm8.717-39.536h1.242a7.57,7.57,0,0,1,6.621,3.9l.392.708h-8.481l-.1-.046a8.413,8.413,0,0,0-5.354-.64l-1.194.25.707-.993A7.561,7.561,0,0,1,1285.395,8137.2Zm-23.457,4.608.393-.708a7.572,7.572,0,0,1,6.609-3.9h1.254a7.565,7.565,0,0,1,6.163,3.178l.708.994-1.194-.25a8.418,8.418,0,0,0-5.351.641l-.1.046Zm4.91,10.7-.572.568-.223-.776a7.566,7.566,0,0,1,1.927-7.446l.873-.873a7.454,7.454,0,0,1,5.268-2.177h.014l.025,0a7.65,7.65,0,0,1,2.14.309l.775.226Zm10.353-17.3a8.224,8.224,0,0,0-.659,2.87l-.045.988-.745-.65a8.423,8.423,0,0,0-2.637-1.563l-.1-.037-6.058-6.093.775-.223a7.567,7.567,0,0,1,7.448,1.927l.814.814h0l.058.059,0,0a7.358,7.358,0,0,1,1.123,1.479l.12.207Zm.546,5.809-.216-1.139a7.379,7.379,0,0,1,1.911-6.473l0-.007.97-.972a7.563,7.563,0,0,1,7.451-1.927l.775.224-6.057,6.092-.1.037a8.428,8.428,0,0,0-4.081,3.2Zm.775,1.333.769-.229a7.52,7.52,0,0,1,7.445,1.862l0,0,.872.872a7.571,7.571,0,0,1,1.927,7.446l-.223.776Z" transform="translate(-1260.917 -8129.33)" fill="#003241"/>
    </g>
  </g>
</svg>
