<svg xmlns="http://www.w3.org/2000/svg" width="64.496" height="54.292" viewBox="0 0 64.496 54.292">
  <g id="Group_1422" data-name="Group 1422" transform="translate(0.251 0.25)">
    <g id="Path_277" data-name="Path 277" transform="translate(-761.482 -8274.409)" fill="#003241" stroke-miterlimit="10">
      <path d="M 812.496337890625 8290.08203125 C 812.2799682617188 8290.08203125 812.1436157226562 8290.0302734375 812.0950317382812 8290.0078125 L 812.02197265625 8289.974609375 L 812.02197265625 8289.89453125 L 812.02197265625 8279.7333984375 L 812.02197265625 8279.626953125 L 812.1267700195312 8279.6103515625 L 812.2222900390625 8279.5947265625 L 812.2323608398438 8279.5927734375 L 812.2424926757812 8279.5927734375 L 815.4332275390625 8279.5927734375 C 816.4453125 8279.5927734375 817.214111328125 8279.845703125 817.71826171875 8280.34375 C 818.222900390625 8280.84375 818.4788208007812 8281.6044921875 818.4788208007812 8282.607421875 L 818.4788208007812 8282.703125 C 818.4788208007812 8283.703125 818.2083129882812 8284.46875 817.6748657226562 8284.9794921875 C 817.1429443359375 8285.4892578125 816.3460693359375 8285.748046875 815.306396484375 8285.748046875 L 813.5285034179688 8285.748046875 L 812.9712524414062 8285.748046875 L 812.9712524414062 8286.3056640625 L 812.9712524414062 8289.890625 L 812.9712524414062 8289.970703125 L 812.8987426757812 8290.00390625 C 812.7932739257812 8290.052734375 812.642822265625 8290.08203125 812.496337890625 8290.08203125 Z M 812.9712524414062 8285.244140625 L 813.5285034179688 8285.244140625 L 815.306396484375 8285.244140625 C 816.698486328125 8285.244140625 817.5296020507812 8284.353515625 817.5296020507812 8282.8623046875 L 817.5296020507812 8282.6708984375 C 817.5296020507812 8281.1796875 816.698486328125 8280.2890625 815.306396484375 8280.2890625 L 813.5285034179688 8280.2890625 L 812.9712524414062 8280.2890625 L 812.9712524414062 8280.845703125 L 812.9712524414062 8284.685546875 L 812.9712524414062 8285.244140625 Z" stroke="none"/>
      <path d="M 812.2424926757812 8279.7177734375 L 812.14697265625 8279.7333984375 L 812.14697265625 8289.89453125 C 812.2111206054688 8289.923828125 812.33251953125 8289.95703125 812.496337890625 8289.95703125 C 812.6531982421875 8289.95703125 812.7787475585938 8289.921875 812.8462524414062 8289.890625 L 812.8462524414062 8286.3056640625 L 812.8462524414062 8285.623046875 L 813.5285034179688 8285.623046875 L 815.306396484375 8285.623046875 C 817.3284912109375 8285.623046875 818.3538208007812 8284.640625 818.3538208007812 8282.703125 L 818.3538208007812 8282.607421875 C 818.3538208007812 8280.662109375 817.3980712890625 8279.7177734375 815.4332275390625 8279.7177734375 L 812.2424926757812 8279.7177734375 M 815.306396484375 8285.369140625 L 813.5285034179688 8285.369140625 L 812.8462524414062 8285.369140625 L 812.8462524414062 8284.685546875 L 812.8462524414062 8280.845703125 L 812.8462524414062 8280.1640625 L 813.5285034179688 8280.1640625 L 815.306396484375 8280.1640625 C 816.7765502929688 8280.1640625 817.6546020507812 8281.1015625 817.6546020507812 8282.6708984375 L 817.6546020507812 8282.8623046875 C 817.6546020507812 8284.431640625 816.7765502929688 8285.369140625 815.306396484375 8285.369140625 M 812.22216796875 8279.4677734375 L 812.2424926757812 8279.4677734375 L 815.4332275390625 8279.4677734375 C 817.5370483398438 8279.4677734375 818.6038208007812 8280.5244140625 818.6038208007812 8282.607421875 L 818.6038208007812 8282.703125 C 818.6038208007812 8284.77734375 817.4635620117188 8285.873046875 815.306396484375 8285.873046875 L 813.5285034179688 8285.873046875 L 813.0962524414062 8285.873046875 L 813.0962524414062 8286.3056640625 L 813.0962524414062 8289.890625 L 813.0962524414062 8290.05078125 L 812.9512939453125 8290.1171875 C 812.8931274414062 8290.14453125 812.7323608398438 8290.20703125 812.496337890625 8290.20703125 C 812.3267211914062 8290.20703125 812.1614990234375 8290.17578125 812.0430908203125 8290.1220703125 L 811.89697265625 8290.0556640625 L 811.89697265625 8289.89453125 L 811.89697265625 8279.7333984375 L 811.89697265625 8279.5205078125 L 812.1066284179688 8279.486328125 L 812.2021484375 8279.470703125 L 812.22216796875 8279.4677734375 Z M 815.306396484375 8285.119140625 C 816.6398315429688 8285.119140625 817.4046020507812 8284.296875 817.4046020507812 8282.8623046875 L 817.4046020507812 8282.6708984375 C 817.4046020507812 8281.236328125 816.6398315429688 8280.4140625 815.306396484375 8280.4140625 L 813.5285034179688 8280.4140625 L 813.0962524414062 8280.4140625 L 813.0962524414062 8280.845703125 L 813.0962524414062 8284.685546875 L 813.0962524414062 8285.119140625 L 813.5285034179688 8285.119140625 L 815.306396484375 8285.119140625 Z" stroke="none" fill="#003241"/>
    </g>
    <g id="Path_278" data-name="Path 278" transform="translate(-744.673 -8274.111)" fill="#003241" stroke-miterlimit="10">
      <path d="M 780.7442016601562 8283.8046875 C 780.6442260742188 8283.8046875 780.5502319335938 8283.7666015625 780.4796142578125 8283.6962890625 C 777.71240234375 8280.9287109375 774.0339965820312 8279.404296875 770.1213989257812 8279.404296875 C 766.20947265625 8279.404296875 762.531005859375 8280.9287109375 759.7636108398438 8283.6962890625 C 759.6943969726562 8283.765625 759.600341796875 8283.8046875 759.499267578125 8283.8046875 C 759.4409790039062 8283.8046875 759.3291015625 8283.7900390625 759.2349853515625 8283.6953125 C 759.0900268554688 8283.5498046875 759.0896606445312 8283.3125 759.2344970703125 8283.1669921875 C 762.143310546875 8280.2587890625 766.0098266601562 8278.6572265625 770.1220703125 8278.6572265625 C 774.2338256835938 8278.6572265625 778.10009765625 8280.2587890625 781.0086059570312 8283.166015625 C 781.1536254882812 8283.3125 781.1536254882812 8283.5498046875 781.0089111328125 8283.6953125 C 780.9138793945312 8283.791015625 780.8023071289062 8283.8046875 780.7442016601562 8283.8046875 Z" stroke="none"/>
      <path d="M 780.7442016601562 8283.6796875 C 780.782470703125 8283.6796875 780.8567504882812 8283.6708984375 780.9202270507812 8283.607421875 C 781.0171508789062 8283.509765625 781.0171508789062 8283.3525390625 780.9202270507812 8283.2548828125 C 778.0357666015625 8280.37109375 774.2010498046875 8278.7822265625 770.1220703125 8278.7822265625 C 766.0430297851562 8278.7822265625 762.2076416015625 8280.37109375 759.3232421875 8283.2548828125 C 759.2263793945312 8283.3525390625 759.2263793945312 8283.509765625 759.3238525390625 8283.607421875 C 759.3866577148438 8283.6708984375 759.4610595703125 8283.6796875 759.499267578125 8283.6796875 C 759.5380859375 8283.6796875 759.6124877929688 8283.6708984375 759.6752319335938 8283.607421875 C 762.4661865234375 8280.81640625 766.1760864257812 8279.279296875 770.1213989257812 8279.279296875 C 774.0673217773438 8279.279296875 777.7772216796875 8280.81640625 780.5675048828125 8283.607421875 C 780.6316528320312 8283.6708984375 780.705322265625 8283.6796875 780.7442016601562 8283.6796875 M 780.7442016601562 8283.9296875 C 780.611083984375 8283.9296875 780.48583984375 8283.8779296875 780.3916625976562 8283.78515625 C 777.6476440429688 8281.0400390625 774.0006103515625 8279.529296875 770.1213989257812 8279.529296875 C 766.2428588867188 8279.529296875 762.5957641601562 8281.0400390625 759.8519897460938 8283.7841796875 C 759.7596435546875 8283.8779296875 759.6339721679688 8283.9296875 759.499267578125 8283.9296875 C 759.364990234375 8283.9296875 759.2395629882812 8283.8779296875 759.1461181640625 8283.783203125 C 758.953125 8283.58984375 758.9525756835938 8283.2734375 759.145751953125 8283.0791015625 C 762.0785522460938 8280.146484375 765.9764404296875 8278.5322265625 770.1220703125 8278.5322265625 C 774.2672119140625 8278.5322265625 778.1648559570312 8280.146484375 781.0969848632812 8283.078125 C 781.29052734375 8283.2734375 781.29052734375 8283.5888671875 781.09765625 8283.783203125 C 781.003173828125 8283.8779296875 780.8779296875 8283.9296875 780.7442016601562 8283.9296875 Z" stroke="none" fill="#003241"/>
    </g>
    <g id="Path_279" data-name="Path 279" transform="translate(-746.462 -8276.644)" fill="#003241" stroke-miterlimit="10">
      <path d="M 778.6919555664062 8290.177734375 C 778.5909423828125 8290.177734375 778.4970703125 8290.1396484375 778.427490234375 8290.0693359375 C 776.6893310546875 8288.3310546875 774.3751220703125 8287.3740234375 771.9113159179688 8287.3740234375 C 769.4470825195312 8287.3740234375 767.1326904296875 8288.3310546875 765.3944702148438 8290.0693359375 C 765.3250122070312 8290.1396484375 765.2310791015625 8290.177734375 765.1300659179688 8290.177734375 C 765.029052734375 8290.177734375 764.9351806640625 8290.1396484375 764.8656005859375 8290.0693359375 C 764.7702026367188 8289.97265625 764.7560424804688 8289.861328125 764.7560424804688 8289.8037109375 C 764.7560424804688 8289.7568359375 764.7667236328125 8289.638671875 764.8656005859375 8289.5400390625 C 766.7449340820312 8287.6611328125 769.2471313476562 8286.6259765625 771.9113159179688 8286.6259765625 C 774.5753784179688 8286.6259765625 777.0773315429688 8287.6611328125 778.9563598632812 8289.5400390625 C 779.05517578125 8289.6376953125 779.06591796875 8289.7568359375 779.06591796875 8289.8037109375 C 779.06591796875 8289.861328125 779.0517578125 8289.97265625 778.9570922851562 8290.0693359375 C 778.88671875 8290.1396484375 778.7928466796875 8290.177734375 778.6919555664062 8290.177734375 Z" stroke="none"/>
      <path d="M 778.6919555664062 8290.052734375 C 778.7301635742188 8290.052734375 778.804443359375 8290.044921875 778.8679809570312 8289.9814453125 C 778.931396484375 8289.9169921875 778.94091796875 8289.8427734375 778.94091796875 8289.8037109375 C 778.94091796875 8289.7666015625 778.931396484375 8289.69140625 778.8679809570312 8289.62890625 C 777.012939453125 8287.7734375 774.5419921875 8286.7509765625 771.9113159179688 8286.7509765625 C 769.2799682617188 8286.7509765625 766.8089599609375 8287.7734375 764.9540405273438 8289.6279296875 C 764.8906860351562 8289.69140625 764.8810424804688 8289.7666015625 764.8810424804688 8289.8037109375 C 764.8810424804688 8289.8427734375 764.8906860351562 8289.9169921875 764.9540405273438 8289.9814453125 C 765.0174560546875 8290.044921875 765.0918579101562 8290.052734375 765.1300659179688 8290.052734375 C 765.1682739257812 8290.052734375 765.24267578125 8290.044921875 765.3060913085938 8289.9814453125 C 767.067626953125 8288.2197265625 769.4137573242188 8287.2490234375 771.9113159179688 8287.2490234375 C 774.408935546875 8287.2490234375 776.75439453125 8288.2197265625 778.5159301757812 8289.9814453125 C 778.579345703125 8290.044921875 778.6536865234375 8290.052734375 778.6919555664062 8290.052734375 M 778.6919555664062 8290.302734375 C 778.5575561523438 8290.302734375 778.4322509765625 8290.2509765625 778.3390502929688 8290.158203125 C 776.62451171875 8288.443359375 774.3417358398438 8287.4990234375 771.9113159179688 8287.4990234375 C 769.4805297851562 8287.4990234375 767.197509765625 8288.443359375 765.48291015625 8290.158203125 C 765.3898315429688 8290.2509765625 765.2644653320312 8290.302734375 765.1300659179688 8290.302734375 C 764.9956665039062 8290.302734375 764.870361328125 8290.2509765625 764.7771606445312 8290.158203125 C 764.6824340820312 8290.0615234375 764.6310424804688 8289.9365234375 764.6310424804688 8289.8037109375 C 764.6310424804688 8289.6728515625 764.6842651367188 8289.5439453125 764.777099609375 8289.451171875 C 766.68017578125 8287.548828125 769.2137451171875 8286.5009765625 771.9113159179688 8286.5009765625 C 774.6087646484375 8286.5009765625 777.1421508789062 8287.548828125 779.0447998046875 8289.4521484375 C 779.1371459960938 8289.54296875 779.19091796875 8289.671875 779.19091796875 8289.8037109375 C 779.19091796875 8289.9365234375 779.1395263671875 8290.0615234375 779.046142578125 8290.1572265625 C 778.9514770507812 8290.2509765625 778.826171875 8290.302734375 778.6919555664062 8290.302734375 Z" stroke="none" fill="#003241"/>
    </g>
    <g id="Path_280" data-name="Path 280" transform="translate(-748.223 -8279.133)" fill="#003241" stroke-miterlimit="10">
      <path d="M 776.6728515625 8296.4482421875 C 776.5717163085938 8296.4482421875 776.4773559570312 8296.4091796875 776.4071655273438 8296.337890625 C 775.677978515625 8295.6083984375 774.70654296875 8295.20703125 773.6724243164062 8295.20703125 C 772.637939453125 8295.20703125 771.666259765625 8295.6083984375 770.9364624023438 8296.3388671875 C 770.8660278320312 8296.4091796875 770.7717895507812 8296.4482421875 770.6713256835938 8296.4482421875 C 770.5709838867188 8296.4482421875 770.4771118164062 8296.4091796875 770.4069213867188 8296.337890625 C 770.3370971679688 8296.2685546875 770.2980346679688 8296.1748046875 770.2980346679688 8296.07421875 C 770.2980346679688 8296.0166015625 770.312255859375 8295.9052734375 770.4074096679688 8295.8095703125 C 771.279296875 8294.9384765625 772.438720703125 8294.458984375 773.6724243164062 8294.458984375 C 774.9058227539062 8294.458984375 776.0652465820312 8294.9384765625 776.937255859375 8295.8095703125 C 777.031982421875 8295.9052734375 777.046142578125 8296.0166015625 777.046142578125 8296.07421875 C 777.046142578125 8296.173828125 777.0075073242188 8296.2685546875 776.9373168945312 8296.337890625 C 776.8677368164062 8296.4091796875 776.7735595703125 8296.4482421875 776.6728515625 8296.4482421875 Z" stroke="none"/>
      <path d="M 776.6728515625 8296.3232421875 C 776.7110595703125 8296.3232421875 776.785400390625 8296.314453125 776.848876953125 8296.25 C 776.9122924804688 8296.1865234375 776.921142578125 8296.11328125 776.921142578125 8296.07421875 C 776.921142578125 8296.0361328125 776.9122924804688 8295.9619140625 776.848876953125 8295.8984375 C 776.00146484375 8295.0517578125 774.8738403320312 8294.583984375 773.6724243164062 8294.583984375 C 772.4710693359375 8294.583984375 771.3427124023438 8295.0517578125 770.4960327148438 8295.8974609375 C 770.4319458007812 8295.9619140625 770.4230346679688 8296.0361328125 770.4230346679688 8296.07421875 C 770.4230346679688 8296.11328125 770.4319458007812 8296.1865234375 770.4960327148438 8296.25 C 770.5594482421875 8296.314453125 770.6331787109375 8296.3232421875 770.6713256835938 8296.3232421875 C 770.7102661132812 8296.3232421875 770.783935546875 8296.314453125 770.8480834960938 8296.25 C 771.6012573242188 8295.4970703125 772.6041259765625 8295.08203125 773.6724243164062 8295.08203125 C 774.7401123046875 8295.08203125 775.7429809570312 8295.4970703125 776.4961547851562 8296.25 C 776.5596923828125 8296.314453125 776.6339111328125 8296.3232421875 776.6728515625 8296.3232421875 M 776.6728515625 8296.5732421875 C 776.5380249023438 8296.5732421875 776.4120483398438 8296.5205078125 776.318115234375 8296.42578125 C 775.6132202148438 8295.720703125 774.6731567382812 8295.33203125 773.6724243164062 8295.33203125 C 772.6713256835938 8295.33203125 771.7310180664062 8295.720703125 771.0248413085938 8296.4267578125 C 770.9310302734375 8296.521484375 770.8052978515625 8296.5732421875 770.6713256835938 8296.5732421875 C 770.5372314453125 8296.5732421875 770.4116821289062 8296.5205078125 770.3178100585938 8296.42578125 C 770.2252807617188 8296.333984375 770.1730346679688 8296.2080078125 770.1730346679688 8296.07421875 C 770.1730346679688 8295.94140625 770.2247924804688 8295.8154296875 770.3187255859375 8295.7216796875 C 771.2145385742188 8294.826171875 772.4053344726562 8294.333984375 773.6724243164062 8294.333984375 C 774.9391479492188 8294.333984375 776.1300048828125 8294.8271484375 777.0255737304688 8295.7216796875 C 777.1195068359375 8295.8154296875 777.171142578125 8295.9404296875 777.171142578125 8296.07421875 C 777.171142578125 8296.2080078125 777.1195068359375 8296.3330078125 777.0257568359375 8296.4267578125 C 776.93310546875 8296.5205078125 776.8073120117188 8296.5732421875 776.6728515625 8296.5732421875 Z" stroke="none" fill="#003241"/>
    </g>
    <g id="Path_281" data-name="Path 281" transform="translate(-741.568 -8285.111)" fill="#003241" stroke-miterlimit="10">
      <path d="M 786.723388671875 8322.72265625 L 761.1920166015625 8322.72265625 C 760.9857788085938 8322.72265625 760.8179931640625 8322.5546875 760.8179931640625 8322.34765625 C 760.8179931640625 8322.142578125 760.9857788085938 8321.9755859375 761.1920166015625 8321.9755859375 L 764.2852783203125 8321.9755859375 L 764.8424682617188 8321.9755859375 L 764.8424682617188 8321.41796875 L 764.8424682617188 8314.578125 L 764.8424682617188 8314.0205078125 L 764.2852783203125 8314.0205078125 L 761.7548217773438 8314.0205078125 C 759.1007690429688 8314.0205078125 756.6046142578125 8315.0517578125 754.7261352539062 8316.92578125 C 753.537353515625 8318.1083984375 752.1849975585938 8319.0986328125 750.7066040039062 8319.8662109375 C 750.33447265625 8320.05859375 750.1033935546875 8320.4375 750.1033935546875 8320.8564453125 C 750.1033935546875 8321.4736328125 750.6049194335938 8321.9755859375 751.2213745117188 8321.9755859375 L 755.0752563476562 8321.9755859375 C 755.2814331054688 8321.9755859375 755.44921875 8322.142578125 755.44921875 8322.34765625 C 755.44921875 8322.5546875 755.2814331054688 8322.72265625 755.0752563476562 8322.72265625 L 751.2213745117188 8322.72265625 C 750.1928100585938 8322.72265625 749.3560180664062 8321.8857421875 749.3560180664062 8320.8564453125 C 749.3560180664062 8320.158203125 749.7415161132812 8319.5234375 750.3621215820312 8319.201171875 C 751.77392578125 8318.46875 753.0646362304688 8317.5244140625 754.1984252929688 8316.39453125 C 756.2189331054688 8314.3818359375 758.9025268554688 8313.2734375 761.7548217773438 8313.2734375 L 773.0592041015625 8313.2734375 C 775.2005004882812 8313.2734375 777.2728271484375 8313.9072265625 779.0521240234375 8315.107421875 L 785.21142578125 8319.26953125 C 785.6039428710938 8319.533203125 786.0159301757812 8319.7841796875 786.4356689453125 8320.015625 C 787.1259155273438 8320.3974609375 787.5545654296875 8321.115234375 787.5545654296875 8321.890625 C 787.5545654296875 8321.9189453125 787.5531005859375 8321.947265625 787.5502319335938 8321.9755859375 L 787.568115234375 8321.9755859375 L 787.5174560546875 8322.1376953125 C 787.5173950195312 8322.1376953125 787.5173950195312 8322.1376953125 787.517333984375 8322.138671875 L 787.4548950195312 8322.3642578125 L 787.4293823242188 8322.3291015625 C 787.2794189453125 8322.568359375 787.01220703125 8322.72265625 786.723388671875 8322.72265625 Z M 765.5911254882812 8321.9755859375 L 766.1483154296875 8321.9755859375 L 786.096435546875 8321.9755859375 L 787.177734375 8321.9755859375 L 786.5505981445312 8321.0947265625 C 786.428955078125 8320.9228515625 786.264892578125 8320.7763671875 786.0758666992188 8320.6728515625 C 785.6430053710938 8320.435546875 785.21142578125 8320.1708984375 784.7930297851562 8319.888671875 L 778.6339111328125 8315.728515625 C 776.98193359375 8314.611328125 775.0542602539062 8314.021484375 773.0592041015625 8314.021484375 L 766.1483154296875 8314.021484375 L 765.5911254882812 8314.021484375 L 765.5911254882812 8314.578125 L 765.5911254882812 8321.41796875 L 765.5911254882812 8321.9755859375 Z" stroke="none"/>
      <path d="M 786.723388671875 8322.59765625 C 787.0399780273438 8322.59765625 787.3087768554688 8322.38671875 787.3981323242188 8322.1005859375 L 786.096435546875 8322.1005859375 L 766.1483154296875 8322.1005859375 L 765.4661254882812 8322.1005859375 L 765.4661254882812 8321.41796875 L 765.4661254882812 8314.578125 L 765.4661254882812 8313.896484375 L 766.1483154296875 8313.896484375 L 773.0592041015625 8313.896484375 C 775.0785522460938 8313.896484375 777.0311279296875 8314.494140625 778.703857421875 8315.625 L 784.8629760742188 8319.78515625 C 785.2723388671875 8320.0615234375 785.7008056640625 8320.32421875 786.135986328125 8320.5634765625 C 786.3406982421875 8320.67578125 786.518798828125 8320.8330078125 786.6524047851562 8321.0224609375 L 787.4042358398438 8322.078125 C 787.420654296875 8322.0185546875 787.4295654296875 8321.9560546875 787.4295654296875 8321.890625 C 787.4295654296875 8321.1611328125 787.025634765625 8320.484375 786.3754272460938 8320.125 C 785.9545288085938 8319.8935546875 785.5390625 8319.640625 785.1414184570312 8319.373046875 L 778.9822387695312 8315.2109375 C 777.2268676757812 8314.02734375 775.17822265625 8313.3984375 773.0592041015625 8313.3984375 L 761.7548217773438 8313.3984375 C 758.9359130859375 8313.3984375 756.283447265625 8314.494140625 754.28662109375 8316.4833984375 C 753.14453125 8317.62109375 751.8435668945312 8318.5732421875 750.4197387695312 8319.3125 C 749.8405151367188 8319.61328125 749.4810180664062 8320.205078125 749.4810180664062 8320.8564453125 C 749.4810180664062 8321.8173828125 750.261474609375 8322.59765625 751.2213745117188 8322.59765625 L 755.0752563476562 8322.59765625 C 755.2130737304688 8322.59765625 755.32421875 8322.4853515625 755.32421875 8322.34765625 C 755.32421875 8322.212890625 755.2130737304688 8322.1005859375 755.0752563476562 8322.1005859375 L 751.2213745117188 8322.1005859375 C 750.5364379882812 8322.1005859375 749.9783935546875 8321.541015625 749.9783935546875 8320.8564453125 C 749.9783935546875 8320.390625 750.2354736328125 8319.96875 750.6489868164062 8319.7548828125 C 752.1177978515625 8318.9921875 753.459716796875 8318.009765625 754.6378784179688 8316.8369140625 C 756.5405883789062 8314.939453125 759.0682983398438 8313.8955078125 761.7548217773438 8313.8955078125 L 764.2852783203125 8313.8955078125 L 764.9674682617188 8313.8955078125 L 764.9674682617188 8314.578125 L 764.9674682617188 8321.41796875 L 764.9674682617188 8322.1005859375 L 764.2852783203125 8322.1005859375 L 761.1920166015625 8322.1005859375 C 761.0548095703125 8322.1005859375 760.9429931640625 8322.212890625 760.9429931640625 8322.34765625 C 760.9429931640625 8322.4853515625 761.0548095703125 8322.59765625 761.1920166015625 8322.59765625 L 786.723388671875 8322.59765625 M 786.723388671875 8322.84765625 L 761.1920166015625 8322.84765625 C 760.9168701171875 8322.84765625 760.6929931640625 8322.623046875 760.6929931640625 8322.34765625 C 760.6929931640625 8322.0732421875 760.9168701171875 8321.8505859375 761.1920166015625 8321.8505859375 L 764.2852783203125 8321.8505859375 L 764.7174682617188 8321.8505859375 L 764.7174682617188 8321.41796875 L 764.7174682617188 8314.578125 L 764.7174682617188 8314.1455078125 L 764.2852783203125 8314.1455078125 L 761.7548217773438 8314.1455078125 C 759.1340942382812 8314.1455078125 756.6692504882812 8315.1640625 754.8143920898438 8317.013671875 C 753.6165161132812 8318.2060546875 752.25390625 8319.203125 750.7642211914062 8319.9765625 C 750.4335327148438 8320.1474609375 750.2283935546875 8320.484375 750.2283935546875 8320.8564453125 C 750.2283935546875 8321.404296875 750.673828125 8321.8505859375 751.2213745117188 8321.8505859375 L 755.0752563476562 8321.8505859375 C 755.3504028320312 8321.8505859375 755.57421875 8322.0732421875 755.57421875 8322.34765625 C 755.57421875 8322.623046875 755.3504028320312 8322.84765625 755.0752563476562 8322.84765625 L 751.2213745117188 8322.84765625 C 750.1239013671875 8322.84765625 749.2310180664062 8321.9541015625 749.2310180664062 8320.8564453125 C 749.2310180664062 8320.111328125 749.642333984375 8319.4345703125 750.3045043945312 8319.0908203125 C 751.7050170898438 8318.36328125 752.9854736328125 8317.4267578125 754.1101684570312 8316.306640625 C 756.154296875 8314.26953125 758.8692016601562 8313.1484375 761.7548217773438 8313.1484375 L 773.0592041015625 8313.1484375 C 775.2255249023438 8313.1484375 777.322021484375 8313.7900390625 779.1220092773438 8315.00390625 L 785.2813720703125 8319.166015625 C 785.670654296875 8319.427734375 786.0794067382812 8319.6767578125 786.4959106445312 8319.90625 C 787.2142944335938 8320.302734375 787.6647338867188 8321.044921875 787.67919921875 8321.8505859375 L 787.7380981445312 8321.8505859375 L 787.63720703125 8322.173828125 L 787.5055541992188 8322.6513671875 L 787.4251708984375 8322.5380859375 C 787.2470703125 8322.73046875 786.993408203125 8322.84765625 786.723388671875 8322.84765625 Z M 765.7161254882812 8321.8505859375 L 766.1483154296875 8321.8505859375 L 786.096435546875 8321.8505859375 L 786.9352416992188 8321.8505859375 L 786.4487915039062 8321.16796875 C 786.3377075195312 8321.009765625 786.188232421875 8320.876953125 786.0157470703125 8320.7822265625 C 785.5794677734375 8320.54296875 785.1445922851562 8320.27734375 784.7230834960938 8319.9921875 L 778.5639038085938 8315.83203125 C 776.9326782226562 8314.7294921875 775.0292358398438 8314.146484375 773.0592041015625 8314.146484375 L 766.1483154296875 8314.146484375 L 765.7161254882812 8314.146484375 L 765.7161254882812 8314.578125 L 765.7161254882812 8321.41796875 L 765.7161254882812 8321.8505859375 Z" stroke="none" fill="#003241"/>
    </g>
    <g id="Path_282" data-name="Path 282" transform="translate(-748.951 -8290.692)" fill="#003241" stroke-miterlimit="10">
      <path d="M 775.837646484375 8331.5810546875 L 772.9614868164062 8331.5810546875 C 772.755615234375 8331.5810546875 772.588134765625 8331.4130859375 772.588134765625 8331.20703125 C 772.588134765625 8331.0009765625 772.755615234375 8330.8330078125 772.9614868164062 8330.8330078125 L 775.837646484375 8330.8330078125 C 776.0438842773438 8330.8330078125 776.211669921875 8331.0009765625 776.211669921875 8331.20703125 C 776.211669921875 8331.4130859375 776.0438842773438 8331.5810546875 775.837646484375 8331.5810546875 Z" stroke="none"/>
      <path d="M 775.837646484375 8331.4560546875 C 775.9747924804688 8331.4560546875 776.086669921875 8331.3447265625 776.086669921875 8331.20703125 C 776.086669921875 8331.0703125 775.9747924804688 8330.9580078125 775.837646484375 8330.9580078125 L 772.9614868164062 8330.9580078125 C 772.8243408203125 8330.9580078125 772.713134765625 8331.0703125 772.713134765625 8331.20703125 C 772.713134765625 8331.3447265625 772.8243408203125 8331.4560546875 772.9614868164062 8331.4560546875 L 775.837646484375 8331.4560546875 M 775.837646484375 8331.7060546875 L 772.9614868164062 8331.7060546875 C 772.6867065429688 8331.7060546875 772.463134765625 8331.482421875 772.463134765625 8331.20703125 C 772.463134765625 8330.931640625 772.6867065429688 8330.7080078125 772.9614868164062 8330.7080078125 L 775.837646484375 8330.7080078125 C 776.11279296875 8330.7080078125 776.336669921875 8330.931640625 776.336669921875 8331.20703125 C 776.336669921875 8331.482421875 776.11279296875 8331.7060546875 775.837646484375 8331.7060546875 Z" stroke="none" fill="#003241"/>
    </g>
    <g id="Path_283" data-name="Path 283" transform="translate(-737.882 -8271.936)" fill="#003241" stroke-miterlimit="10">
      <path d="M 791.3980712890625 8325.8525390625 C 789.89697265625 8325.8525390625 788.4857788085938 8325.267578125 787.4244384765625 8324.205078125 C 786.7463989257812 8323.5283203125 786.2509155273438 8322.681640625 785.9918212890625 8321.7578125 L 785.8782348632812 8321.3505859375 L 785.4552612304688 8321.3505859375 L 754.5323486328125 8321.3505859375 L 754.1099243164062 8321.3505859375 L 753.9957275390625 8321.7578125 C 753.7364501953125 8322.6826171875 753.2412109375 8323.529296875 752.5636596679688 8324.2060546875 C 751.5054321289062 8325.265625 750.093994140625 8325.849609375 748.5895385742188 8325.849609375 C 747.08544921875 8325.849609375 745.6741943359375 8325.265625 744.6157836914062 8324.205078125 C 743.8184814453125 8323.41015625 743.285400390625 8322.404296875 743.0744018554688 8321.296875 L 743.019287109375 8321.0107421875 L 742.7529296875 8320.892578125 L 739.0442504882812 8319.2451171875 C 738.2622680664062 8318.8974609375 737.757080078125 8318.119140625 737.757080078125 8317.263671875 L 737.757080078125 8308.24609375 C 737.757080078125 8306.4775390625 739.0131225585938 8304.9306640625 740.7435913085938 8304.568359375 L 742.0807495117188 8304.2890625 C 744.5159301757812 8303.779296875 746.7346801757812 8302.5810546875 748.4970703125 8300.82421875 C 751.05615234375 8298.275390625 754.4554443359375 8296.87109375 758.06884765625 8296.87109375 L 769.373291015625 8296.87109375 C 772.0902099609375 8296.87109375 774.7155151367188 8297.673828125 776.9653930664062 8299.193359375 L 783.1231079101562 8303.3544921875 C 784.264404296875 8304.1259765625 785.9906616210938 8305.193359375 787.7972412109375 8305.552734375 L 789.0325927734375 8305.7978515625 L 789.6991577148438 8305.9306640625 L 789.6991577148438 8305.2509765625 L 789.6991577148438 8294.0341796875 L 789.6991577148438 8293.4765625 L 789.1419677734375 8293.4765625 L 782.087158203125 8293.4765625 C 781.1138916015625 8293.4765625 780.3220825195312 8292.68359375 780.3220825195312 8291.7099609375 L 780.3220825195312 8286.5087890625 C 780.3220825195312 8286.302734375 780.4895629882812 8286.134765625 780.6953735351562 8286.134765625 C 780.901611328125 8286.134765625 781.0693969726562 8286.302734375 781.0693969726562 8286.5087890625 L 781.0693969726562 8291.7099609375 C 781.0693969726562 8292.2724609375 781.5259399414062 8292.7294921875 782.087158203125 8292.7294921875 L 800.221923828125 8292.7294921875 C 800.7830810546875 8292.7294921875 801.2396240234375 8292.2724609375 801.2396240234375 8291.7099609375 L 801.2396240234375 8273.5771484375 C 801.2396240234375 8273.015625 800.7830810546875 8272.55859375 800.221923828125 8272.55859375 L 782.0878295898438 8272.55859375 C 781.5266723632812 8272.55859375 781.0701293945312 8273.015625 781.0701293945312 8273.5771484375 L 781.0701293945312 8280.455078125 C 781.0701293945312 8280.662109375 780.9022827148438 8280.830078125 780.696044921875 8280.830078125 C 780.4898681640625 8280.830078125 780.3220825195312 8280.662109375 780.3220825195312 8280.455078125 L 780.3220825195312 8273.5771484375 C 780.3220825195312 8272.603515625 781.1138916015625 8271.810546875 782.087158203125 8271.810546875 L 800.22119140625 8271.810546875 C 801.1948852539062 8271.810546875 801.9869995117188 8272.603515625 801.9869995117188 8273.5771484375 L 801.9869995117188 8291.7099609375 C 801.9869995117188 8292.68359375 801.1948852539062 8293.4765625 800.22119140625 8293.4765625 L 794.0000610351562 8293.4765625 L 793.4428100585938 8293.4765625 L 793.4428100585938 8294.0341796875 L 793.4428100585938 8306.2177734375 L 793.4428100585938 8306.67578125 L 793.8921508789062 8306.7646484375 L 796.2955932617188 8307.2421875 C 798.2473754882812 8307.630859375 799.9566650390625 8308.83203125 800.9852294921875 8310.537109375 L 801.2799682617188 8311.0263671875 C 801.7527465820312 8311.8115234375 802.002685546875 8312.7099609375 802.002685546875 8313.626953125 L 802.002685546875 8318.455078125 C 802.002685546875 8320.0517578125 800.7040405273438 8321.3505859375 799.1078491210938 8321.3505859375 L 797.3409423828125 8321.3505859375 L 796.9185180664062 8321.3505859375 L 796.8042602539062 8321.7578125 C 796.5450439453125 8322.6826171875 796.0498657226562 8323.529296875 795.372314453125 8324.2060546875 C 794.311767578125 8325.267578125 792.9003295898438 8325.8525390625 791.3980712890625 8325.8525390625 Z M 787.3291625976562 8317.5517578125 L 787.327392578125 8317.556640625 L 787.3212890625 8317.5654296875 C 786.0643310546875 8319.484375 786.3301391601562 8322.0546875 787.9532470703125 8323.677734375 C 788.8738403320312 8324.59765625 790.0972290039062 8325.1044921875 791.3980712890625 8325.1044921875 C 792.6994018554688 8325.1044921875 793.9230346679688 8324.59765625 794.8435668945312 8323.677734375 C 796.4659423828125 8322.0546875 796.7317504882812 8319.4833984375 795.4755249023438 8317.5654296875 L 795.45751953125 8317.5380859375 L 795.343017578125 8317.373046875 L 795.2930297851562 8317.306640625 L 795.1937866210938 8317.1796875 L 795.0822143554688 8317.0458984375 L 795.0247192382812 8316.978515625 C 794.96533203125 8316.9140625 794.9046630859375 8316.84765625 794.843994140625 8316.7880859375 C 793.92333984375 8315.8671875 792.69970703125 8315.3603515625 791.3980712890625 8315.3603515625 C 790.0969848632812 8315.3603515625 788.8738403320312 8315.8671875 787.9539184570312 8316.787109375 C 787.9004516601562 8316.8388671875 787.8486938476562 8316.8955078125 787.7986450195312 8316.94921875 L 787.7709350585938 8316.9794921875 L 787.6889038085938 8317.076171875 L 787.6009521484375 8317.1806640625 L 787.5051879882812 8317.3037109375 L 787.451416015625 8317.3759765625 L 787.3396606445312 8317.5361328125 L 787.3291625976562 8317.5517578125 Z M 744.1103515625 8318.318359375 C 743.3350830078125 8320.13671875 743.7435913085938 8322.2763671875 745.1446533203125 8323.677734375 C 746.0645141601562 8324.59765625 747.2879638671875 8325.1044921875 748.5895385742188 8325.1044921875 C 749.8908081054688 8325.1044921875 751.1143798828125 8324.59765625 752.0349731445312 8323.677734375 C 753.657470703125 8322.0546875 753.9232177734375 8319.484375 752.6669311523438 8317.5654296875 L 752.6488647460938 8317.5380859375 L 752.6444702148438 8317.53125 L 752.6441040039062 8317.5302734375 L 752.5341186523438 8317.3740234375 L 752.478271484375 8317.2978515625 L 752.384033203125 8317.177734375 L 752.27783203125 8317.05078125 L 752.216064453125 8316.978515625 C 752.1536254882812 8316.9111328125 752.094970703125 8316.8466796875 752.03564453125 8316.7880859375 C 751.9813842773438 8316.7333984375 751.9216918945312 8316.6767578125 751.8534545898438 8316.6142578125 L 751.83056640625 8316.595703125 L 751.8175659179688 8316.5849609375 L 751.816650390625 8316.5830078125 L 751.6663818359375 8316.4541015625 L 751.6524658203125 8316.443359375 L 751.6514892578125 8316.4423828125 L 751.6478271484375 8316.4404296875 C 750.7867431640625 8315.74609375 749.7006225585938 8315.36328125 748.5895385742188 8315.36328125 C 747.4765014648438 8315.36328125 746.3836059570312 8315.7509765625 745.5120849609375 8316.455078125 L 745.3592529296875 8316.587890625 L 745.3292846679688 8316.6123046875 L 745.322509765625 8316.6181640625 L 745.1771850585938 8316.7568359375 L 745.1309814453125 8316.8037109375 C 745.0742797851562 8316.8603515625 745.0198974609375 8316.91796875 744.964111328125 8316.9765625 L 744.9044799804688 8317.0478515625 L 744.7972412109375 8317.1748046875 L 744.7244873046875 8317.2685546875 L 744.6390380859375 8317.3818359375 L 744.5706787109375 8317.4794921875 L 744.4977416992188 8317.5888671875 L 744.4224853515625 8317.7080078125 L 744.3701171875 8317.7978515625 L 744.2935791015625 8317.935546875 L 744.2559204101562 8318.0068359375 L 744.2320556640625 8318.0556640625 L 744.426513671875 8318.146484375 L 744.55029296875 8318.205078125 L 744.4857177734375 8318.3154296875 C 744.484130859375 8318.3203125 744.4828491210938 8318.3232421875 744.4815063476562 8318.3271484375 L 744.436279296875 8318.4423828125 L 744.32080078125 8318.3984375 L 744.1103515625 8318.318359375 Z M 754.2235107421875 8320.6044921875 L 754.7662963867188 8320.6044921875 L 785.221923828125 8320.6044921875 L 785.76416015625 8320.6044921875 L 785.7792358398438 8320.0615234375 C 785.8126831054688 8318.8271484375 786.2485961914062 8317.6591796875 787.0398559570312 8316.68359375 L 787.1879272460938 8316.5107421875 L 787.2296142578125 8316.4638671875 L 787.3978271484375 8316.2880859375 L 787.4215087890625 8316.2626953125 C 788.2171020507812 8315.4658203125 789.2086791992188 8314.9345703125 790.2920532226562 8314.7216796875 C 790.6516723632812 8314.6484375 791.024169921875 8314.611328125 791.3980712890625 8314.611328125 C 791.8603515625 8314.611328125 792.32275390625 8314.66796875 792.7724609375 8314.78125 C 793.7501831054688 8315.0244140625 794.6486206054688 8315.53515625 795.370361328125 8316.2578125 L 795.3926391601562 8316.28125 L 795.3964233398438 8316.28515625 L 795.3994140625 8316.287109375 L 795.4021606445312 8316.2900390625 L 795.4203491210938 8316.3095703125 C 795.469970703125 8316.361328125 795.519775390625 8316.4130859375 795.5750122070312 8316.47265625 L 795.6021728515625 8316.50390625 C 795.6580810546875 8316.5673828125 795.7077026367188 8316.6240234375 795.7705078125 8316.701171875 C 796.5529174804688 8317.6650390625 796.984130859375 8318.8271484375 797.0176391601562 8320.0625 L 797.0321044921875 8320.603515625 L 797.57421875 8320.603515625 L 799.1071166992188 8320.603515625 C 800.2909545898438 8320.603515625 801.2546997070312 8319.6396484375 801.25537109375 8318.455078125 L 801.25537109375 8313.626953125 C 801.25537109375 8312.8447265625 801.0424194335938 8312.0791015625 800.6395263671875 8311.412109375 L 800.3453979492188 8310.9228515625 C 799.4254150390625 8309.3984375 797.8961791992188 8308.3232421875 796.14990234375 8307.9755859375 L 787.6521606445312 8306.287109375 C 785.7166137695312 8305.9013671875 783.9020385742188 8304.783203125 782.70556640625 8303.974609375 L 776.5465087890625 8299.814453125 C 774.4185791015625 8298.3779296875 771.9381103515625 8297.6181640625 769.373291015625 8297.6181640625 L 758.069580078125 8297.6181640625 C 754.656005859375 8297.6181640625 751.444091796875 8298.9443359375 749.0255737304688 8301.353515625 C 747.1598510742188 8303.2119140625 744.8115234375 8304.4794921875 742.234375 8305.0205078125 L 740.8971557617188 8305.30078125 C 739.5110473632812 8305.5908203125 738.5050048828125 8306.8291015625 738.5050048828125 8308.24609375 L 738.5050048828125 8317.263671875 C 738.5050048828125 8317.82421875 738.8357543945312 8318.333984375 739.34765625 8318.560546875 L 742.2499389648438 8319.8505859375 L 742.9229736328125 8320.1494140625 L 743.0277709960938 8319.4208984375 C 743.1187133789062 8318.7919921875 743.3165893554688 8318.1845703125 743.6159057617188 8317.6142578125 C 743.651611328125 8317.548828125 743.6949462890625 8317.4697265625 743.7515869140625 8317.373046875 C 743.8464965820312 8317.212890625 743.9459228515625 8317.0625 744.0476684570312 8316.9248046875 L 744.0778198242188 8316.8818359375 L 744.08251953125 8316.875 L 744.0875244140625 8316.869140625 L 744.2080078125 8316.71484375 L 744.2573852539062 8316.6533203125 L 744.3757934570312 8316.5166015625 L 744.4317016601562 8316.4521484375 C 744.4950561523438 8316.3818359375 744.5567016601562 8316.3173828125 744.616455078125 8316.2587890625 C 745.6751708984375 8315.19921875 747.08642578125 8314.615234375 748.5895385742188 8314.615234375 C 749.6966552734375 8314.615234375 750.7662353515625 8314.9345703125 751.6826171875 8315.5390625 C 751.9978637695312 8315.748046875 752.2942504882812 8315.990234375 752.5636596679688 8316.2587890625 C 752.62939453125 8316.3232421875 752.69140625 8316.390625 752.757080078125 8316.4619140625 L 752.7625732421875 8316.4677734375 L 752.7830200195312 8316.4921875 L 752.78662109375 8316.49609375 C 752.8480224609375 8316.564453125 752.9050903320312 8316.6328125 752.9578247070312 8316.6962890625 C 753.7431030273438 8317.6630859375 754.175537109375 8318.826171875 754.2090454101562 8320.0625 L 754.2235107421875 8320.6044921875 Z M 790.447265625 8306.0791015625 L 790.8952026367188 8306.16796875 L 792.0296630859375 8306.3935546875 L 792.6954956054688 8306.52734375 L 792.6954956054688 8305.84765625 L 792.6954956054688 8294.0341796875 L 792.6954956054688 8293.4765625 L 792.1383056640625 8293.4765625 L 791.0044555664062 8293.4765625 L 790.447265625 8293.4765625 L 790.447265625 8294.0341796875 L 790.447265625 8305.6220703125 L 790.447265625 8306.0791015625 Z" stroke="none"/>
      <path d="M 791.3980712890625 8325.7275390625 C 792.8662719726562 8325.7275390625 794.246337890625 8325.15625 795.2839965820312 8324.1171875 C 795.9470825195312 8323.455078125 796.4307861328125 8322.626953125 796.6838989257812 8321.7236328125 L 796.8237915039062 8321.2255859375 L 797.3409423828125 8321.2255859375 L 799.1078491210938 8321.2255859375 C 800.6347045898438 8321.2255859375 801.877685546875 8319.984375 801.877685546875 8318.455078125 L 801.877685546875 8313.626953125 C 801.877685546875 8312.7333984375 801.6341552734375 8311.8564453125 801.1729125976562 8311.0908203125 L 800.878173828125 8310.6015625 C 799.8685302734375 8308.927734375 798.1896362304688 8307.7470703125 796.271240234375 8307.365234375 L 793.8677368164062 8306.8876953125 L 793.3178100585938 8306.7783203125 L 793.3178100585938 8306.2177734375 L 793.3178100585938 8294.0341796875 L 793.3178100585938 8293.3515625 L 794.0000610351562 8293.3515625 L 800.22119140625 8293.3515625 C 801.1258544921875 8293.3515625 801.8619995117188 8292.6162109375 801.8619995117188 8291.7099609375 L 801.8619995117188 8273.5771484375 C 801.8619995117188 8272.671875 801.1258544921875 8271.935546875 800.22119140625 8271.935546875 L 782.087158203125 8271.935546875 C 781.1824951171875 8271.935546875 780.4470825195312 8272.671875 780.4470825195312 8273.5771484375 L 780.4470825195312 8280.455078125 C 780.4470825195312 8280.5927734375 780.5589599609375 8280.705078125 780.696044921875 8280.705078125 C 780.8331909179688 8280.705078125 780.9451293945312 8280.5927734375 780.9451293945312 8280.455078125 L 780.9451293945312 8273.5771484375 C 780.9451293945312 8272.947265625 781.4574584960938 8272.43359375 782.0878295898438 8272.43359375 L 800.221923828125 8272.43359375 C 800.8515625 8272.43359375 801.3646240234375 8272.947265625 801.3646240234375 8273.5771484375 L 801.3646240234375 8291.7099609375 C 801.3646240234375 8292.3408203125 800.8515625 8292.8544921875 800.221923828125 8292.8544921875 L 782.087158203125 8292.8544921875 C 781.4574584960938 8292.8544921875 780.9443969726562 8292.3408203125 780.9443969726562 8291.7099609375 L 780.9443969726562 8286.5087890625 C 780.9443969726562 8286.37109375 780.8331909179688 8286.259765625 780.6953735351562 8286.259765625 C 780.5582885742188 8286.259765625 780.4470825195312 8286.37109375 780.4470825195312 8286.5087890625 L 780.4470825195312 8291.7099609375 C 780.4470825195312 8292.6162109375 781.1824951171875 8293.3515625 782.087158203125 8293.3515625 L 789.1419677734375 8293.3515625 L 789.8241577148438 8293.3515625 L 789.8241577148438 8294.0341796875 L 789.8241577148438 8305.2509765625 L 789.8241577148438 8306.0830078125 L 789.0082397460938 8305.9208984375 L 787.7727661132812 8305.67578125 C 785.9464721679688 8305.3115234375 784.2047729492188 8304.236328125 783.0531005859375 8303.4580078125 L 776.8954467773438 8299.296875 C 774.665283203125 8297.791015625 772.06396484375 8296.99609375 769.373291015625 8296.99609375 L 758.06884765625 8296.99609375 C 754.4893188476562 8296.99609375 751.1212158203125 8298.38671875 748.5853271484375 8300.9130859375 C 746.80615234375 8302.6865234375 744.5657958984375 8303.896484375 742.1063232421875 8304.4111328125 L 740.7692260742188 8304.6904296875 C 739.095703125 8305.041015625 737.882080078125 8306.537109375 737.882080078125 8308.24609375 L 737.882080078125 8317.263671875 C 737.882080078125 8318.0693359375 738.3575439453125 8318.802734375 739.094970703125 8319.130859375 L 742.8035888671875 8320.7783203125 L 743.1296997070312 8320.9228515625 L 743.1972045898438 8321.2734375 C 743.4031982421875 8322.3544921875 743.9251098632812 8323.33984375 744.7042236328125 8324.1171875 C 745.7405395507812 8325.1552734375 747.1206665039062 8325.724609375 748.5895385742188 8325.724609375 C 750.0589599609375 8325.724609375 751.4390869140625 8325.1552734375 752.475341796875 8324.1171875 C 753.1384887695312 8323.455078125 753.6221923828125 8322.626953125 753.8753662109375 8321.7236328125 L 754.0151977539062 8321.2255859375 L 754.5323486328125 8321.2255859375 L 785.4552612304688 8321.2255859375 L 785.9730834960938 8321.2255859375 L 786.1121826171875 8321.7236328125 C 786.3653564453125 8322.626953125 786.8497314453125 8323.455078125 787.5128784179688 8324.1171875 C 788.5512084960938 8325.15625 789.9306030273438 8325.7275390625 791.3980712890625 8325.7275390625 M 791.3980712890625 8315.2353515625 C 792.7324829101562 8315.2353515625 793.98779296875 8315.7548828125 794.9319458007812 8316.69921875 C 794.99609375 8316.7626953125 795.0588989257812 8316.8310546875 795.1195678710938 8316.8974609375 L 795.17822265625 8316.9658203125 L 795.2921752929688 8317.1025390625 L 795.3931884765625 8317.2314453125 L 795.4456787109375 8317.3017578125 L 795.5609741210938 8317.4677734375 L 795.5623168945312 8317.4697265625 L 795.580078125 8317.4970703125 C 796.8687744140625 8319.46484375 796.5966186523438 8322.1005859375 794.9319458007812 8323.7666015625 C 793.98779296875 8324.7099609375 792.7324829101562 8325.2294921875 791.3980712890625 8325.2294921875 C 790.063720703125 8325.2294921875 788.80908203125 8324.7099609375 787.8648681640625 8323.7666015625 C 786.2002563476562 8322.1015625 785.9273681640625 8319.46484375 787.2167358398438 8317.4970703125 L 787.2188110351562 8317.4921875 L 787.2371826171875 8317.46484375 L 787.3511352539062 8317.3017578125 L 787.4063720703125 8317.2275390625 L 787.5039672851562 8317.1015625 L 787.5933227539062 8316.99609375 L 787.67724609375 8316.896484375 C 787.7379760742188 8316.8310546875 787.800048828125 8316.7626953125 787.8655395507812 8316.6982421875 C 788.80908203125 8315.7548828125 790.063720703125 8315.2353515625 791.3980712890625 8315.2353515625 M 744.0438232421875 8318.1591796875 L 744.3651733398438 8318.28125 C 744.3678588867188 8318.2744140625 744.3699340820312 8318.265625 744.3733520507812 8318.259765625 L 744.0635986328125 8318.1142578125 L 744.1455078125 8317.9482421875 L 744.1843872070312 8317.875 L 744.2621459960938 8317.7353515625 L 744.3167724609375 8317.6416015625 L 744.393798828125 8317.51953125 L 744.4682006835938 8317.408203125 L 744.5391235351562 8317.306640625 L 744.6257934570312 8317.19140625 L 744.7001342773438 8317.095703125 L 744.80859375 8316.9677734375 L 744.8706665039062 8316.8935546875 C 744.9280395507812 8316.8330078125 744.98388671875 8316.7744140625 745.0419311523438 8316.7158203125 L 745.0910034179688 8316.666015625 L 745.2377319335938 8316.5263671875 L 745.2472534179688 8316.517578125 L 745.2772827148438 8316.4931640625 L 745.4335327148438 8316.357421875 C 746.33203125 8315.6318359375 747.4474487304688 8315.23828125 748.5895385742188 8315.23828125 C 749.7301635742188 8315.23828125 750.843505859375 8315.630859375 751.726318359375 8316.3427734375 L 751.7290649414062 8316.3447265625 L 751.7454223632812 8316.357421875 L 751.9105224609375 8316.4990234375 L 751.9111938476562 8316.5 L 751.9378051757812 8316.5224609375 C 752.0018920898438 8316.5810546875 752.0640258789062 8316.6396484375 752.1240234375 8316.69921875 C 752.1875 8316.7626953125 752.250244140625 8316.8310546875 752.3109741210938 8316.8974609375 L 752.373779296875 8316.970703125 L 752.4822387695312 8317.1005859375 L 752.5791015625 8317.2236328125 L 752.6363525390625 8317.3017578125 L 752.7523803710938 8317.466796875 L 752.7537841796875 8317.4697265625 L 752.771484375 8317.4970703125 C 754.0601806640625 8319.46484375 753.7872924804688 8322.1015625 752.1233520507812 8323.7666015625 C 751.1791381835938 8324.7099609375 749.924560546875 8325.2294921875 748.5895385742188 8325.2294921875 C 747.2550659179688 8325.2294921875 745.999755859375 8324.7099609375 745.0562744140625 8323.7666015625 C 743.5908813476562 8322.30078125 743.1842651367188 8320.046875 744.0438232421875 8318.1591796875 M 748.5895385742188 8314.740234375 C 747.1199340820312 8314.740234375 745.7405395507812 8315.310546875 744.7042236328125 8316.34765625 C 744.642822265625 8316.408203125 744.58349609375 8316.470703125 744.526123046875 8316.5341796875 L 744.47021484375 8316.5986328125 L 744.35498046875 8316.7314453125 L 744.3065185546875 8316.7919921875 L 744.1829833984375 8316.9501953125 L 744.1802978515625 8316.953125 L 744.1482543945312 8316.9990234375 C 744.0458984375 8317.1376953125 743.9490356445312 8317.28515625 743.859619140625 8317.435546875 C 743.8084716796875 8317.5234375 743.766845703125 8317.5986328125 743.7265625 8317.6728515625 C 743.4326171875 8318.232421875 743.240234375 8318.8251953125 743.1514892578125 8319.4384765625 L 743.023193359375 8320.3310546875 L 742.1991577148438 8319.96484375 L 739.2969970703125 8318.6748046875 C 738.7395629882812 8318.427734375 738.3800048828125 8317.873046875 738.3800048828125 8317.263671875 L 738.3800048828125 8308.24609375 C 738.3800048828125 8306.771484375 739.427978515625 8305.48046875 740.8715209960938 8305.1787109375 L 742.2086791992188 8304.8984375 C 744.7628784179688 8304.3623046875 747.0892944335938 8303.10546875 748.9373779296875 8301.2646484375 C 751.3790283203125 8298.8330078125 754.6223754882812 8297.4931640625 758.069580078125 8297.4931640625 L 769.373291015625 8297.4931640625 C 771.96435546875 8297.4931640625 774.4688110351562 8298.2607421875 776.616455078125 8299.7109375 L 782.7755126953125 8303.87109375 C 783.9625854492188 8304.6728515625 785.7615966796875 8305.783203125 787.676513671875 8306.1640625 L 796.1743774414062 8307.8525390625 C 797.95556640625 8308.2080078125 799.5144653320312 8309.3037109375 800.4525146484375 8310.8583984375 L 800.7465209960938 8311.34765625 C 801.16064453125 8312.033203125 801.38037109375 8312.8232421875 801.38037109375 8313.626953125 L 801.38037109375 8318.455078125 C 801.379638671875 8319.7080078125 800.3604125976562 8320.728515625 799.1071166992188 8320.728515625 L 797.57421875 8320.728515625 L 796.910400390625 8320.728515625 L 796.8927001953125 8320.0654296875 C 796.8599243164062 8318.8583984375 796.4383544921875 8317.72265625 795.673583984375 8316.7802734375 C 795.6107788085938 8316.703125 795.5603637695312 8316.6455078125 795.510498046875 8316.5888671875 L 795.5078125 8316.5859375 L 795.4832153320312 8316.5576171875 C 795.4218139648438 8316.4912109375 795.3671875 8316.4345703125 795.3119506835938 8316.376953125 L 795.3045043945312 8316.3701171875 L 795.2819213867188 8316.345703125 C 794.5772705078125 8315.640625 793.6985473632812 8315.140625 792.7420654296875 8314.90234375 C 792.305419921875 8314.79296875 791.853759765625 8314.736328125 791.3980712890625 8314.736328125 C 791.0338134765625 8314.736328125 790.670166015625 8314.7724609375 790.3161010742188 8314.8447265625 C 789.2559204101562 8315.052734375 788.2858276367188 8315.57421875 787.5128784179688 8316.34765625 L 787.48828125 8316.3740234375 L 787.322509765625 8316.5478515625 L 787.282958984375 8316.591796875 L 787.1369018554688 8316.7626953125 C 786.3585205078125 8317.7216796875 785.9368896484375 8318.857421875 785.9041748046875 8320.0654296875 L 785.8857421875 8320.7294921875 L 785.221923828125 8320.7294921875 L 754.7662963867188 8320.7294921875 L 754.101806640625 8320.7294921875 L 754.0841064453125 8320.0654296875 C 754.0513305664062 8318.8564453125 753.62841796875 8317.7197265625 752.8615112304688 8316.7763671875 C 752.8001098632812 8316.7021484375 752.7482299804688 8316.640625 752.6950073242188 8316.5810546875 L 752.6895751953125 8316.5751953125 L 752.6705322265625 8316.552734375 C 752.6050415039062 8316.4814453125 752.5415649414062 8316.412109375 752.475341796875 8316.34765625 C 752.2113647460938 8316.083984375 751.922119140625 8315.84765625 751.61376953125 8315.6435546875 C 750.7180786132812 8315.052734375 749.672119140625 8314.740234375 748.5895385742188 8314.740234375 M 790.322265625 8293.3515625 L 791.0044555664062 8293.3515625 L 792.1383056640625 8293.3515625 L 792.8204956054688 8293.3515625 L 792.8204956054688 8294.0341796875 L 792.8204956054688 8305.84765625 L 792.8204956054688 8306.6796875 L 792.0052490234375 8306.5166015625 L 790.8707275390625 8306.291015625 L 790.322265625 8306.181640625 L 790.322265625 8305.6220703125 L 790.322265625 8294.0341796875 L 790.322265625 8293.3515625 M 791.3980712890625 8325.9775390625 C 789.8635864257812 8325.9775390625 788.4210205078125 8325.3798828125 787.3360595703125 8324.2939453125 C 786.6428833007812 8323.6015625 786.1363525390625 8322.736328125 785.8714599609375 8321.791015625 L 785.7833251953125 8321.4755859375 L 785.4552612304688 8321.4755859375 L 754.5323486328125 8321.4755859375 L 754.2046508789062 8321.4755859375 L 754.1160278320312 8321.791015625 C 753.8510131835938 8322.7373046875 753.3447265625 8323.6025390625 752.6519775390625 8324.2939453125 C 751.5703125 8325.3779296875 750.12744140625 8325.974609375 748.5895385742188 8325.974609375 C 747.052001953125 8325.974609375 745.6093139648438 8325.3779296875 744.5272827148438 8324.2939453125 C 743.7123413085938 8323.48046875 743.1673583984375 8322.4521484375 742.9515991210938 8321.3203125 L 742.908935546875 8321.0986328125 L 742.7022705078125 8321.0068359375 L 738.9934692382812 8319.359375 C 738.1663818359375 8318.9912109375 737.632080078125 8318.1689453125 737.632080078125 8317.263671875 L 737.632080078125 8308.24609375 C 737.632080078125 8306.4189453125 738.9298706054688 8304.8203125 740.7179565429688 8304.4453125 L 742.05517578125 8304.166015625 C 744.466552734375 8303.662109375 746.6636352539062 8302.4755859375 748.4088134765625 8300.736328125 C 750.9915161132812 8298.1630859375 754.422119140625 8296.74609375 758.06884765625 8296.74609375 L 769.373291015625 8296.74609375 C 772.115234375 8296.74609375 774.7647094726562 8297.556640625 777.0353393554688 8299.08984375 L 783.1930541992188 8303.2509765625 C 784.325439453125 8304.0166015625 786.0372314453125 8305.07421875 787.8216552734375 8305.4306640625 L 789.056884765625 8305.67578125 L 789.5741577148438 8305.7783203125 L 789.5741577148438 8305.2509765625 L 789.5741577148438 8294.0341796875 L 789.5741577148438 8293.6015625 L 789.1419677734375 8293.6015625 L 782.087158203125 8293.6015625 C 781.0449829101562 8293.6015625 780.1970825195312 8292.7529296875 780.1970825195312 8291.7099609375 L 780.1970825195312 8286.5087890625 C 780.1970825195312 8286.2333984375 780.4205932617188 8286.009765625 780.6953735351562 8286.009765625 C 780.9705200195312 8286.009765625 781.1943969726562 8286.2333984375 781.1943969726562 8286.5087890625 L 781.1943969726562 8291.7099609375 C 781.1943969726562 8292.203125 781.5949096679688 8292.6044921875 782.087158203125 8292.6044921875 L 800.221923828125 8292.6044921875 C 800.7141723632812 8292.6044921875 801.1146240234375 8292.203125 801.1146240234375 8291.7099609375 L 801.1146240234375 8273.5771484375 C 801.1146240234375 8273.083984375 800.7141723632812 8272.68359375 800.221923828125 8272.68359375 L 782.0878295898438 8272.68359375 C 781.5955810546875 8272.68359375 781.1951293945312 8273.083984375 781.1951293945312 8273.5771484375 L 781.1951293945312 8280.455078125 C 781.1951293945312 8280.73046875 780.9712524414062 8280.955078125 780.696044921875 8280.955078125 C 780.4208984375 8280.955078125 780.1970825195312 8280.73046875 780.1970825195312 8280.455078125 L 780.1970825195312 8273.5771484375 C 780.1970825195312 8272.5341796875 781.0449829101562 8271.685546875 782.087158203125 8271.685546875 L 800.22119140625 8271.685546875 C 801.2637939453125 8271.685546875 802.1119995117188 8272.5341796875 802.1119995117188 8273.5771484375 L 802.1119995117188 8291.7099609375 C 802.1119995117188 8292.7529296875 801.2637939453125 8293.6015625 800.22119140625 8293.6015625 L 794.0000610351562 8293.6015625 L 793.5678100585938 8293.6015625 L 793.5678100585938 8294.0341796875 L 793.5678100585938 8306.2177734375 L 793.5678100585938 8306.5732421875 L 793.91650390625 8306.642578125 L 796.3199462890625 8307.1201171875 C 798.3062133789062 8307.515625 800.0455932617188 8308.7373046875 801.0922241210938 8310.47265625 L 801.3870239257812 8310.9619140625 C 801.87158203125 8311.765625 802.127685546875 8312.6875 802.127685546875 8313.626953125 L 802.127685546875 8318.455078125 C 802.127685546875 8320.1201171875 800.7730102539062 8321.4755859375 799.1078491210938 8321.4755859375 L 797.3409423828125 8321.4755859375 L 797.0132446289062 8321.4755859375 L 796.9246215820312 8321.791015625 C 796.6596069335938 8322.7373046875 796.1533813476562 8323.6025390625 795.4606323242188 8324.2939453125 C 794.3765869140625 8325.3798828125 792.9337158203125 8325.9775390625 791.3980712890625 8325.9775390625 Z M 787.4396362304688 8317.611328125 L 787.43798828125 8317.615234375 L 787.4258422851562 8317.6337890625 C 786.201171875 8319.5029296875 786.4601440429688 8322.0078125 788.0416870117188 8323.58984375 C 788.9385986328125 8324.486328125 790.130615234375 8324.9794921875 791.3980712890625 8324.9794921875 C 792.666015625 8324.9794921875 793.8582763671875 8324.486328125 794.7552490234375 8323.58984375 C 796.3359375 8322.0078125 796.5949096679688 8319.5029296875 795.3709716796875 8317.6337890625 L 795.354736328125 8317.609375 L 795.2427368164062 8317.4482421875 L 795.1946411132812 8317.3837890625 L 795.0977172851562 8317.259765625 L 794.9862060546875 8317.1259765625 L 794.9323120117188 8317.0634765625 C 794.8723754882812 8316.9970703125 794.8137817382812 8316.93359375 794.756103515625 8316.876953125 C 793.8585815429688 8315.9794921875 792.6663208007812 8315.4853515625 791.3980712890625 8315.4853515625 C 790.13037109375 8315.4853515625 788.9385986328125 8315.978515625 788.0422973632812 8316.875 C 787.990234375 8316.9267578125 787.9395141601562 8316.9814453125 787.8904418945312 8317.0341796875 L 787.8646850585938 8317.0625 L 787.7844848632812 8317.1572265625 L 787.6982421875 8317.2587890625 L 787.60400390625 8317.380859375 L 787.5540161132812 8317.4482421875 L 787.442138671875 8317.6083984375 L 787.4396362304688 8317.611328125 Z M 744.1796264648438 8318.478515625 C 743.48681640625 8320.2255859375 743.8963623046875 8322.2529296875 745.2330932617188 8323.58984375 C 746.1292724609375 8324.486328125 747.3213500976562 8324.9794921875 748.5895385742188 8324.9794921875 C 749.857421875 8324.9794921875 751.0496826171875 8324.486328125 751.9466552734375 8323.58984375 C 753.5274047851562 8322.0078125 753.7864379882812 8319.5029296875 752.5623168945312 8317.6337890625 L 752.5439453125 8317.60546875 L 752.5388793945312 8317.59765625 L 752.4318237304688 8317.4453125 L 752.380126953125 8317.375 L 752.2880249023438 8317.2578125 L 752.181884765625 8317.130859375 L 752.123779296875 8317.0634765625 C 752.0608520507812 8316.994140625 752.0039672851562 8316.9326171875 751.947265625 8316.8759765625 C 751.8955078125 8316.82421875 751.8381958007812 8316.7705078125 751.7727661132812 8316.7099609375 L 751.7499389648438 8316.69140625 L 751.7239990234375 8316.6689453125 L 751.7227172851562 8316.6669921875 L 751.58740234375 8316.55078125 L 751.5796508789062 8316.544921875 L 751.5777587890625 8316.5439453125 L 751.5693969726562 8316.537109375 C 750.73046875 8315.861328125 749.6721801757812 8315.48828125 748.5895385742188 8315.48828125 C 747.5064697265625 8315.48828125 746.44287109375 8315.865234375 745.5940551757812 8316.548828125 L 745.4412231445312 8316.681640625 L 745.4381713867188 8316.6845703125 L 745.4349975585938 8316.6875 L 745.4110717773438 8316.70703125 L 745.4073486328125 8316.7099609375 L 745.2664794921875 8316.84375 L 745.2200317382812 8316.8916015625 C 745.1646118164062 8316.947265625 745.1116943359375 8317.0029296875 745.0574340820312 8317.0595703125 L 745.0003662109375 8317.1279296875 L 744.8943481445312 8317.2529296875 L 744.8232421875 8317.3447265625 L 744.7416381835938 8317.453125 L 744.6748046875 8317.548828125 L 744.6033935546875 8317.65625 L 744.5305786132812 8317.771484375 L 744.4781494140625 8317.861328125 L 744.40283203125 8317.9970703125 L 744.4024658203125 8317.9970703125 L 744.4796752929688 8318.033203125 L 744.7272338867188 8318.1494140625 L 744.599609375 8318.3681640625 C 744.5989990234375 8318.3701171875 744.5984497070312 8318.37109375 744.5978393554688 8318.373046875 L 744.5073852539062 8318.6025390625 L 744.2763671875 8318.5146484375 L 744.1796264648438 8318.478515625 Z M 754.34521484375 8320.4794921875 L 754.7662963867188 8320.4794921875 L 785.221923828125 8320.4794921875 L 785.642578125 8320.4794921875 L 785.654296875 8320.05859375 C 785.6884765625 8318.7958984375 786.134033203125 8317.6015625 786.9428100585938 8316.60546875 L 786.9447631835938 8316.6025390625 L 786.9468383789062 8316.6005859375 L 787.0928955078125 8316.4296875 L 787.094970703125 8316.4267578125 L 787.0971069335938 8316.4248046875 L 787.1366577148438 8316.380859375 L 787.1390991210938 8316.3779296875 L 787.1416015625 8316.375 L 787.307373046875 8316.201171875 L 787.3301391601562 8316.1767578125 L 787.3330078125 8316.173828125 L 787.3360595703125 8316.1708984375 C 788.1463012695312 8315.3603515625 789.16015625 8314.81640625 790.2679443359375 8314.599609375 C 790.6348876953125 8314.5244140625 791.0157470703125 8314.486328125 791.3980712890625 8314.486328125 C 791.8705444335938 8314.486328125 792.3432006835938 8314.544921875 792.8027954101562 8314.66015625 C 793.8024291992188 8314.9091796875 794.720947265625 8315.4306640625 795.458740234375 8316.1689453125 L 795.462158203125 8316.1728515625 L 795.4654541015625 8316.17578125 L 795.4810791015625 8316.1923828125 L 795.48681640625 8316.1982421875 L 795.492431640625 8316.2041015625 L 795.5105590820312 8316.22265625 C 795.5607299804688 8316.275390625 795.6110229492188 8316.3271484375 795.6668090820312 8316.3876953125 L 795.66943359375 8316.390625 L 795.6719360351562 8316.3935546875 L 795.6947631835938 8316.419921875 L 795.6981811523438 8316.423828125 C 795.7528076171875 8316.4853515625 795.80322265625 8316.5439453125 795.8674926757812 8316.6220703125 C 796.66748046875 8317.6083984375 797.1083374023438 8318.7958984375 797.1426391601562 8320.05859375 L 797.15380859375 8320.478515625 L 797.57421875 8320.478515625 L 799.1071166992188 8320.478515625 C 800.2221069335938 8320.478515625 801.1296997070312 8319.5703125 801.13037109375 8318.455078125 L 801.13037109375 8313.626953125 C 801.13037109375 8312.8681640625 800.9236450195312 8312.1240234375 800.5325317382812 8311.4765625 L 800.2382202148438 8310.9873046875 C 799.3364868164062 8309.4921875 797.8373413085938 8308.439453125 796.1254272460938 8308.09765625 L 787.6278076171875 8306.4091796875 C 785.6700439453125 8306.01953125 783.841064453125 8304.892578125 782.6355590820312 8304.078125 L 776.4765014648438 8299.91796875 C 774.369384765625 8298.4951171875 771.9130859375 8297.7431640625 769.373291015625 8297.7431640625 L 758.069580078125 8297.7431640625 C 754.6892700195312 8297.7431640625 751.5087280273438 8299.056640625 749.11376953125 8301.44140625 C 747.2308959960938 8303.3173828125 744.8609008789062 8304.59765625 742.2600708007812 8305.1435546875 L 740.9227905273438 8305.423828125 C 739.59423828125 8305.701171875 738.6300048828125 8306.888671875 738.6300048828125 8308.24609375 L 738.6300048828125 8317.263671875 C 738.6300048828125 8317.775390625 738.9315795898438 8318.2392578125 739.3983154296875 8318.4462890625 L 742.3007202148438 8319.736328125 L 742.82275390625 8319.96875 L 742.904052734375 8319.4033203125 C 742.9970703125 8318.759765625 743.1993408203125 8318.138671875 743.5052490234375 8317.556640625 C 743.5421752929688 8317.48828125 743.5860595703125 8317.408203125 743.6435546875 8317.3095703125 C 743.740478515625 8317.146484375 743.8414916992188 8316.994140625 743.9448852539062 8316.853515625 L 743.975341796875 8316.8095703125 L 743.9847412109375 8316.796875 L 743.991943359375 8316.7890625 L 744.1094970703125 8316.6376953125 L 744.1597900390625 8316.5751953125 L 744.1629028320312 8316.5712890625 L 744.1661376953125 8316.5673828125 L 744.2813720703125 8316.4345703125 L 744.3372802734375 8316.3701171875 L 744.3389282226562 8316.3681640625 L 744.3406372070312 8316.3662109375 C 744.4039306640625 8316.296875 744.4672241210938 8316.23046875 744.5286865234375 8316.169921875 C 745.6104125976562 8315.0869140625 747.0530395507812 8314.490234375 748.5895385742188 8314.490234375 C 749.72119140625 8314.490234375 750.8145751953125 8314.81640625 751.7514038085938 8315.4345703125 C 752.0738525390625 8315.6484375 752.376708984375 8315.8955078125 752.6520385742188 8316.1708984375 C 752.7190551757812 8316.236328125 752.78515625 8316.3076171875 752.84912109375 8316.3779296875 L 752.8546142578125 8316.3837890625 L 752.8580322265625 8316.3876953125 L 752.8612060546875 8316.390625 L 752.8766479492188 8316.4091796875 L 752.8782348632812 8316.4111328125 C 752.942626953125 8316.4833984375 753.0006103515625 8316.552734375 753.0541381835938 8316.6171875 C 753.857666015625 8317.60546875 754.2997436523438 8318.794921875 754.333984375 8320.05859375 L 754.34521484375 8320.4794921875 Z M 790.572265625 8305.9765625 L 790.9196166992188 8306.0458984375 L 792.0540161132812 8306.271484375 L 792.5704956054688 8306.375 L 792.5704956054688 8305.84765625 L 792.5704956054688 8294.0341796875 L 792.5704956054688 8293.6015625 L 792.1383056640625 8293.6015625 L 791.0044555664062 8293.6015625 L 790.572265625 8293.6015625 L 790.572265625 8294.0341796875 L 790.572265625 8305.6220703125 L 790.572265625 8305.9765625 Z" stroke="none" fill="#003241"/>
    </g>
    <g id="Path_284" data-name="Path 284" transform="translate(-741.871 -8293.435)" fill="#003241" stroke-miterlimit="10">
      <path d="M 752.5783081054688 8344 C 751.9713745117188 8344 751.4013671875 8343.763671875 750.9732055664062 8343.333984375 C 750.544921875 8342.90625 750.3090209960938 8342.3369140625 750.3090209960938 8341.73046875 C 750.3090209960938 8341.125 750.5448608398438 8340.5546875 750.97314453125 8340.125 C 751.4033203125 8339.6962890625 751.9732055664062 8339.4609375 752.5783081054688 8339.4609375 C 753.1829833984375 8339.4609375 753.7531127929688 8339.6962890625 754.18359375 8340.1240234375 C 754.6113891601562 8340.552734375 754.8468017578125 8341.123046875 754.8468017578125 8341.73046875 C 754.8468017578125 8342.3369140625 754.6113891601562 8342.90625 754.1839599609375 8343.333984375 C 753.7557983398438 8343.763671875 753.185546875 8344 752.5783081054688 8344 Z M 752.5783081054688 8340.208984375 C 752.1719360351562 8340.208984375 751.7896118164062 8340.3662109375 751.5018920898438 8340.6533203125 C 751.2146606445312 8340.939453125 751.056396484375 8341.322265625 751.056396484375 8341.73046875 C 751.056396484375 8342.1357421875 751.2147827148438 8342.517578125 751.5023193359375 8342.806640625 C 751.7900390625 8343.09375 752.1723022460938 8343.251953125 752.5783081054688 8343.251953125 C 752.9846801757812 8343.251953125 753.3671264648438 8343.09375 753.6552124023438 8342.8056640625 C 754.2476806640625 8342.2119140625 754.2474365234375 8341.24609375 753.6544189453125 8340.65234375 C 753.367431640625 8340.3662109375 752.9852294921875 8340.208984375 752.5783081054688 8340.208984375 Z" stroke="none"/>
      <path d="M 752.5783081054688 8339.5859375 C 752.005859375 8339.5859375 751.4669189453125 8339.8095703125 751.0617065429688 8340.212890625 C 750.6571655273438 8340.619140625 750.4340209960938 8341.15625 750.4340209960938 8341.73046875 C 750.4340209960938 8342.302734375 750.6571655273438 8342.841796875 751.0617065429688 8343.24609375 C 751.4669189453125 8343.65234375 752.005859375 8343.875 752.5783081054688 8343.875 C 753.1513061523438 8343.875 753.6902465820312 8343.65234375 754.0955200195312 8343.24609375 C 754.4993896484375 8342.841796875 754.7218017578125 8342.302734375 754.7218017578125 8341.73046875 C 754.7218017578125 8341.15625 754.4993896484375 8340.6171875 754.0955200195312 8340.212890625 C 753.6895751953125 8339.8095703125 753.1513061523438 8339.5859375 752.5783081054688 8339.5859375 M 752.5783081054688 8343.376953125 C 752.1383056640625 8343.376953125 751.7247924804688 8343.205078125 751.4136962890625 8342.89453125 C 751.1026611328125 8342.58203125 750.931396484375 8342.169921875 750.931396484375 8341.73046875 C 750.931396484375 8341.2900390625 751.1026611328125 8340.875 751.4136962890625 8340.564453125 C 751.7247924804688 8340.2548828125 752.138916015625 8340.083984375 752.5783081054688 8340.083984375 C 753.018310546875 8340.083984375 753.432373046875 8340.2548828125 753.7428588867188 8340.564453125 C 754.3848266601562 8341.20703125 754.3848266601562 8342.251953125 753.7435302734375 8342.89453125 C 753.432373046875 8343.205078125 753.018310546875 8343.376953125 752.5783081054688 8343.376953125 M 752.5783081054688 8339.3359375 C 753.2162475585938 8339.3359375 753.817626953125 8339.583984375 754.271728515625 8340.03515625 C 754.723388671875 8340.4873046875 754.9718017578125 8341.08984375 754.9718017578125 8341.73046875 C 754.9718017578125 8342.3701171875 754.723388671875 8342.9716796875 754.2723999023438 8343.4228515625 C 753.8206787109375 8343.8759765625 753.218994140625 8344.125 752.5783081054688 8344.125 C 751.9379272460938 8344.125 751.3364868164062 8343.8759765625 750.8847045898438 8343.4228515625 C 750.4329833984375 8342.970703125 750.1840209960938 8342.3701171875 750.1840209960938 8341.73046875 C 750.1840209960938 8341.091796875 750.4328002929688 8340.490234375 750.8845825195312 8340.0361328125 C 751.3386840820312 8339.583984375 751.93994140625 8339.3359375 752.5783081054688 8339.3359375 Z M 752.5783081054688 8343.126953125 C 752.9512939453125 8343.126953125 753.3024291992188 8342.9814453125 753.5669555664062 8342.7177734375 C 754.110595703125 8342.1728515625 754.1103515625 8341.2861328125 753.5659790039062 8340.7412109375 C 753.3027954101562 8340.478515625 752.951904296875 8340.333984375 752.5783081054688 8340.333984375 C 752.2052001953125 8340.333984375 751.854248046875 8340.478515625 751.5900268554688 8340.7412109375 C 751.32666015625 8341.0048828125 751.181396484375 8341.35546875 751.181396484375 8341.73046875 C 751.181396484375 8342.1025390625 751.3268432617188 8342.453125 751.5908813476562 8342.7177734375 C 751.854736328125 8342.9814453125 752.2056274414062 8343.126953125 752.5783081054688 8343.126953125 Z" stroke="none" fill="#003241"/>
    </g>
    <g id="Path_285" data-name="Path 285" transform="translate(-761.812 -8293.435)" fill="#003241" stroke-miterlimit="10">
      <path d="M 815.32763671875 8344 C 814.7207641601562 8344 814.1507568359375 8343.763671875 813.7225952148438 8343.333984375 C 812.8385009765625 8342.451171875 812.8384399414062 8341.0107421875 813.7225952148438 8340.125 C 814.1527099609375 8339.6962890625 814.7225952148438 8339.4609375 815.32763671875 8339.4609375 C 815.9327392578125 8339.4609375 816.5026245117188 8339.6962890625 816.9324340820312 8340.1240234375 C 817.3610229492188 8340.5537109375 817.5968627929688 8341.1240234375 817.5968627929688 8341.73046875 C 817.5968627929688 8342.337890625 817.3609619140625 8342.9072265625 816.9324951171875 8343.3349609375 C 816.5045776367188 8343.763671875 815.9345703125 8344 815.32763671875 8344 Z M 815.32763671875 8340.208984375 C 814.9212646484375 8340.208984375 814.5390625 8340.3662109375 814.2513427734375 8340.6533203125 C 813.658447265625 8341.24609375 813.658447265625 8342.212890625 814.2515869140625 8342.806640625 C 814.5394287109375 8343.09375 814.921630859375 8343.251953125 815.32763671875 8343.251953125 C 815.733642578125 8343.251953125 816.1159057617188 8343.09375 816.4039306640625 8342.8056640625 C 816.6912841796875 8342.51953125 816.8495483398438 8342.13671875 816.8495483398438 8341.73046875 C 816.8495483398438 8341.322265625 816.6912841796875 8340.939453125 816.4039306640625 8340.6533203125 C 816.1163330078125 8340.3662109375 815.7340087890625 8340.208984375 815.32763671875 8340.208984375 Z" stroke="none"/>
      <path d="M 815.32763671875 8339.5859375 C 814.7553100585938 8339.5859375 814.21630859375 8339.8095703125 813.8110961914062 8340.212890625 C 812.9754028320312 8341.05078125 812.9754028320312 8342.4111328125 813.8110961914062 8343.24609375 C 814.21630859375 8343.65234375 814.754638671875 8343.875 815.32763671875 8343.875 C 815.9006958007812 8343.875 816.4390258789062 8343.65234375 816.84423828125 8343.24609375 C 817.24951171875 8342.841796875 817.4718627929688 8342.302734375 817.4718627929688 8341.73046875 C 817.4718627929688 8341.15625 817.24951171875 8340.619140625 816.84423828125 8340.212890625 C 816.4390258789062 8339.8095703125 815.9006958007812 8339.5859375 815.32763671875 8339.5859375 M 815.32763671875 8343.376953125 C 814.8876953125 8343.376953125 814.4741821289062 8343.205078125 814.1631469726562 8342.89453125 C 813.5211791992188 8342.251953125 813.5211791992188 8341.20703125 814.1631469726562 8340.564453125 C 814.4741821289062 8340.2548828125 814.8883666992188 8340.083984375 815.32763671875 8340.083984375 C 815.7677001953125 8340.083984375 816.18115234375 8340.2548828125 816.4922485351562 8340.564453125 C 816.8032836914062 8340.875 816.9745483398438 8341.2900390625 816.9745483398438 8341.73046875 C 816.9745483398438 8342.169921875 816.8032836914062 8342.583984375 816.4922485351562 8342.89453125 C 816.18115234375 8343.205078125 815.7669677734375 8343.376953125 815.32763671875 8343.376953125 M 815.32763671875 8339.3359375 C 815.9660034179688 8339.3359375 816.5672607421875 8339.583984375 817.0206298828125 8340.0361328125 C 817.4730224609375 8340.4892578125 817.7218627929688 8341.0908203125 817.7218627929688 8341.73046875 C 817.7218627929688 8342.37109375 817.472900390625 8342.9716796875 817.0208129882812 8343.4228515625 C 816.5694580078125 8343.8759765625 815.968017578125 8344.125 815.32763671875 8344.125 C 814.6873168945312 8344.125 814.0858764648438 8343.8759765625 813.6340942382812 8343.4228515625 C 812.701416015625 8342.4912109375 812.7012939453125 8340.9716796875 813.6340942382812 8340.0361328125 C 814.0880737304688 8339.583984375 814.6893310546875 8339.3359375 815.32763671875 8339.3359375 Z M 815.32763671875 8343.126953125 C 815.7003173828125 8343.126953125 816.0512084960938 8342.9814453125 816.3156127929688 8342.7177734375 C 816.579345703125 8342.4541015625 816.7245483398438 8342.103515625 816.7245483398438 8341.73046875 C 816.7245483398438 8341.35546875 816.579345703125 8341.0048828125 816.3156127929688 8340.7412109375 C 816.0516967773438 8340.478515625 815.7007446289062 8340.333984375 815.32763671875 8340.333984375 C 814.9545288085938 8340.333984375 814.6036376953125 8340.478515625 814.3394775390625 8340.7412109375 C 813.7955322265625 8341.2861328125 813.7955322265625 8342.1728515625 814.3400268554688 8342.7177734375 C 814.6041870117188 8342.9814453125 814.9549560546875 8343.126953125 815.32763671875 8343.126953125 Z" stroke="none" fill="#003241"/>
    </g>
  </g>
</svg>
