<svg xmlns="http://www.w3.org/2000/svg" width="53.293" height="41.854" viewBox="0 0 53.293 41.854">
  <path id="Path_296" data-name="Path 296" d="M1372.736,8041.666h52.328a.471.471,0,0,0,0-.941h-11.97v-6.267l.365-.049a7.758,7.758,0,0,0,5.743-4.086l.09-.167.186-.043a7.583,7.583,0,0,0,4.22-2.7,8.713,8.713,0,0,0,1.861-5.421,8.473,8.473,0,0,0-3.975-7.273l-.194-.117-.011-.224a9.965,9.965,0,0,0-2.774-6.466,8.525,8.525,0,0,0-6.118-2.644,8.389,8.389,0,0,0-4.26,1.172.471.471,0,0,0,.24.876.476.476,0,0,0,.239-.065,7.45,7.45,0,0,1,3.781-1.042,7.621,7.621,0,0,1,5.637,2.56,9.091,9.091,0,0,1,2.328,6.123.473.473,0,0,0,.258.419,7.454,7.454,0,0,1,3.91,6.681,7.77,7.77,0,0,1-1.626,4.779,6.588,6.588,0,0,1-4.094,2.5.469.469,0,0,0-.347.26,6.91,6.91,0,0,1-4.963,3.906l-.495.088v-8.581l4.526-4.161a.471.471,0,1,0-.636-.693h0l-3.889,3.576v-6.914a.471.471,0,1,0-.941,0v11.755l-3.889-3.576a.47.47,0,0,0-.664.028h0a.468.468,0,0,0,.028.664l4.526,4.162v3.757l-.475-.061a6.876,6.876,0,0,1-5.281-4.007.472.472,0,0,0-.327-.259,6.629,6.629,0,0,1-3.913-2.556,7.779,7.779,0,0,1-1.529-4.667,7.443,7.443,0,0,1,3.658-6.546.471.471,0,0,0,.24-.411v0l0-.068h0v-.053a9.143,9.143,0,0,1,1.663-5.321.47.47,0,1,0-.768-.544,10.038,10.038,0,0,0-1.83,5.5l-.008.219-.184.12a8.436,8.436,0,0,0-3.71,7.107,8.226,8.226,0,0,0,5.784,8.046l.176.048.085.161a7.729,7.729,0,0,0,6.041,4.192l.38.037v6.248h-1.385l-.022-.4a5.224,5.224,0,0,0-3.653-4.671l-.178-.056-.079-.167a4.864,4.864,0,0,0-3.353-2.676l-.264-.058-.058-.263a4.85,4.85,0,0,0-8.958-1.352l-.116.2-.235.008a5.026,5.026,0,0,0-4.073,2.361l-.458.734-.3-.813a4.049,4.049,0,0,0-3.494-2.646l-.391-.028v-3.1l.363-.051a7.446,7.446,0,0,0,5.474-3.9l.091-.167.184-.043a7.274,7.274,0,0,0,4.036-2.589,8.358,8.358,0,0,0,1.787-5.2,8.133,8.133,0,0,0-3.8-6.971l-.192-.116-.012-.224a9.557,9.557,0,0,0-2.668-6.191,8.18,8.18,0,0,0-5.865-2.53,8.048,8.048,0,0,0-4.838,1.624.468.468,0,0,0-.19.378.462.462,0,0,0,.093.28.47.47,0,0,0,.659.1,7.128,7.128,0,0,1,4.276-1.437,7.279,7.279,0,0,1,5.383,2.446,8.684,8.684,0,0,1,2.222,5.846.47.47,0,0,0,.258.419,7.117,7.117,0,0,1,3.732,6.379,7.418,7.418,0,0,1-1.551,4.562,6.283,6.283,0,0,1-3.908,2.386.471.471,0,0,0-.347.26,6.6,6.6,0,0,1-4.689,3.721l-.5.092v-8.186l4.327-3.979a.471.471,0,0,0-.318-.817.463.463,0,0,0-.318.124h0l-3.69,3.394v-6.574a.471.471,0,1,0-.941,0v11.209l-3.69-3.393a.469.469,0,0,0-.664.027h0a.47.47,0,0,0,.028.665l4.326,3.978v3.569l-.478-.065a6.571,6.571,0,0,1-4.994-3.818.473.473,0,0,0-.328-.259,6.332,6.332,0,0,1-3.735-2.44,7.431,7.431,0,0,1-1.458-4.456,7.108,7.108,0,0,1,3.492-6.25.471.471,0,0,0,.24-.409v-.006l0-.067h0v-.05a8.912,8.912,0,0,1,.635-3.328,8.6,8.6,0,0,1,.429-.913.47.47,0,0,0-.188-.638h0a.468.468,0,0,0-.638.188,9.58,9.58,0,0,0-.476,1.014,9.8,9.8,0,0,0-.7,3.31l-.008.218-.182.12a8.1,8.1,0,0,0-3.545,6.811,7.9,7.9,0,0,0,5.537,7.718l.175.048.085.159a7.42,7.42,0,0,0,5.759,4.008l.378.039v3.231l-.282.1a4.009,4.009,0,0,0-2.125,1.738l-.115.194-.224.012a4.135,4.135,0,0,0-3.863,3.479l-.036.225-.209.093a5.326,5.326,0,0,0-2.986,3.521l-.082.315h-1.542a.471.471,0,0,0,0,.941Zm17.791-7.428a4.086,4.086,0,0,1,3.518-2c.094,0,.192,0,.306.013h.035a.471.471,0,0,0,.433-.289,3.909,3.909,0,0,1,7.5,1.206.47.47,0,0,0,.432.432,3.913,3.913,0,0,1,3.368,2.565.47.47,0,0,0,.343.3,4.268,4.268,0,0,1,3.334,3.807l.038.456h-14.482l-.045-.371,0-.031v0q-.014-.146-.037-.285l0-.012v-.009c-.016-.1-.036-.192-.059-.287l0-.006v-.007c-.023-.092-.049-.186-.079-.277v-.005l-.008-.026q-.043-.13-.1-.26h0l-.015-.037c-.034-.083-.072-.166-.111-.247l-.019-.041c-.041-.081-.083-.16-.129-.238l-.02-.035h0c-.047-.079-.1-.157-.148-.232h0l-.017-.023,0,0c-.055-.079-.111-.155-.168-.227l0,0-.012-.016h0c-.062-.078-.126-.152-.192-.225l-.01-.009h0c-.063-.069-.129-.135-.2-.2l0,0-.015-.014c-.068-.064-.138-.125-.21-.185h0l-.028-.023q-.1-.084-.218-.165h0l-.037-.026c-.074-.05-.149-.1-.226-.147l-.036-.021q-.122-.072-.242-.133l0,0-.036-.018c-.087-.043-.173-.083-.258-.119l-.017-.006-.008,0q-.141-.058-.281-.1l-.055-.018-.047-.032-.089-.06-.05-.092-.017-.032,0-.006c-.032-.065-.066-.129-.1-.189l-.058-.1-.073-.116v0l-.07-.1-.068-.094c-.032-.042-.06-.081-.084-.111l-.054-.064c-.068-.082-.14-.161-.214-.237l0,0-.038-.039c-.033-.033-.07-.068-.11-.1l-.071-.063c-.036-.032-.072-.062-.107-.092l-.09-.07,0,0-.107-.082c-.048-.034-.1-.069-.154-.1h0l-.382-.26Zm-15.1,5.912a4.376,4.376,0,0,1,2.723-2.564h0a.472.472,0,0,0,.325-.435,3.209,3.209,0,0,1,3.221-3.126c.074,0,.151,0,.24.009h.036a.472.472,0,0,0,.435-.288,3.077,3.077,0,0,1,5.905.948.471.471,0,0,0,.433.433,3.076,3.076,0,0,1,.813.178l.008,0,.014.006h0c.042.016.082.031.118.047h0l.033.014.006,0,.117.054.01,0,.037.019h0c.059.03.115.061.17.093l.007,0,.091.056,0,0,.059.04.007,0,.092.065.005,0,.054.041.008.006.1.083,0,0,.031.026.005,0a3.064,3.064,0,0,1,.287.29l0,0,.021.025c.038.045.074.091.108.136h0l.021.028a3.041,3.041,0,0,1,.219.344l0,.005.022.041h0c.024.046.047.092.068.138h0l.021.047,0,.006c.025.057.049.116.073.18l0,0v0a.472.472,0,0,0,.344.3q.14.031.268.07h0l.011,0,.074.026h0c.051.018.109.037.173.062l.007,0,.006,0,.085.037c.047.021.1.043.151.069h0l.013.006.086.046h0c.045.024.092.05.141.081l0,0,.084.053.006,0c.043.028.086.058.13.089l0,0,.089.066,0,0,.114.093,0,0,.082.072.006.006.106.1.006.007.063.063.006.006c.047.05.088.1.125.142h0l.044.052.007.009c.055.068.108.14.157.213l0,.006,0,0,.023.037h0l0,0h0c.036.054.072.111.107.174v0l.006.011.039.074v0c.025.046.052.1.078.153l0,0,0,.007.037.086h0c.02.047.041.1.061.15l0,.006v0l.032.092,0,.005c.016.048.032.1.047.15l0,.009.026.1v.007c.013.053.025.105.035.158v0l.02.108.073.534H1375.2Z" transform="translate(-1372.266 -7999.812)" fill="#003241"/>
</svg>
