<svg xmlns="http://www.w3.org/2000/svg" width="51.586" height="48.808" viewBox="0 0 51.586 48.808">
  <g id="Group_1432" data-name="Group 1432" transform="translate(0.001 0)">
    <path id="Path_312" data-name="Path 312" d="M1682.778,8875.313a.552.552,0,0,0-.04-.2.517.517,0,0,0-.475-.317h-12.1a.515.515,0,1,0,0,1.03h10.851l-8.869,8.87a.515.515,0,0,0,.729.729l9.749-9.75A.518.518,0,0,0,1682.778,8875.313Z" transform="translate(-1631.193 -8852.296)" fill="#003241"/>
    <path id="Path_313" data-name="Path 313" d="M1634.189,8869.132a2.689,2.689,0,0,0-1.837-2.545l-.329-.108v-8.918l.4-.064a6.921,6.921,0,0,0,4.458-2.914,10.206,10.206,0,0,0,1.846-5.967,10.081,10.081,0,0,0-2.151-6.362,6.263,6.263,0,0,0-10.146,0,10.077,10.077,0,0,0-2.151,6.362,10.2,10.2,0,0,0,1.846,5.967,6.919,6.919,0,0,0,4.457,2.914l.4.064v8.918l-.329.108a2.69,2.69,0,0,0-1.836,2.545v16.658a2.68,2.68,0,0,0,5.361,0Zm-7.1-14.965a9.573,9.573,0,0,1,0-11.1,5.3,5.3,0,0,1,8.837,0,9.575,9.575,0,0,1,0,11.1,5.3,5.3,0,0,1-8.837,0Zm6.068,31.623a1.65,1.65,0,0,1-3.3,0v-16.658a1.65,1.65,0,0,1,3.3,0Z" transform="translate(-1614.88 -8839.663)" fill="#003241"/>
    <path id="Path_314" data-name="Path 314" d="M1652.677,8907.595a.514.514,0,0,0-.879-.364h0l-4.238,4.236-3.244-3.242a.5.5,0,0,0-.365-.15.5.5,0,0,0-.363.15h0a.516.516,0,0,0,0,.729l3.608,3.607a.513.513,0,0,0,.364.15.518.518,0,0,0,.366-.15l4.6-4.6A.516.516,0,0,0,1652.677,8907.595Z" transform="translate(-1621.766 -8863.905)" fill="#003241"/>
    <path id="Path_315" data-name="Path 315" d="M1664.7,8869.132a2.689,2.689,0,0,0-1.837-2.545l-.328-.108v-8.917l.409-.062a6.151,6.151,0,0,0,5.217-6.071v-11.251a.516.516,0,0,0-1.031,0v11.251a5.114,5.114,0,0,1-5.094,5.108h-.031a5.114,5.114,0,0,1-5.094-5.108v-11.251a.515.515,0,0,0-1.031,0v11.251a6.151,6.151,0,0,0,5.217,6.071l.409.062v8.917l-.328.108a2.689,2.689,0,0,0-1.837,2.545v16.658a2.68,2.68,0,0,0,5.361,0Zm-1.031,16.658a1.65,1.65,0,0,1-3.3,0v-16.658a1.65,1.65,0,0,1,3.3,0Z" transform="translate(-1626.242 -8839.663)" fill="#003241"/>
    <path id="Path_316" data-name="Path 316" d="M1641.21,8875.827h11.668a.515.515,0,0,0,0-1.03H1641.21a.515.515,0,1,0,0,1.03Z" transform="translate(-1620.781 -8852.296)" fill="#003241"/>
    <path id="Path_317" data-name="Path 317" d="M1668.109,8852.9a.516.516,0,0,0,.516-.515v-12.207a.515.515,0,0,0-1.031,0v12.207A.514.514,0,0,0,1668.109,8852.9Z" transform="translate(-1630.453 -8839.663)" fill="#003241"/>
    <path id="Path_318" data-name="Path 318" d="M1622.444,8875.827a.516.516,0,0,0,0-1.031h-12.329a.518.518,0,0,0-.476.319.511.511,0,0,0,.112.561l10.157,10.158a.516.516,0,0,0,.88-.364.52.52,0,0,0-.151-.366l-9.277-9.276Z" transform="translate(-1609.599 -8852.296)" fill="#003241"/>
    <path id="Path_319" data-name="Path 319" d="M1662.254,8839.663a.517.517,0,0,0-.516.515v12.207a.516.516,0,0,0,1.031,0v-12.207A.516.516,0,0,0,1662.254,8839.663Z" transform="translate(-1628.347 -8839.663)" fill="#003241"/>
  </g>
</svg>
