<svg xmlns="http://www.w3.org/2000/svg" width="52.654" height="50.644" viewBox="0 0 52.654 50.644">
  <g id="Group_1421" data-name="Group 1421" transform="translate(0 0)">
    <path id="Path_275" data-name="Path 275" d="M963.968,8187.626l.032-.01a.478.478,0,0,0,.35-.459l-.019-.132v0a.484.484,0,0,0-.462-.352l-.116.017-.016.006h0l-.014.006a19.168,19.168,0,0,1-6.373,1.345A8.466,8.466,0,0,1,954,8187.4a14.51,14.51,0,0,1-2.421-1.375h0c-.444-.3-.892-.586-1.344-.857l-.323-.193v-32.407a8.524,8.524,0,0,0-8.526-8.526.482.482,0,0,0,0,.964,7.558,7.558,0,0,1,7.562,7.562v6.5H926.87v-6.5a8.528,8.528,0,0,0-8.526-8.526.482.482,0,1,0,0,.964,7.556,7.556,0,0,1,7.554,7.562v33.45l-1.018-.635a7.573,7.573,0,0,0-4.28-1.322c-1.933,0-4.6.656-8.5,2.62a.5.5,0,0,0-.273.443.484.484,0,0,0,.489.481.516.516,0,0,0,.223-.053l-.005,0c3.63-1.828,6.072-2.515,7.984-2.518a6.6,6.6,0,0,1,2.73.565,13.232,13.232,0,0,1,2.061,1.213l.022.016.02.015a9.931,9.931,0,0,0,6.086,2.157,20.5,20.5,0,0,0,6.766-1.417l.118-.047h.094c3.547-1.768,5.954-2.44,7.84-2.443a6.6,6.6,0,0,1,2.73.563,13.12,13.12,0,0,1,2.062,1.211l.018.011.025.021a9.86,9.86,0,0,0,6.092,2.149,20.286,20.286,0,0,0,6.755-1.409Zm-37.125-27.6h22.09v9.174h-22.09Zm22.105,24.443-.827-.207a7.409,7.409,0,0,0-1.8-.212c-1.92,0-4.561.651-8.429,2.586l-.14.07H937.7a19.142,19.142,0,0,1-6.239,1.3,8.207,8.207,0,0,1-4.3-1.147l-.335-.193v-6.363h22.119Zm0-5.126H926.842v-9.174h22.105Z" transform="translate(-911.761 -8144.037)" fill="#003241"/>
    <path id="Path_276" data-name="Path 276" d="M964,8216.229l.031-.009a.492.492,0,0,0,.35-.469l-.019-.131a.491.491,0,0,0-.471-.354l-.126.019-.13.042h0a19.222,19.222,0,0,1-6.367,1.35,8.262,8.262,0,0,1-3.3-.637,14.4,14.4,0,0,1-2.39-1.362l-.005,0a14.41,14.41,0,0,0-2.315-1.36,7.138,7.138,0,0,0-2.922-.595c-1.923,0-4.568.65-8.439,2.592l-.036.019-.039.014a19.368,19.368,0,0,1-6.359,1.342,8.149,8.149,0,0,1-3.277-.64,13.965,13.965,0,0,1-2.365-1.371,14.5,14.5,0,0,0-2.315-1.358,7.145,7.145,0,0,0-2.925-.595c-1.936,0-4.6.658-8.518,2.626l-.019.009-.025.012a.481.481,0,0,0-.295.446.5.5,0,0,0,.039.191.48.48,0,0,0,.445.292.519.519,0,0,0,.184-.037l.108-.057c3.631-1.825,6.074-2.512,7.987-2.515a6.6,6.6,0,0,1,2.728.564,13.111,13.111,0,0,1,2.061,1.211l.02.014.023.017a9.87,9.87,0,0,0,6.088,2.155,20.493,20.493,0,0,0,6.763-1.413l.117-.046h.1c3.6-1.8,6.029-2.479,7.928-2.481a6.609,6.609,0,0,1,2.709.555,13.136,13.136,0,0,1,2.052,1.2l.024.017.019.015a9.871,9.871,0,0,0,6.09,2.155,20.54,20.54,0,0,0,6.767-1.413Z" transform="translate(-911.728 -8167.007)" fill="#003241"/>
  </g>
</svg>
