<svg xmlns="http://www.w3.org/2000/svg" width="41.133" height="32.399" viewBox="0 0 41.133 32.399">
  <g id="Group_1430" data-name="Group 1430" transform="translate(0 0)">
    <path id="Path_297" data-name="Path 297" d="M1303.647,6854.636a3.585,3.585,0,1,1,3.586-3.585,3.593,3.593,0,0,1-3.586,3.585Zm0-5.923a2.337,2.337,0,1,0,2.338,2.337,2.338,2.338,0,0,0-2.338-2.337Zm0,0" transform="translate(-1283.081 -6822.237)" fill="#003241"/>
    <path id="Path_298" data-name="Path 298" d="M1305.682,6833.23a.642.642,0,0,1-.444-.183,11.019,11.019,0,0,0-15.582,0,.624.624,0,0,1-.881-.883,12.273,12.273,0,0,1,17.347,0,.625.625,0,0,1,0,.883.617.617,0,0,1-.439.183Zm0,0" transform="translate(-1276.881 -6812.025)" fill="#003241"/>
    <g id="Group_1429" data-name="Group 1429" transform="translate(0)">
      <path id="Path_299" data-name="Path 299" d="M1304.648,6817.641a.615.615,0,0,1-.438-.183,19.323,19.323,0,0,0-27.3,0,.623.623,0,0,1-.882-.88,20.577,20.577,0,0,1,29.063,0,.623.623,0,0,1-.444,1.063Zm0,0" transform="translate(-1269.991 -6802.292)" fill="#003241"/>
      <path id="Path_300" data-name="Path 300" d="M1303.613,6802.046a.611.611,0,0,1-.438-.184,27.616,27.616,0,0,0-39.009,0,.624.624,0,0,1-.884-.881,28.861,28.861,0,0,1,40.768,0,.621.621,0,0,1,0,.881.611.611,0,0,1-.438.184Zm0,0" transform="translate(-1263.101 -6792.552)" fill="#003241"/>
    </g>
  </g>
</svg>
