<svg xmlns="http://www.w3.org/2000/svg" width="14.975" height="14.835" viewBox="0 0 14.975 14.835"><defs><style>.a{fill:#697684;}</style></defs><g transform="translate(-0.001)"><path class="a" d="M116.2,9.776a3.678,3.678,0,0,0,3.358-3.93c0-3.01-1.5-3.93-3.358-3.93s-3.358.92-3.358,3.93A3.678,3.678,0,0,0,116.2,9.776Z" transform="translate(-108.713 -1.916)"/><path class="a" d="M14.9,227.014,13.208,223.2a.85.85,0,0,0-.383-.408L10.2,221.421a.169.169,0,0,0-.18.015,4.147,4.147,0,0,1-5.056,0,.17.17,0,0,0-.18-.015L2.15,222.79a.85.85,0,0,0-.383.408L.073,227.014A.847.847,0,0,0,.847,228.2H14.127a.847.847,0,0,0,.774-1.191Z" transform="translate(0.001 -213.369)"/></g></svg>